<?xml version="1.0" standalone="no"?>
<!DOCTYPE svg PUBLIC "-//W3C//DTD SVG 1.1//EN" "http://www.w3.org/Graphics/SVG/1.1/DTD/svg11.dtd">
<svg width="102mm" height="152mm" viewBox="-51 -76 102 152" xmlns="http://www.w3.org/2000/svg" version="1.1">
<title>OpenSCAD Model</title>
<path d="
M -50.9908,73.872 L -50.9889,73.9016 L -50.9849,73.9651 L -50.982,74.0114 L -50.977,74.0904 L -50.9535,74.2138
 L -50.9416,74.2763 L -50.936,74.3054 L -50.9116,74.3807 L -50.8972,74.4249 L -50.8881,74.453 L -50.8684,74.5136
 L -50.8558,74.5404 L -50.8287,74.598 L -50.7752,74.7116 L -50.7411,74.7653 L -50.7163,74.8045 L -50.6738,74.8714
 L -50.6579,74.8964 L -50.6391,74.9192 L -50.5886,74.9802 L -50.559,75.016 L -50.5184,75.065 L -50.4968,75.0853
 L -50.4391,75.1395 L -50.4053,75.1713 L -50.3589,75.2148 L -50.2948,75.2614 L -50.2573,75.2887 L -50.2333,75.3061
 L -50.1818,75.3435 L -50.126,75.3742 L -50.1001,75.3884 L -49.99,75.4489 L -49.9164,75.4781 L -49.8733,75.4951
 L -49.8141,75.5186 L -49.7866,75.5295 L -49.7249,75.5453 L -49.6962,75.5527 L -49.5746,75.5839 L -49.5452,75.5876
 L -49.482,75.5956 L -49.436,75.6014 L -49.3574,75.6113 L 4.89743,75.6113 L 8.55324,75.4644 L 12.1259,75.031
 L 12.2505,75.0152 L 12.3137,75.0073 L 12.3431,75.0035 L 15.8214,74.2946 L 15.943,74.2634 L 15.9717,74.256
 L 16.0334,74.2402 L 17.2787,73.8808 L 19.406,73.2668 L 22.6617,72.04 L 22.6892,72.0291 L 22.7484,72.0057
 L 22.8652,71.9595 L 25.9926,70.4903 L 26.1026,70.4298 L 26.1286,70.4155 L 26.1844,70.3848 L 29.1723,68.6843
 L 30.9617,67.4727 L 32.0093,66.7634 L 32.0608,66.726 L 32.0848,66.7086 L 32.1223,66.6813 L 32.1864,66.6347
 L 34.8613,64.5046 L 36.4392,63.0359 L 37.3629,62.1761 L 37.4093,62.1325 L 37.4431,62.1008 L 37.5008,62.0465
 L 37.5224,62.0263 L 39.8393,59.5106 L 39.8799,59.4615 L 39.9095,59.4258 L 39.9599,59.3647 L 39.9788,59.3419
 L 42.0997,56.65 L 44.0134,53.7929 L 44.0293,53.7679 L 44.0717,53.701 L 44.0965,53.6619 L 44.1307,53.6081
 L 45.8258,50.5968 L 45.8793,50.4832 L 45.9064,50.4256 L 45.919,50.3988 L 46.0063,50.2108 L 46.1555,49.8896
 L 46.1861,49.8237 L 46.2195,49.7519 L 46.2764,49.6293 L 46.331,49.5119 L 46.4242,49.3113 L 46.4991,49.15
 L 46.6271,48.8745 L 46.7215,48.6712 L 46.8828,48.3238 L 47.1893,47.6642 L 47.3843,47.2444 L 47.5124,46.9004
 L 47.7152,46.356 L 47.8339,46.0373 L 48.0589,45.4333 L 48.1906,45.0798 L 48.5806,44.0328 L 48.5982,43.9856
 L 48.6085,43.9579 L 48.6281,43.8974 L 48.6373,43.8692 L 48.6516,43.8251 L 48.6761,43.7498 L 48.7874,43.3596
 L 48.9775,42.693 L 49.3229,41.4816 L 49.4429,41.0609 L 49.6479,40.3422 L 49.6665,40.2496 L 49.6775,40.1953
 L 49.8497,39.3398 L 49.9505,38.839 L 50.131,37.9424 L 50.2366,37.4175 L 50.356,36.8246 L 50.3615,36.7955
 L 50.3735,36.733 L 50.3822,36.6874 L 50.397,36.6096 L 50.5035,35.7208 L 50.6876,34.1836 L 50.8302,32.993
 L 50.8351,32.914 L 50.838,32.8677 L 50.842,32.8041 L 50.8439,32.7746 L 50.8596,32.3775 L 50.8836,31.7744
 L 50.9244,30.7441 L 50.9908,29.07 L 50.9532,27.4446 L 50.9464,27.1515 L 50.9424,26.9798 L 50.9405,26.9503
 L 50.9365,26.8867 L 50.9336,26.8404 L 50.9286,26.7614 L 50.8502,25.6368 L 50.8261,25.2904 L 50.7848,24.6987
 L 50.7137,24.0884 L 50.5477,22.6652 L 50.5347,22.5861 L 50.3846,21.671 L 50.2967,21.1352 L 50.2192,20.6627
 L 50.2043,20.5849 L 50.1956,20.5394 L 50.1837,20.4768 L 50.1782,20.4477 L 50.1059,20.1073 L 49.9826,19.5257
 L 49.9006,19.1389 L 49.7604,18.4781 L 49.7134,18.2981 L 49.6859,18.1928 L 49.4775,17.3941 L 49.3555,16.9265
 L 49.2924,16.6847 L 49.2554,16.5431 L 49.0964,16.0315 L 49.0033,15.7321 L 48.6653,14.6446 L 48.6408,14.5692
 L 48.6265,14.5251 L 48.6174,14.497 L 48.5977,14.4364 L 48.5868,14.4064 L 48.2121,13.371 L 47.9245,12.5761
 L 47.861,12.4228 L 47.5063,11.567 L 47.3081,11.0886 L 47.1921,10.8086 L 47.1783,10.7752 L 47.1702,10.7557
 L 46.8877,10.1528 L 46.7257,9.80713 L 46.6309,9.60476 L 46.427,9.16956 L 46.3702,9.04822 L 46.3369,8.97719
 L 46.3243,8.95039 L 46.2972,8.89279 L 46.2437,8.77916 L 46.1782,8.65432 L 46.0764,8.46024 L 46.0419,8.39441
 L 45.3335,7.04423 L 44.3484,5.35471 L 44.3142,5.30096 L 44.2469,5.19492 L 44.2311,5.16992 L 43.1731,3.52759
 L 42.0443,1.93425 L 40.8468,0.391709 L 40.8279,0.36889 L 40.7479,0.272128 L 40.7073,0.223074 L 39.4431,-1.26689
 L 38.1143,-2.70248 L 36.7228,-4.08189 L 36.7012,-4.10216 L 36.6097,-4.18813 L 36.5633,-4.23171 L 35.1113,-5.55316
 L 35.0325,-5.61904 L 34.9406,-5.69574 L 35.2712,-6.1152 L 35.7758,-6.75543 L 36.6567,-7.94653 L 37.4978,-9.16174
 L 38.2978,-10.4006 L 38.3137,-10.4256 L 38.381,-10.5316 L 38.4151,-10.5853 L 39.1729,-11.8472 L 39.887,-13.1317
 L 40.5563,-14.4382 L 40.6097,-14.5519 L 40.6368,-14.6095 L 40.6494,-14.6363 L 40.6689,-14.6777 L 40.7021,-14.7484
 L 40.7121,-14.7699 L 40.7294,-14.8066 L 40.759,-14.8699 L 40.8097,-14.9779 L 40.9409,-15.2575 L 41.1205,-15.6404
 L 41.1767,-15.76 L 41.2725,-15.9643 L 41.3397,-16.1218 L 41.5851,-16.6968 L 41.8482,-17.3134 L 41.8663,-17.3606
 L 42.1539,-18.1082 L 42.375,-18.6831 L 42.4296,-18.8419 L 42.4615,-18.9349 L 42.6564,-19.5031 L 42.7706,-19.8357
 L 42.8519,-20.0727 L 42.8716,-20.1332 L 42.8807,-20.1614 L 42.8951,-20.2055 L 42.9196,-20.2808 L 43.0013,-20.5515
 L 43.1409,-21.0139 L 43.2163,-21.2635 L 43.3451,-21.69 L 43.3797,-21.8223 L 43.4387,-22.0483 L 43.5419,-22.4433
 L 43.7181,-23.1181 L 43.7215,-23.1333 L 43.7234,-23.1422 L 43.8833,-23.8667 L 43.9768,-24.2908 L 44.0373,-24.5646
 L 44.0428,-24.5937 L 44.0547,-24.6563 L 44.0634,-24.7018 L 44.0783,-24.7796 L 44.2449,-25.7041 L 44.3422,-26.2442
 L 44.3786,-26.5038 L 44.4407,-26.9473 L 44.481,-27.2349 L 44.5498,-27.7261 L 44.6002,-28.2305 L 44.6996,-29.225
 L 44.7046,-29.3041 L 44.7075,-29.3504 L 44.7115,-29.4139 L 44.7134,-29.4435 L 44.7328,-29.7673 L 44.7592,-30.2073
 L 44.8042,-30.9588 L 44.8054,-31.0168 L 44.8074,-31.116 L 44.8348,-32.49 L 44.7969,-33.3551 L 44.7747,-33.8615
 L 44.7376,-34.7077 L 44.7158,-35.2031 L 44.6856,-35.892 L 44.6838,-35.9216 L 44.6798,-35.9851 L 44.6769,-36.0314
 L 44.6719,-36.1104 L 44.5903,-36.7287 L 44.4847,-37.5287 L 44.4229,-37.9971 L 44.3209,-38.77 L 44.2612,-39.2225
 L 44.2331,-39.4352 L 44.2096,-39.5586 L 44.1977,-39.6211 L 44.1921,-39.6502 L 44.1134,-40.0066 L 43.9789,-40.6153
 L 43.7301,-41.7414 L 43.4937,-42.8113 L 43.4875,-42.8394 L 43.4769,-42.8873 L 43.2933,-43.476 L 43.1859,-43.8207
 L 42.8914,-44.7652 L 42.7192,-45.3172 L 42.6185,-45.6404 L 42.4982,-46.0261 L 42.4737,-46.1014 L 42.4594,-46.1455
 L 42.4502,-46.1737 L 42.4306,-46.2343 L 42.3242,-46.4966 L 42.2619,-46.6501 L 42.0768,-47.1066 L 41.9684,-47.3738
 L 41.8043,-47.7783 L 41.7083,-48.0151 L 41.4833,-48.5697 L 41.3647,-48.862 L 41.2953,-49.0332 L 41.2362,-49.179
 L 41.2016,-49.2643 L 41.1889,-49.2911 L 41.1618,-49.3487 L 41.1421,-49.3907 L 41.1084,-49.4624 L 41.0394,-49.5993
 L 40.9042,-49.8677 L 40.8215,-50.0319 L 40.7934,-50.0876 L 39.6421,-52.3732 L 38.5758,-54.1273 L 37.9516,-55.1542
 L 37.9175,-55.2079 L 37.8927,-55.2471 L 37.8502,-55.314 L 37.8344,-55.339 L 35.9328,-57.9797 L 35.9139,-58.0025
 L 35.8634,-58.0635 L 35.8339,-58.0993 L 35.7933,-58.1483 L 33.6937,-60.6382 L 32.2527,-62.1069 L 31.4092,-62.9668
 L 31.3876,-62.987 L 31.2961,-63.073 L 31.2496,-63.1166 L 30.3426,-63.9129 L 28.7933,-65.2733 L 27.1438,-66.5186
 L 26.1781,-67.2476 L 26.114,-67.2942 L 26.0765,-67.3214 L 26.0526,-67.3388 L 26.0011,-67.3763 L 23.2402,-69.1577
 L 23.1844,-69.1884 L 23.1585,-69.2026 L 23.0484,-69.2631 L 20.155,-70.8411 L 17.142,-72.2053 L 17.0252,-72.2515
 L 16.9661,-72.2749 L 16.9385,-72.2858 L 15.7867,-72.7067 L 13.8191,-73.4255 L 11.7926,-73.9961 L 10.6063,-74.3302
 L 10.5446,-74.3461 L 10.5159,-74.3534 L 10.3943,-74.3846 L 7.10124,-75.0439 L 7.07186,-75.0476 L 7.00869,-75.0556
 L 6.8841,-75.0713 L 3.52382,-75.4746 L 0.109429,-75.6113 L -49.3574,-75.6113 L -49.436,-75.6014 L -49.482,-75.5956
 L -49.5452,-75.5876 L -49.5746,-75.5839 L -49.6962,-75.5527 L -49.7249,-75.5453 L -49.7866,-75.5295 L -49.8141,-75.5186
 L -49.8733,-75.4951 L -49.9164,-75.4781 L -49.99,-75.4489 L -50.1001,-75.3884 L -50.126,-75.3742 L -50.1818,-75.3435
 L -50.2333,-75.3061 L -50.2573,-75.2887 L -50.2948,-75.2614 L -50.3589,-75.2148 L -50.4053,-75.1713 L -50.4391,-75.1395
 L -50.4968,-75.0853 L -50.5184,-75.065 L -50.559,-75.016 L -50.5886,-74.9802 L -50.6391,-74.9192 L -50.6579,-74.8964
 L -50.6738,-74.8714 L -50.7163,-74.8045 L -50.7411,-74.7653 L -50.7752,-74.7116 L -50.8287,-74.598 L -50.8558,-74.5404
 L -50.8684,-74.5136 L -50.8881,-74.453 L -50.8972,-74.4249 L -50.9116,-74.3807 L -50.936,-74.3054 L -50.9416,-74.2763
 L -50.9535,-74.2138 L -50.977,-74.0904 L -50.982,-74.0114 L -50.9849,-73.9651 L -50.9889,-73.9016 L -50.9908,-73.872
 z
M -37,61 L -36.9921,60.8747 L -36.9686,60.7513 L -36.9298,60.6319 L -36.8763,60.5182 L -36.809,60.4122
 L -36.729,60.3155 L -36.6374,60.2295 L -36.5358,60.1557 L -36.4258,60.0952 L -36.309,60.0489 L -36.1874,60.0177
 L -36.0628,60.002 L -35.9372,60.002 L -35.8126,60.0177 L -35.691,60.0489 L -35.5742,60.0952 L -35.4642,60.1557
 L -35.3626,60.2295 L -35.271,60.3155 L -35.191,60.4122 L -35.1237,60.5182 L -35.0702,60.6319 L -35.0314,60.7513
 L -35.0079,60.8747 L -35,61 L -35.0079,61.1253 L -35.0314,61.2487 L -35.0702,61.3681 L -35.1237,61.4818
 L -35.191,61.5878 L -35.271,61.6845 L -35.3626,61.7705 L -35.4642,61.8443 L -35.5742,61.9048 L -35.691,61.9511
 L -35.8126,61.9823 L -35.9372,61.998 L -36.0628,61.998 L -36.1874,61.9823 L -36.309,61.9511 L -36.4258,61.9048
 L -36.5358,61.8443 L -36.6374,61.7705 L -36.729,61.6845 L -36.809,61.5878 L -36.8763,61.4818 L -36.9298,61.3681
 L -36.9686,61.2487 L -36.9921,61.1253 z
M -37,-61 L -36.9921,-61.1253 L -36.9686,-61.2487 L -36.9298,-61.3681 L -36.8763,-61.4818 L -36.809,-61.5878
 L -36.729,-61.6845 L -36.6374,-61.7705 L -36.5358,-61.8443 L -36.4258,-61.9048 L -36.309,-61.9511 L -36.1874,-61.9823
 L -36.0628,-61.998 L -35.9372,-61.998 L -35.8126,-61.9823 L -35.691,-61.9511 L -35.5742,-61.9048 L -35.4642,-61.8443
 L -35.3626,-61.7705 L -35.271,-61.6845 L -35.191,-61.5878 L -35.1237,-61.4818 L -35.0702,-61.3681 L -35.0314,-61.2487
 L -35.0079,-61.1253 L -35,-61 L -35.0079,-60.8747 L -35.0314,-60.7513 L -35.0702,-60.6319 L -35.1237,-60.5182
 L -35.191,-60.4122 L -35.271,-60.3155 L -35.3626,-60.2295 L -35.4642,-60.1557 L -35.5742,-60.0952 L -35.691,-60.0489
 L -35.8126,-60.0177 L -35.9372,-60.002 L -36.0628,-60.002 L -36.1874,-60.0177 L -36.309,-60.0489 L -36.4258,-60.0952
 L -36.5358,-60.1557 L -36.6374,-60.2295 L -36.729,-60.3155 L -36.809,-60.4122 L -36.8763,-60.5182 L -36.9298,-60.6319
 L -36.9686,-60.7513 L -36.9921,-60.8747 z
M -22.8812,47.5087 L -22.8812,10.9733 L 4.67857,10.9733 L 6.30392,11.0392 L 7.17194,11.1452 L 7.68731,11.2081
 L 8.603,11.3957 L 9.14232,11.5062 L 9.652,11.6538 L 10.5149,11.9038 L 11.3234,12.2092 L 11.8024,12.3901
 L 12.6315,12.78 L 13.1195,13.0095 L 13.8594,13.4305 L 14.298,13.68 L 15.0307,14.1753 L 15.4632,14.4676
 L 15.8779,14.7968 L 16.5816,15.3554 L 17.1908,15.9199 L 17.5526,16.2551 L 18.1715,16.923 L 18.5356,17.316
 L 19.0683,17.9871 L 19.3837,18.3843 L 19.8734,19.1089 L 20.1628,19.5371 L 20.4286,20.0043 L 20.8803,20.7981
 L 21.2333,21.5488 L 21.4432,21.9952 L 21.7684,22.856 L 21.9598,23.3628 L 22.108,23.8742 L 22.3588,24.7402
 L 22.5351,25.6004 L 22.6395,26.1103 L 22.7542,27.0497 L 22.8218,27.6031 L 22.8439,28.1482 L 22.8812,29.07
 L 22.859,29.6348 L 22.8214,30.5905 L 22.7534,31.1628 L 22.6379,32.1351 L 22.534,32.655 L 22.3588,33.5318
 L 22.1043,34.4309 L 21.9542,34.9611 L 21.7647,35.4734 L 21.4432,36.3425 L 21.2298,36.8051 L 20.8702,37.5846
 L 20.6042,38.0604 L 20.1521,38.8688 L 19.8664,39.2982 L 19.3837,40.0238 L 19.0639,40.4323 L 18.523,41.1234
 L 18.1595,41.5207 L 17.5418,42.1958 L 17.1838,42.5313 L 16.5816,43.0954 L 15.8715,43.6646 L 15.4535,43.9997
 L 15.0244,44.2922 L 14.298,44.7873 L 13.8569,45.0401 L 13.1122,45.4668 L 12.6252,45.6972 L 11.798,46.0885
 L 11.3205,46.2697 L 10.5149,46.5755 L 9.65063,46.8267 L 9.14022,46.9751 L 8.60144,47.0858 L 7.68677,47.2737
 L 7.17159,47.3367 L 6.30392,47.4428 L 4.67857,47.5087 z
M -22.8812,-17.1293 L -22.8812,-47.5087 L -0.109429,-47.5087 L 1.27451,-47.4529 L 2.01426,-47.3647 L 2.45423,-47.3123
 L 3.26985,-47.1517 L 3.74969,-47.0573 L 4.48927,-46.8544 L 4.92798,-46.7341 L 5.69576,-46.4634 L 6.14852,-46.3038
 L 6.88454,-45.9849 L 7.31924,-45.7966 L 8.01955,-45.434 L 8.43385,-45.2194 L 9.14014,-44.79 L 9.55599,-44.5371
 L 10.1772,-44.0982 L 10.5459,-43.8377 L 11.199,-43.3047 L 11.5826,-42.9916 L 12.1132,-42.4919 L 12.4294,-42.1943
 L 12.9838,-41.5904 L 13.3101,-41.2351 L 13.7813,-40.6376 L 14.0605,-40.2836 L 14.4802,-39.6565 L 14.7289,-39.2849
 L 15.1092,-38.603 L 15.3336,-38.2005 L 15.6346,-37.5333 L 15.8134,-37.1371 L 16.056,-36.441 L 16.2,-36.0279
 L 16.3819,-35.2946 L 16.4897,-34.8604 L 16.5555,-34.4183 L 16.6665,-33.6723 L 16.7033,-32.9307 L 16.7252,-32.49
 L 16.7033,-32.0482 L 16.6665,-31.3048 L 16.5551,-30.5526 L 16.4891,-30.1071 L 16.3809,-29.6671 L 16.198,-28.9238
 L 16.0547,-28.5078 L 15.8134,-27.8073 L 15.5078,-27.1201 L 15.3266,-26.7126 L 15.1005,-26.3001 L 14.7172,-25.6007
 L 14.4725,-25.2279 L 14.0605,-24.6 L 13.7738,-24.2284 L 13.2884,-23.5991 L 12.9697,-23.2434 L 12.4294,-22.6403
 L 12.1021,-22.3239 L 11.5506,-21.7905 L 11.1669,-21.4682 L 10.5136,-20.9193 L 10.1548,-20.6579 L 9.55241,-20.219
 L 9.12419,-19.95 L 8.39464,-19.4917 L 7.99395,-19.2769 L 7.31924,-18.9153 L 6.55944,-18.574 L 6.11208,-18.373
 L 5.67197,-18.2119 L 4.92798,-17.9394 L 4.47974,-17.8116 L 3.72224,-17.5955 L 3.24685,-17.498 L 2.4396,-17.3325
 L 2.00472,-17.2784 L 1.27451,-17.1875 L -0.109429,-17.1293 z
M 24,54 L 24.0079,53.8747 L 24.0314,53.7513 L 24.0702,53.6319 L 24.1237,53.5182 L 24.191,53.4122
 L 24.271,53.3155 L 24.3626,53.2295 L 24.4642,53.1557 L 24.5742,53.0952 L 24.691,53.0489 L 24.8126,53.0177
 L 24.9372,53.002 L 25.0628,53.002 L 25.1874,53.0177 L 25.309,53.0489 L 25.4258,53.0952 L 25.5358,53.1557
 L 25.6374,53.2295 L 25.729,53.3155 L 25.809,53.4122 L 25.8763,53.5182 L 25.9298,53.6319 L 25.9686,53.7513
 L 25.9921,53.8747 L 26,54 L 25.9921,54.1253 L 25.9686,54.2487 L 25.9298,54.3681 L 25.8763,54.4818
 L 25.809,54.5878 L 25.729,54.6845 L 25.6374,54.7705 L 25.5358,54.8443 L 25.4258,54.9048 L 25.309,54.9511
 L 25.1874,54.9823 L 25.0628,54.998 L 24.9372,54.998 L 24.8126,54.9823 L 24.691,54.9511 L 24.5742,54.9048
 L 24.4642,54.8443 L 24.3626,54.7705 L 24.271,54.6845 L 24.191,54.5878 L 24.1237,54.4818 L 24.0702,54.3681
 L 24.0314,54.2487 L 24.0079,54.1253 z
M 29,-34 L 29.0079,-34.1253 L 29.0314,-34.2487 L 29.0702,-34.3681 L 29.1237,-34.4818 L 29.191,-34.5878
 L 29.271,-34.6845 L 29.3626,-34.7705 L 29.4642,-34.8443 L 29.5742,-34.9048 L 29.691,-34.9511 L 29.8126,-34.9823
 L 29.9372,-34.998 L 30.0628,-34.998 L 30.1874,-34.9823 L 30.309,-34.9511 L 30.4258,-34.9048 L 30.5358,-34.8443
 L 30.6374,-34.7705 L 30.729,-34.6845 L 30.809,-34.5878 L 30.8763,-34.4818 L 30.9298,-34.3681 L 30.9686,-34.2487
 L 30.9921,-34.1253 L 31,-34 L 30.9921,-33.8747 L 30.9686,-33.7513 L 30.9298,-33.6319 L 30.8763,-33.5182
 L 30.809,-33.4122 L 30.729,-33.3155 L 30.6374,-33.2295 L 30.5358,-33.1557 L 30.4258,-33.0952 L 30.309,-33.0489
 L 30.1874,-33.0177 L 30.0628,-33.002 L 29.9372,-33.002 L 29.8126,-33.0177 L 29.691,-33.0489 L 29.5742,-33.0952
 L 29.4642,-33.1557 L 29.3626,-33.2295 L 29.271,-33.3155 L 29.191,-33.4122 L 29.1237,-33.5182 L 29.0702,-33.6319
 L 29.0314,-33.7513 L 29.0079,-33.8747 z
" stroke="black" fill="lightgray" stroke-width="0.5"/>
</svg>
