<?xml version="1.0" standalone="no"?>
<!DOCTYPE svg PUBLIC "-//W3C//DTD SVG 1.1//EN" "http://www.w3.org/Graphics/SVG/1.1/DTD/svg11.dtd">
<svg width="102mm" height="152mm" viewBox="-51 -76 102 152" xmlns="http://www.w3.org/2000/svg" version="1.1">
<title>OpenSCAD Model</title>
<path d="
M -50.9908,-0 L -50.9707,2.39032 L -50.9652,3.04722 L -50.922,4.73806 L -50.8889,6.03288 L -50.8452,7.04169
 L -50.7622,8.95697 L -50.7411,9.29966 L -50.6049,11.5104 L -50.5859,11.8195 L -50.584,11.8491 L -50.58,11.9126
 L -50.5721,12.0379 L -50.4228,13.8909 L -50.3465,14.8389 L -50.2299,16.0027 L -50.0721,17.5783 L -50.0138,18.0626
 L -49.772,20.0692 L -49.7495,20.2562 L -49.4997,22.0209 L -49.3792,22.8725 L -49.2087,23.9162 L -48.9617,25.4272
 L -48.901,25.7535 L -48.57,27.5313 L -48.4975,27.9204 L -48.474,28.0438 L -48.4621,28.1063 L -48.4565,28.1354
 L -48.1779,29.4631 L -47.9462,30.567 L -47.8171,31.1172 L -47.4441,32.7073 L -47.3902,32.9371 L -47.0531,34.2316
 L -46.789,35.2456 L -46.6616,35.6888 L -46.2626,37.0773 L -46.1432,37.4925 L -45.8582,38.3954 L -45.4962,39.5421
 L -45.4533,39.6779 L -45.4145,39.7973 L -45.4054,39.8255 L -45.3857,39.8861 L -45.0594,40.831 L -44.7086,41.8466
 L -44.6522,42.0099 L -44.3555,42.7978 L -44.0212,43.6855 L -43.8756,44.0721 L -43.6962,44.5102 L -43.3839,45.2729
 L -43.0968,45.9743 L -43.0564,46.0728 L -42.8155,46.6152 L -42.5575,47.1963 L -42.3256,47.7184 L -42.1952,48.012
 L -42.1826,48.0388 L -42.1555,48.0964 L -42.102,48.21 L -42.0201,48.3803 L -41.8247,48.7868 L -41.6565,49.1365
 L -41.5153,49.4303 L -41.4005,49.669 L -41.3119,49.8533 L -41.249,49.984 L -41.2116,50.0618 L -41.1992,50.0876
 L -40.5759,51.2058 L -39.9369,52.3031 L -39.282,53.3787 L -39.2479,53.4325 L -39.1806,53.5385 L -39.1647,53.5635
 L -38.4937,54.6171 L -37.8062,55.6482 L -37.1021,56.6562 L -36.381,57.6405 L -35.6428,58.6008 L -34.8871,59.5364
 L -34.8682,59.5592 L -34.7882,59.656 L -34.7476,59.705 L -33.9742,60.6155 L -33.1828,61.5004 L -32.3733,62.359
 L -31.5453,63.191 L -30.6985,63.9958 L -30.6769,64.0161 L -30.5854,64.1021 L -30.539,64.1457 L -29.6732,64.9228
 L -28.7883,65.6717 L -27.8838,66.3918 L -26.9596,67.0828 L -26.858,67.1566 L -26.834,67.174 L -26.7825,67.2114
 L -25.8383,67.8726 L -24.8738,68.5035 L -23.8377,69.1549 L -22.7815,69.7754 L -22.7257,69.806 L -22.6997,69.8203
 L -22.5897,69.8808 L -21.514,70.47 L -20.4194,71.0275 L -19.3062,71.5533 L -18.1751,72.047 L -17.0266,72.5084
 L -16.9099,72.5547 L -16.8507,72.5781 L -16.8231,72.589 L -15.6577,73.0178 L -14.4758,73.4138 L -13.278,73.7767
 L -12.0649,74.1063 L -12.0032,74.1221 L -11.9745,74.1295 L -11.8529,74.1607 L -10.6249,74.4567 L -9.38247,74.7188
 L -8.12622,74.9468 L -6.85663,75.1404 L -6.82724,75.1441 L -6.76408,75.1521 L -6.63949,75.1678 L -5.35707,75.3268
 L -4.06235,75.4509 L -2.75582,75.5399 L -1.43801,75.5934 L -0.109429,75.6113 L 0.109429,75.6113 L 2.90079,75.57
 L 5.63444,75.4451 L 8.31422,75.2351 L 10.944,74.9383 L 11.0686,74.9226 L 11.1317,74.9146 L 11.1611,74.9109
 L 13.7447,74.5259 L 16.286,74.0511 L 18.7888,73.485 L 18.9104,73.4537 L 18.9391,73.4464 L 19.0008,73.4305
 L 21.4689,72.7716 L 23.9063,72.0183 L 26.3168,71.169 L 26.3443,71.1581 L 26.4035,71.1346 L 26.5203,71.0884
 L 28.9077,70.1417 L 31.2758,69.0959 L 33.6285,67.9496 L 35.9697,66.7012 L 36.0798,66.6407 L 36.1057,66.6265
 L 36.1615,66.5958 L 38.495,65.2438 L 40.8247,63.7866 L 43.1544,62.2227 L 45.4879,60.5506 L 45.5394,60.5132
 L 45.5633,60.4958 L 45.6649,60.422 L 48.0061,58.6401 L 50.3589,56.7468 L 50.4053,56.7033 L 50.4968,56.6173
 L 50.5184,56.597 L 50.559,56.548 L 50.6391,56.4512 L 50.6579,56.4284 L 50.6738,56.4034 L 50.7411,56.2973
 L 50.7752,56.2436 L 50.8287,56.13 L 50.8558,56.0724 L 50.8684,56.0456 L 50.8881,55.985 L 50.8972,55.9568
 L 50.936,55.8374 L 50.9416,55.8083 L 50.9535,55.7458 L 50.977,55.6224 L 50.9849,55.4971 L 50.9889,55.4336
 L 50.9908,55.404 L 50.9889,55.3744 L 50.9849,55.3109 L 50.977,55.1856 L 50.9535,55.0622 L 50.9416,54.9997
 L 50.936,54.9706 L 50.8972,54.8512 L 50.8881,54.823 L 50.8684,54.7624 L 50.8558,54.7356 L 50.8287,54.678
 L 50.7752,54.5644 L 50.7411,54.5107 L 50.6738,54.4046 L 50.6579,54.3796 L 50.6391,54.3568 L 50.559,54.26
 L 50.5184,54.211 L 45.3518,48.055 L 45.3279,48.0266 L 45.2556,47.9404 L 45.1338,47.7953 L 44.9614,47.5899
 L 44.7374,47.3229 L 44.4605,46.9931 L 44.1299,46.5991 L 43.7444,46.1398 L 43.3029,45.6137 L 42.8044,45.0197
 L 42.2477,44.3565 L 41.6318,43.6227 L 40.9557,42.817 L 40.2182,41.9383 L 39.4182,40.9852 L 38.5548,39.9564
 L 37.6268,38.8507 L 36.6331,37.6667 L 35.5727,36.4033 L 34.4444,35.059 L 34.4228,35.0387 L 34.3313,34.9527
 L 34.2849,34.9092 L 34.1833,34.8353 L 34.1593,34.8179 L 34.1078,34.7805 L 34.052,34.7498 L 34.0261,34.7356
 L 33.916,34.6751 L 33.7993,34.6288 L 33.7401,34.6054 L 33.7125,34.5945 L 33.6509,34.5787 L 33.6222,34.5713
 L 33.5006,34.5401 L 33.4712,34.5364 L 33.408,34.5284 L 33.2834,34.5127 L 33.0646,34.5127 L 32.94,34.5284
 L 32.8768,34.5364 L 32.8474,34.5401 L 32.7258,34.5713 L 32.6971,34.5787 L 32.6354,34.5945 L 32.6079,34.6054
 L 32.5487,34.6288 L 32.432,34.6751 L 32.3219,34.7356 L 32.296,34.7498 L 32.2402,34.7805 L 32.1887,34.8179
 L 32.1647,34.8353 L 32.0631,34.9092 L 30.4312,36.2534 L 28.8165,37.5169 L 27.3406,38.6085 L 25.8024,39.678
 L 24.2192,40.7067 L 22.6399,41.6598 L 21.2251,42.4473 L 19.6713,43.2388 L 18.0835,43.9726 L 16.6048,44.5866
 L 15.0796,45.1493 L 13.4533,45.6753 L 11.9094,46.1062 L 10.351,46.4742 L 8.65628,46.804 L 6.98599,47.0626
 L 5.39211,47.2489 L 3.59887,47.3941 L 1.76614,47.4802 L 0.0184097,47.5067 L -1.10142,47.4829 L -2.27225,47.405
 L -3.23148,47.2943 L -4.28085,47.1175 L -5.2317,46.9028 L -6.14686,46.6394 L -7.04599,46.3205 L -7.88183,45.9638
 L -8.71322,45.5444 L -9.49717,45.0833 L -10.2656,44.5621 L -11.0041,43.9899 L -11.7299,43.3523 L -12.4137,42.6757
 L -13.1283,41.8835 L -13.7366,41.1319 L -14.4303,40.1807 L -15.0292,39.273 L -15.6308,38.2691 L -16.2568,37.1224
 L -16.8593,35.9033 L -17.4355,34.6138 L -18.0246,33.1567 L -18.5822,31.6323 L -19.0515,30.2132 L -19.5341,28.5962
 L -19.9955,26.8795 L -20.4243,25.1017 L -20.8203,23.2644 L -21.1434,21.5772 L -21.4718,19.6324 L -21.7677,17.6258
 L -22.0298,15.5658 L -22.2578,13.454 L -22.4514,11.292 L -22.603,9.18371 L -22.7208,7.04169 L -22.8097,4.73806
 L -22.8633,2.39032 L -22.8812,-0 L -22.8633,-2.39032 L -22.8097,-4.73806 L -22.7208,-7.04169 L -22.603,-9.18371
 L -22.4514,-11.292 L -22.2578,-13.454 L -22.0298,-15.5658 L -21.7677,-17.6258 L -21.4718,-19.6324 L -21.1434,-21.5772
 L -20.8203,-23.2644 L -20.4243,-25.1017 L -19.9955,-26.8795 L -19.5341,-28.5962 L -19.0515,-30.2132 L -18.5822,-31.6323
 L -18.0246,-33.1567 L -17.4355,-34.6138 L -16.8593,-35.9033 L -16.2568,-37.1224 L -15.6308,-38.2691 L -15.0292,-39.273
 L -14.4303,-40.1807 L -13.7366,-41.1319 L -13.1283,-41.8835 L -12.4137,-42.6757 L -11.7299,-43.3523 L -11.0041,-43.9899
 L -10.2656,-44.5621 L -9.49717,-45.0833 L -8.71322,-45.5444 L -7.88183,-45.9638 L -7.04599,-46.3205 L -6.14686,-46.6394
 L -5.2317,-46.9028 L -4.28085,-47.1175 L -3.23148,-47.2943 L -2.27225,-47.405 L -1.10142,-47.4829 L 0.0184097,-47.5067
 L 1.76614,-47.4802 L 3.59887,-47.3941 L 5.39211,-47.2489 L 6.98599,-47.0626 L 8.65628,-46.804 L 10.351,-46.4742
 L 11.9094,-46.1062 L 13.4533,-45.6753 L 15.0796,-45.1493 L 16.6048,-44.5866 L 18.0835,-43.9726 L 19.6713,-43.2388
 L 21.2251,-42.4473 L 22.6399,-41.6598 L 24.2192,-40.7067 L 25.8024,-39.678 L 27.3406,-38.6085 L 28.8165,-37.5169
 L 30.4312,-36.2534 L 32.0631,-34.9092 L 32.1647,-34.8353 L 32.1887,-34.8179 L 32.2402,-34.7805 L 32.296,-34.7498
 L 32.3219,-34.7356 L 32.432,-34.6751 L 32.5487,-34.6288 L 32.6079,-34.6054 L 32.6354,-34.5945 L 32.6971,-34.5787
 L 32.7258,-34.5713 L 32.8474,-34.5401 L 32.8768,-34.5364 L 32.94,-34.5284 L 33.0646,-34.5127 L 33.2834,-34.5127
 L 33.408,-34.5284 L 33.4712,-34.5364 L 33.5006,-34.5401 L 33.6222,-34.5713 L 33.6509,-34.5787 L 33.7125,-34.5945
 L 33.7401,-34.6054 L 33.7993,-34.6288 L 33.916,-34.6751 L 34.0261,-34.7356 L 34.052,-34.7498 L 34.1078,-34.7805
 L 34.1593,-34.8179 L 34.1833,-34.8353 L 34.2849,-34.9092 L 34.3313,-34.9527 L 34.4228,-35.0387 L 34.4444,-35.059
 L 35.5727,-36.4033 L 36.6331,-37.6667 L 37.6268,-38.8507 L 38.5548,-39.9564 L 39.4182,-40.9852 L 40.2182,-41.9383
 L 40.9557,-42.817 L 41.6318,-43.6227 L 42.2477,-44.3565 L 42.8044,-45.0197 L 43.3029,-45.6137 L 43.7444,-46.1398
 L 44.1299,-46.5991 L 44.4605,-46.9931 L 44.7374,-47.3229 L 44.9614,-47.5899 L 45.1338,-47.7953 L 45.2556,-47.9404
 L 45.3279,-48.0266 L 45.3518,-48.055 L 50.5184,-54.211 L 50.559,-54.26 L 50.6391,-54.3568 L 50.6579,-54.3796
 L 50.6738,-54.4046 L 50.7411,-54.5107 L 50.7752,-54.5644 L 50.8287,-54.678 L 50.8558,-54.7356 L 50.8684,-54.7624
 L 50.8881,-54.823 L 50.8972,-54.8512 L 50.936,-54.9706 L 50.9416,-54.9997 L 50.9535,-55.0622 L 50.977,-55.1856
 L 50.9849,-55.3109 L 50.9889,-55.3744 L 50.9908,-55.404 L 50.9889,-55.4336 L 50.9849,-55.4971 L 50.977,-55.6224
 L 50.9535,-55.7458 L 50.9416,-55.8083 L 50.936,-55.8374 L 50.8972,-55.9568 L 50.8881,-55.985 L 50.8684,-56.0456
 L 50.8558,-56.0724 L 50.8287,-56.13 L 50.7752,-56.2436 L 50.7411,-56.2973 L 50.6738,-56.4034 L 50.6579,-56.4284
 L 50.6391,-56.4512 L 50.559,-56.548 L 50.5184,-56.597 L 50.4968,-56.6173 L 50.4053,-56.7033 L 50.3589,-56.7468
 L 48.0061,-58.6401 L 45.6649,-60.422 L 45.5633,-60.4958 L 45.5394,-60.5132 L 45.4879,-60.5506 L 43.1544,-62.2227
 L 40.8247,-63.7866 L 38.495,-65.2438 L 36.1615,-66.5958 L 36.1057,-66.6265 L 36.0798,-66.6407 L 35.9697,-66.7012
 L 33.6285,-67.9496 L 31.2758,-69.0959 L 28.9077,-70.1417 L 26.5203,-71.0884 L 26.4035,-71.1346 L 26.3443,-71.1581
 L 26.3168,-71.169 L 23.9063,-72.0183 L 21.4689,-72.7716 L 19.0008,-73.4305 L 18.9391,-73.4464 L 18.9104,-73.4537
 L 18.7888,-73.485 L 16.286,-74.0511 L 13.7447,-74.5259 L 11.1611,-74.9109 L 11.1317,-74.9146 L 11.0686,-74.9226
 L 10.944,-74.9383 L 8.31422,-75.2351 L 5.63444,-75.4451 L 2.90079,-75.57 L 0.109429,-75.6113 L -0.109429,-75.6113
 L -1.43801,-75.5934 L -2.75582,-75.5399 L -4.06235,-75.4509 L -5.35707,-75.3268 L -6.63949,-75.1678 L -6.76408,-75.1521
 L -6.82724,-75.1441 L -6.85663,-75.1404 L -8.12622,-74.9468 L -9.38247,-74.7188 L -10.6249,-74.4567 L -11.8529,-74.1607
 L -11.9745,-74.1295 L -12.0032,-74.1221 L -12.0649,-74.1063 L -13.278,-73.7767 L -14.4758,-73.4138 L -15.6577,-73.0178
 L -16.8231,-72.589 L -16.8507,-72.5781 L -16.9099,-72.5547 L -17.0266,-72.5084 L -18.1751,-72.047 L -19.3062,-71.5533
 L -20.4194,-71.0275 L -21.514,-70.47 L -22.5897,-69.8808 L -22.6997,-69.8203 L -22.7257,-69.806 L -22.7815,-69.7754
 L -23.8377,-69.1549 L -24.8738,-68.5035 L -25.8383,-67.8726 L -26.7825,-67.2114 L -26.834,-67.174 L -26.858,-67.1566
 L -26.9596,-67.0828 L -27.8838,-66.3918 L -28.7883,-65.6717 L -29.6732,-64.9228 L -30.539,-64.1457 L -30.5854,-64.1021
 L -30.6769,-64.0161 L -30.6985,-63.9958 L -31.5453,-63.191 L -32.3733,-62.359 L -33.1828,-61.5004 L -33.9742,-60.6155
 L -34.7476,-59.705 L -34.7882,-59.656 L -34.8682,-59.5592 L -34.8871,-59.5364 L -35.6428,-58.6008 L -36.381,-57.6405
 L -37.1021,-56.6562 L -37.8062,-55.6482 L -38.4937,-54.6171 L -39.1647,-53.5635 L -39.1806,-53.5385 L -39.2479,-53.4325
 L -39.282,-53.3787 L -39.9369,-52.3031 L -40.5759,-51.2058 L -41.1992,-50.0876 L -41.2122,-50.0618 L -41.2516,-49.984
 L -41.3177,-49.8533 L -41.4108,-49.669 L -41.5315,-49.4303 L -41.68,-49.1365 L -41.8568,-48.7868 L -42.0622,-48.3803
 L -42.1483,-48.21 L -42.2018,-48.0964 L -42.2289,-48.0388 L -42.2415,-48.012 L -42.3774,-47.7184 L -42.6192,-47.1963
 L -42.8884,-46.6152 L -43.1395,-46.0728 L -43.1813,-45.9743 L -43.4783,-45.2729 L -43.8013,-44.5102 L -43.9868,-44.0721
 L -44.1362,-43.6855 L -44.4791,-42.7978 L -44.7835,-42.0099 L -44.8409,-41.8466 L -45.1979,-40.831 L -45.53,-39.8861
 L -45.5497,-39.8255 L -45.5588,-39.7973 L -45.5976,-39.6779 L -45.6409,-39.5421 L -46.0063,-38.3954 L -46.2941,-37.4925
 L -46.4136,-37.0773 L -46.8132,-35.6888 L -46.9407,-35.2456 L -47.203,-34.2316 L -47.5379,-32.9371 L -47.5911,-32.7073
 L -47.9586,-31.1172 L -48.0858,-30.567 L -48.3124,-29.4631 L -48.5848,-28.1354 L -48.5903,-28.1063 L -48.6023,-28.0438
 L -48.6258,-27.9204 L -48.6961,-27.5313 L -49.0171,-25.7535 L -49.076,-25.4272 L -49.3136,-23.9162 L -49.4777,-22.8725
 L -49.5928,-22.0209 L -49.8312,-20.2562 L -49.8525,-20.0692 L -50.0815,-18.0626 L -50.1367,-17.5783 L -50.285,-16.0027
 L -50.3946,-14.8389 L -50.4658,-13.8909 L -50.6049,-12.0379 L -50.6128,-11.9126 L -50.6168,-11.8491 L -50.6187,-11.8195
 L -50.6363,-11.5104 L -50.7623,-9.29966 L -50.7819,-8.95697 L -50.858,-7.04169 L -50.8981,-6.03288 L -50.9283,-4.73806
 L -50.9677,-3.04722 L -50.9726,-2.39032 z
M -39,-0 L -38.9921,-0.125333 L -38.9686,-0.24869 L -38.9298,-0.368124 L -38.8763,-0.481753 L -38.809,-0.587785
 L -38.729,-0.684546 L -38.6374,-0.770513 L -38.5358,-0.844327 L -38.4258,-0.904826 L -38.309,-0.951056 L -38.1874,-0.982286
 L -38.0628,-0.998026 L -37.9372,-0.998026 L -37.8126,-0.982286 L -37.691,-0.951056 L -37.5742,-0.904826 L -37.4642,-0.844327
 L -37.3626,-0.770513 L -37.271,-0.684546 L -37.191,-0.587785 L -37.1237,-0.481753 L -37.0702,-0.368124 L -37.0314,-0.24869
 L -37.0079,-0.125333 L -37,-0 L -37.0079,0.125333 L -37.0314,0.24869 L -37.0702,0.368124 L -37.1237,0.481753
 L -37.191,0.587785 L -37.271,0.684546 L -37.3626,0.770513 L -37.4642,0.844327 L -37.5742,0.904826 L -37.691,0.951056
 L -37.8126,0.982286 L -37.9372,0.998026 L -38.0628,0.998026 L -38.1874,0.982286 L -38.309,0.951056 L -38.4258,0.904826
 L -38.5358,0.844327 L -38.6374,0.770513 L -38.729,0.684546 L -38.809,0.587785 L -38.8763,0.481753 L -38.9298,0.368124
 L -38.9686,0.24869 L -38.9921,0.125333 z
M 29,54 L 29.0079,53.8747 L 29.0314,53.7513 L 29.0702,53.6319 L 29.1237,53.5182 L 29.191,53.4122
 L 29.271,53.3155 L 29.3626,53.2295 L 29.4642,53.1557 L 29.5742,53.0952 L 29.691,53.0489 L 29.8126,53.0177
 L 29.9372,53.002 L 30.0628,53.002 L 30.1874,53.0177 L 30.309,53.0489 L 30.4258,53.0952 L 30.5358,53.1557
 L 30.6374,53.2295 L 30.729,53.3155 L 30.809,53.4122 L 30.8763,53.5182 L 30.9298,53.6319 L 30.9686,53.7513
 L 30.9921,53.8747 L 31,54 L 30.9921,54.1253 L 30.9686,54.2487 L 30.9298,54.3681 L 30.8763,54.4818
 L 30.809,54.5878 L 30.729,54.6845 L 30.6374,54.7705 L 30.5358,54.8443 L 30.4258,54.9048 L 30.309,54.9511
 L 30.1874,54.9823 L 30.0628,54.998 L 29.9372,54.998 L 29.8126,54.9823 L 29.691,54.9511 L 29.5742,54.9048
 L 29.4642,54.8443 L 29.3626,54.7705 L 29.271,54.6845 L 29.191,54.5878 L 29.1237,54.4818 L 29.0702,54.3681
 L 29.0314,54.2487 L 29.0079,54.1253 z
M 29,-54 L 29.0079,-54.1253 L 29.0314,-54.2487 L 29.0702,-54.3681 L 29.1237,-54.4818 L 29.191,-54.5878
 L 29.271,-54.6845 L 29.3626,-54.7705 L 29.4642,-54.8443 L 29.5742,-54.9048 L 29.691,-54.9511 L 29.8126,-54.9823
 L 29.9372,-54.998 L 30.0628,-54.998 L 30.1874,-54.9823 L 30.309,-54.9511 L 30.4258,-54.9048 L 30.5358,-54.8443
 L 30.6374,-54.7705 L 30.729,-54.6845 L 30.809,-54.5878 L 30.8763,-54.4818 L 30.9298,-54.3681 L 30.9686,-54.2487
 L 30.9921,-54.1253 L 31,-54 L 30.9921,-53.8747 L 30.9686,-53.7513 L 30.9298,-53.6319 L 30.8763,-53.5182
 L 30.809,-53.4122 L 30.729,-53.3155 L 30.6374,-53.2295 L 30.5358,-53.1557 L 30.4258,-53.0952 L 30.309,-53.0489
 L 30.1874,-53.0177 L 30.0628,-53.002 L 29.9372,-53.002 L 29.8126,-53.0177 L 29.691,-53.0489 L 29.5742,-53.0952
 L 29.4642,-53.1557 L 29.3626,-53.2295 L 29.271,-53.3155 L 29.191,-53.4122 L 29.1237,-53.5182 L 29.0702,-53.6319
 L 29.0314,-53.7513 L 29.0079,-53.8747 z
" stroke="black" fill="lightgray" stroke-width="0.5"/>
</svg>
