<?xml version="1.0" standalone="no"?>
<!DOCTYPE svg PUBLIC "-//W3C//DTD SVG 1.1//EN" "http://www.w3.org/Graphics/SVG/1.1/DTD/svg11.dtd">
<svg width="102mm" height="152mm" viewBox="-51 -76 102 152" xmlns="http://www.w3.org/2000/svg" version="1.1">
<title>OpenSCAD Model</title>
<path d="
M -50.9908,73.872 L -50.9889,73.9016 L -50.9849,73.9651 L -50.977,74.0904 L -50.9535,74.2138 L -50.9416,74.2763
 L -50.936,74.3054 L -50.8972,74.4248 L -50.8881,74.453 L -50.8684,74.5136 L -50.8558,74.5404 L -50.8287,74.598
 L -50.7752,74.7116 L -50.7411,74.7653 L -50.6738,74.8714 L -50.6579,74.8964 L -50.6391,74.9192 L -50.559,75.016
 L -50.5184,75.065 L -50.4968,75.0853 L -50.4053,75.1713 L -50.3589,75.2148 L -50.2573,75.2887 L -50.2333,75.3061
 L -50.1818,75.3435 L -50.126,75.3742 L -50.1001,75.3884 L -49.99,75.4489 L -49.8733,75.4952 L -49.8141,75.5186
 L -49.7865,75.5295 L -49.7249,75.5453 L -49.6962,75.5527 L -49.5746,75.5839 L -49.5452,75.5876 L -49.482,75.5956
 L -49.3574,75.6113 L 0.109429,75.6113 L 1.43801,75.5934 L 2.75582,75.5399 L 4.06235,75.4509 L 5.35707,75.3268
 L 6.63949,75.1678 L 6.76408,75.1521 L 6.82724,75.1441 L 6.85663,75.1404 L 8.12622,74.9468 L 9.38247,74.7188
 L 10.6249,74.4567 L 11.8529,74.1607 L 11.9745,74.1295 L 12.0032,74.1221 L 12.0649,74.1063 L 13.278,73.7767
 L 14.4758,73.4138 L 15.6577,73.0178 L 16.8231,72.589 L 16.8507,72.5781 L 16.9099,72.5547 L 17.0266,72.5084
 L 18.1751,72.047 L 19.3062,71.5533 L 20.4194,71.0275 L 21.514,70.47 L 22.5897,69.8808 L 22.6997,69.8203
 L 22.7257,69.806 L 22.7815,69.7754 L 23.8377,69.1549 L 24.8738,68.5035 L 25.8383,67.8726 L 26.7825,67.2114
 L 26.834,67.174 L 26.858,67.1566 L 26.9596,67.0828 L 27.8838,66.3918 L 28.7883,65.6717 L 29.6732,64.9228
 L 30.539,64.1457 L 30.5854,64.1021 L 30.6769,64.0161 L 30.6985,63.9958 L 31.5453,63.191 L 32.3733,62.359
 L 33.1828,61.5004 L 33.9742,60.6155 L 34.7476,59.705 L 34.7882,59.656 L 34.8682,59.5592 L 34.8871,59.5364
 L 35.6428,58.6008 L 36.381,57.6405 L 37.1021,56.6562 L 37.8062,55.6482 L 38.4937,54.6171 L 39.1647,53.5635
 L 39.1806,53.5385 L 39.2479,53.4325 L 39.282,53.3787 L 39.9369,52.3031 L 40.5759,51.2058 L 41.1992,50.0876
 L 41.2116,50.0618 L 41.249,49.984 L 41.3119,49.8533 L 41.4005,49.669 L 41.5153,49.4303 L 41.6565,49.1365
 L 41.8247,48.7868 L 42.0201,48.3803 L 42.102,48.21 L 42.1555,48.0964 L 42.1826,48.0388 L 42.1952,48.012
 L 42.3256,47.7184 L 42.5575,47.1963 L 42.8155,46.6152 L 43.0564,46.0728 L 43.0968,45.9743 L 43.3839,45.2729
 L 43.6962,44.5102 L 43.8756,44.0721 L 44.0212,43.6855 L 44.3555,42.7978 L 44.6522,42.0099 L 44.7086,41.8466
 L 45.0594,40.831 L 45.3857,39.8861 L 45.4054,39.8255 L 45.4145,39.7973 L 45.4533,39.6779 L 45.4962,39.5421
 L 45.8582,38.3954 L 46.1432,37.4925 L 46.2626,37.0773 L 46.6616,35.6888 L 46.789,35.2456 L 47.0531,34.2316
 L 47.3902,32.9371 L 47.4441,32.7073 L 47.8171,31.1172 L 47.9462,30.567 L 48.1779,29.4631 L 48.4565,28.1354
 L 48.4621,28.1063 L 48.474,28.0438 L 48.4975,27.9204 L 48.57,27.5313 L 48.901,25.7535 L 48.9617,25.4272
 L 49.2087,23.9162 L 49.3792,22.8725 L 49.4997,22.0209 L 49.7495,20.2562 L 49.772,20.0692 L 50.0138,18.0626
 L 50.0721,17.5783 L 50.2299,16.0027 L 50.3465,14.8389 L 50.4228,13.8909 L 50.5721,12.0379 L 50.58,11.9126
 L 50.584,11.8491 L 50.5859,11.8195 L 50.6049,11.5104 L 50.7411,9.29966 L 50.7622,8.95697 L 50.8452,7.04169
 L 50.8889,6.03288 L 50.922,4.73806 L 50.9652,3.04722 L 50.9707,2.39032 L 50.9908,-0 L 50.9707,-2.39032
 L 50.9652,-3.04722 L 50.922,-4.73806 L 50.8889,-6.03288 L 50.8452,-7.04169 L 50.7622,-8.95697 L 50.7411,-9.29966
 L 50.6049,-11.5104 L 50.5859,-11.8195 L 50.584,-11.8491 L 50.58,-11.9126 L 50.5721,-12.0379 L 50.4228,-13.8909
 L 50.3465,-14.8389 L 50.2299,-16.0027 L 50.0721,-17.5783 L 50.0138,-18.0626 L 49.772,-20.0692 L 49.7495,-20.2562
 L 49.4997,-22.0209 L 49.3792,-22.8725 L 49.2087,-23.9162 L 48.9617,-25.4272 L 48.901,-25.7535 L 48.57,-27.5313
 L 48.4975,-27.9204 L 48.474,-28.0438 L 48.4621,-28.1063 L 48.4565,-28.1354 L 48.1779,-29.4631 L 47.9462,-30.567
 L 47.8171,-31.1172 L 47.4441,-32.7073 L 47.3902,-32.9371 L 47.0531,-34.2316 L 46.789,-35.2456 L 46.6616,-35.6888
 L 46.2626,-37.0773 L 46.1432,-37.4925 L 45.8582,-38.3954 L 45.4962,-39.5421 L 45.4533,-39.6779 L 45.4145,-39.7973
 L 45.4054,-39.8255 L 45.3857,-39.8861 L 45.0594,-40.831 L 44.7086,-41.8466 L 44.6522,-42.0099 L 44.3555,-42.7978
 L 44.0212,-43.6855 L 43.8756,-44.0721 L 43.6962,-44.5102 L 43.3839,-45.2729 L 43.0968,-45.9743 L 43.0564,-46.0728
 L 42.8155,-46.6152 L 42.5575,-47.1963 L 42.3256,-47.7184 L 42.1952,-48.012 L 42.1826,-48.0388 L 42.1555,-48.0964
 L 42.102,-48.21 L 42.0201,-48.3803 L 41.8247,-48.7868 L 41.6565,-49.1365 L 41.5153,-49.4303 L 41.4005,-49.669
 L 41.3119,-49.8533 L 41.249,-49.984 L 41.2116,-50.0618 L 41.1992,-50.0876 L 40.5759,-51.2058 L 39.9369,-52.3031
 L 39.282,-53.3787 L 39.2479,-53.4325 L 39.1806,-53.5385 L 39.1647,-53.5635 L 38.4937,-54.6171 L 37.8062,-55.6482
 L 37.1021,-56.6562 L 36.381,-57.6405 L 35.6428,-58.6008 L 34.8871,-59.5364 L 34.8682,-59.5592 L 34.7882,-59.656
 L 34.7476,-59.705 L 33.9742,-60.6155 L 33.1828,-61.5004 L 32.3733,-62.359 L 31.5453,-63.191 L 30.6985,-63.9958
 L 30.6769,-64.0161 L 30.5854,-64.1021 L 30.539,-64.1457 L 29.6732,-64.9228 L 28.7883,-65.6717 L 27.8838,-66.3918
 L 26.9596,-67.0828 L 26.858,-67.1566 L 26.834,-67.174 L 26.7825,-67.2114 L 25.8383,-67.8726 L 24.8738,-68.5035
 L 23.8377,-69.1549 L 22.7815,-69.7754 L 22.7257,-69.806 L 22.6997,-69.8203 L 22.5897,-69.8808 L 21.514,-70.47
 L 20.4194,-71.0275 L 19.3062,-71.5533 L 18.1751,-72.047 L 17.0266,-72.5084 L 16.9099,-72.5547 L 16.8507,-72.5781
 L 16.8231,-72.589 L 15.6577,-73.0178 L 14.4758,-73.4138 L 13.278,-73.7767 L 12.0649,-74.1063 L 12.0032,-74.1221
 L 11.9745,-74.1295 L 11.8529,-74.1607 L 10.6249,-74.4567 L 9.38247,-74.7188 L 8.12622,-74.9468 L 6.85663,-75.1404
 L 6.82724,-75.1441 L 6.76408,-75.1521 L 6.63949,-75.1678 L 5.35707,-75.3268 L 4.06235,-75.4509 L 2.75582,-75.5399
 L 1.43801,-75.5934 L 0.109429,-75.6113 L -49.3574,-75.6113 L -49.482,-75.5956 L -49.5452,-75.5876 L -49.5746,-75.5839
 L -49.6962,-75.5527 L -49.7249,-75.5453 L -49.7865,-75.5295 L -49.8141,-75.5186 L -49.8733,-75.4952 L -49.99,-75.4489
 L -50.1001,-75.3884 L -50.126,-75.3742 L -50.1818,-75.3435 L -50.2333,-75.3061 L -50.2573,-75.2887 L -50.3589,-75.2148
 L -50.4053,-75.1713 L -50.4968,-75.0853 L -50.5184,-75.065 L -50.559,-75.016 L -50.6391,-74.9192 L -50.6579,-74.8964
 L -50.6738,-74.8714 L -50.7411,-74.7653 L -50.7752,-74.7116 L -50.8287,-74.598 L -50.8558,-74.5404 L -50.8684,-74.5136
 L -50.8881,-74.453 L -50.8972,-74.4248 L -50.936,-74.3054 L -50.9416,-74.2763 L -50.9535,-74.2138 L -50.977,-74.0904
 L -50.9849,-73.9651 L -50.9889,-73.9016 L -50.9908,-73.872 z
M -37,61 L -36.9921,60.8747 L -36.9686,60.7513 L -36.9298,60.6319 L -36.8763,60.5182 L -36.809,60.4122
 L -36.729,60.3155 L -36.6374,60.2295 L -36.5358,60.1557 L -36.4258,60.0952 L -36.309,60.0489 L -36.1874,60.0177
 L -36.0628,60.002 L -35.9372,60.002 L -35.8126,60.0177 L -35.691,60.0489 L -35.5742,60.0952 L -35.4642,60.1557
 L -35.3626,60.2295 L -35.271,60.3155 L -35.191,60.4122 L -35.1237,60.5182 L -35.0702,60.6319 L -35.0314,60.7513
 L -35.0079,60.8747 L -35,61 L -35.0079,61.1253 L -35.0314,61.2487 L -35.0702,61.3681 L -35.1237,61.4818
 L -35.191,61.5878 L -35.271,61.6845 L -35.3626,61.7705 L -35.4642,61.8443 L -35.5742,61.9048 L -35.691,61.9511
 L -35.8126,61.9823 L -35.9372,61.998 L -36.0628,61.998 L -36.1874,61.9823 L -36.309,61.9511 L -36.4258,61.9048
 L -36.5358,61.8443 L -36.6374,61.7705 L -36.729,61.6845 L -36.809,61.5878 L -36.8763,61.4818 L -36.9298,61.3681
 L -36.9686,61.2487 L -36.9921,61.1253 z
M -37,-61 L -36.9921,-61.1253 L -36.9686,-61.2487 L -36.9298,-61.3681 L -36.8763,-61.4818 L -36.809,-61.5878
 L -36.729,-61.6845 L -36.6374,-61.7705 L -36.5358,-61.8443 L -36.4258,-61.9048 L -36.309,-61.9511 L -36.1874,-61.9823
 L -36.0628,-61.998 L -35.9372,-61.998 L -35.8126,-61.9823 L -35.691,-61.9511 L -35.5742,-61.9048 L -35.4642,-61.8443
 L -35.3626,-61.7705 L -35.271,-61.6845 L -35.191,-61.5878 L -35.1237,-61.4818 L -35.0702,-61.3681 L -35.0314,-61.2487
 L -35.0079,-61.1253 L -35,-61 L -35.0079,-60.8747 L -35.0314,-60.7513 L -35.0702,-60.6319 L -35.1237,-60.5182
 L -35.191,-60.4122 L -35.271,-60.3155 L -35.3626,-60.2295 L -35.4642,-60.1557 L -35.5742,-60.0952 L -35.691,-60.0489
 L -35.8126,-60.0177 L -35.9372,-60.002 L -36.0628,-60.002 L -36.1874,-60.0177 L -36.309,-60.0489 L -36.4258,-60.0952
 L -36.5358,-60.1557 L -36.6374,-60.2295 L -36.729,-60.3155 L -36.809,-60.4122 L -36.8763,-60.5182 L -36.9298,-60.6319
 L -36.9686,-60.7513 L -36.9921,-60.8747 z
M -22.8812,47.5087 L -22.8812,-47.5087 L -0.109429,-47.5087 L 1.10142,-47.4829 L 2.27225,-47.405 L 3.23148,-47.2943
 L 4.28085,-47.1175 L 5.2317,-46.9028 L 6.14686,-46.6394 L 7.04599,-46.3205 L 7.88183,-45.9638 L 8.71322,-45.5444
 L 9.49717,-45.0833 L 10.2656,-44.5621 L 11.0041,-43.9899 L 11.7299,-43.3523 L 12.4137,-42.6757 L 13.1283,-41.8835
 L 13.7366,-41.1319 L 14.4303,-40.1807 L 15.0292,-39.273 L 15.6308,-38.2691 L 16.2568,-37.1224 L 16.8593,-35.9033
 L 17.4355,-34.6138 L 18.0246,-33.1567 L 18.5822,-31.6323 L 19.0515,-30.2132 L 19.5341,-28.5962 L 19.9955,-26.8795
 L 20.4243,-25.1017 L 20.8203,-23.2644 L 21.1434,-21.5772 L 21.4718,-19.6324 L 21.7677,-17.6258 L 22.0298,-15.5658
 L 22.2578,-13.454 L 22.4514,-11.292 L 22.603,-9.18371 L 22.7208,-7.04169 L 22.8097,-4.73806 L 22.8633,-2.39032
 L 22.8812,-0 L 22.8633,2.39032 L 22.8097,4.73806 L 22.7208,7.04169 L 22.603,9.18371 L 22.4514,11.292
 L 22.2578,13.454 L 22.0298,15.5658 L 21.7677,17.6258 L 21.4718,19.6324 L 21.1434,21.5772 L 20.8203,23.2644
 L 20.4243,25.1017 L 19.9955,26.8795 L 19.5341,28.5962 L 19.0515,30.2132 L 18.5822,31.6323 L 18.0246,33.1567
 L 17.4355,34.6138 L 16.8593,35.9033 L 16.2568,37.1224 L 15.6308,38.2691 L 15.0292,39.273 L 14.4303,40.1807
 L 13.7366,41.1319 L 13.1283,41.8835 L 12.4137,42.6757 L 11.7299,43.3523 L 11.0041,43.9899 L 10.2656,44.5621
 L 9.49717,45.0833 L 8.71322,45.5444 L 7.88183,45.9638 L 7.04599,46.3205 L 6.14686,46.6394 L 5.2317,46.9028
 L 4.28085,47.1175 L 3.23148,47.2943 L 2.27225,47.405 L 1.10142,47.4829 L -0.109429,47.5087 z
M 37,-0 L 37.0079,-0.125333 L 37.0314,-0.24869 L 37.0702,-0.368124 L 37.1237,-0.481753 L 37.191,-0.587785
 L 37.271,-0.684546 L 37.3626,-0.770513 L 37.4642,-0.844327 L 37.5742,-0.904826 L 37.691,-0.951056 L 37.8126,-0.982286
 L 37.9372,-0.998026 L 38.0628,-0.998026 L 38.1874,-0.982286 L 38.309,-0.951056 L 38.4258,-0.904826 L 38.5358,-0.844327
 L 38.6374,-0.770513 L 38.729,-0.684546 L 38.809,-0.587785 L 38.8763,-0.481753 L 38.9298,-0.368124 L 38.9686,-0.24869
 L 38.9921,-0.125333 L 39,-0 L 38.9921,0.125333 L 38.9686,0.24869 L 38.9298,0.368124 L 38.8763,0.481753
 L 38.809,0.587785 L 38.729,0.684546 L 38.6374,0.770513 L 38.5358,0.844327 L 38.4258,0.904826 L 38.309,0.951056
 L 38.1874,0.982286 L 38.0628,0.998026 L 37.9372,0.998026 L 37.8126,0.982286 L 37.691,0.951056 L 37.5742,0.904826
 L 37.4642,0.844327 L 37.3626,0.770513 L 37.271,0.684546 L 37.191,0.587785 L 37.1237,0.481753 L 37.0702,0.368124
 L 37.0314,0.24869 L 37.0079,0.125333 z
" stroke="black" fill="lightgray" stroke-width="0.5"/>
</svg>
