<?xml version="1.0" standalone="no"?>
<!DOCTYPE svg PUBLIC "-//W3C//DTD SVG 1.1//EN" "http://www.w3.org/Graphics/SVG/1.1/DTD/svg11.dtd">
<svg width="102mm" height="152mm" viewBox="-51 -76 102 152" xmlns="http://www.w3.org/2000/svg" version="1.1">
<title>OpenSCAD Model</title>
<path d="
M -50.9908,73.872 L -50.9889,73.9016 L -50.9849,73.9651 L -50.977,74.0904 L -50.9535,74.2138 L -50.9416,74.2763
 L -50.936,74.3054 L -50.8972,74.4248 L -50.8881,74.453 L -50.8684,74.5136 L -50.8558,74.5404 L -50.8287,74.598
 L -50.7752,74.7116 L -50.7411,74.7653 L -50.6738,74.8714 L -50.6579,74.8964 L -50.6391,74.9192 L -50.559,75.016
 L -50.5184,75.065 L -50.4968,75.0853 L -50.4053,75.1713 L -50.3589,75.2148 L -50.2573,75.2887 L -50.2333,75.3061
 L -50.1818,75.3435 L -50.126,75.3742 L -50.1001,75.3884 L -49.99,75.4489 L -49.8733,75.4952 L -49.8141,75.5186
 L -49.7865,75.5295 L -49.7249,75.5453 L -49.6962,75.5527 L -49.5746,75.5839 L -49.5452,75.5876 L -49.482,75.5956
 L -49.3574,75.6113 L 49.3574,75.6113 L 49.482,75.5956 L 49.5452,75.5876 L 49.5746,75.5839 L 49.6962,75.5527
 L 49.7249,75.5453 L 49.7865,75.5295 L 49.8141,75.5186 L 49.8733,75.4952 L 49.99,75.4489 L 50.1001,75.3884
 L 50.126,75.3742 L 50.1818,75.3435 L 50.2333,75.3061 L 50.2573,75.2887 L 50.3589,75.2148 L 50.4053,75.1713
 L 50.4968,75.0853 L 50.5184,75.065 L 50.559,75.016 L 50.6391,74.9192 L 50.6579,74.8964 L 50.6738,74.8714
 L 50.7411,74.7653 L 50.7752,74.7116 L 50.8287,74.598 L 50.8558,74.5404 L 50.8684,74.5136 L 50.8881,74.453
 L 50.8972,74.4248 L 50.936,74.3054 L 50.9416,74.2763 L 50.9535,74.2138 L 50.977,74.0904 L 50.9849,73.9651
 L 50.9889,73.9016 L 50.9908,73.872 L 50.9908,49.248 L 50.9889,49.2184 L 50.9849,49.1549 L 50.977,49.0296
 L 50.9535,48.9062 L 50.9416,48.8437 L 50.936,48.8146 L 50.8972,48.6952 L 50.8881,48.667 L 50.8684,48.6064
 L 50.8558,48.5796 L 50.8287,48.522 L 50.7752,48.4084 L 50.7411,48.3547 L 50.6738,48.2486 L 50.6579,48.2236
 L 50.6391,48.2008 L 50.559,48.104 L 50.5184,48.055 L 50.4968,48.0347 L 50.4053,47.9487 L 50.3589,47.9052
 L 50.2573,47.8313 L 50.2333,47.8139 L 50.1818,47.7765 L 50.126,47.7458 L 50.1001,47.7316 L 49.99,47.6711
 L 49.8733,47.6248 L 49.8141,47.6014 L 49.7865,47.5905 L 49.7249,47.5747 L 49.6962,47.5673 L 49.5746,47.5361
 L 49.5452,47.5324 L 49.482,47.5244 L 49.3574,47.5087 L -22.8812,47.5087 L -22.8812,10.9733 L 24.7334,10.9733
 L 24.858,10.9576 L 24.9212,10.9496 L 24.9506,10.9459 L 25.0722,10.9147 L 25.1009,10.9073 L 25.1625,10.8915
 L 25.1901,10.8806 L 25.2493,10.8571 L 25.366,10.8109 L 25.4761,10.7504 L 25.502,10.7362 L 25.5578,10.7055
 L 25.6093,10.6681 L 25.6333,10.6507 L 25.7349,10.5768 L 25.7813,10.5333 L 25.8728,10.4473 L 25.8944,10.427
 L 25.935,10.378 L 26.0151,10.2812 L 26.0339,10.2584 L 26.0498,10.2334 L 26.1171,10.1273 L 26.1512,10.0736
 L 26.2047,9.95996 L 26.2318,9.90236 L 26.2444,9.87556 L 26.2641,9.81501 L 26.2732,9.78685 L 26.312,9.66741
 L 26.3176,9.63832 L 26.3295,9.57578 L 26.353,9.45243 L 26.3609,9.32709 L 26.3649,9.26356 L 26.3668,9.234
 L 26.3668,-15.39 L 26.3649,-15.4196 L 26.3609,-15.4831 L 26.353,-15.6084 L 26.3295,-15.7318 L 26.3176,-15.7943
 L 26.312,-15.8234 L 26.2732,-15.9428 L 26.2641,-15.971 L 26.2444,-16.0316 L 26.2318,-16.0584 L 26.2047,-16.116
 L 26.1512,-16.2296 L 26.1171,-16.2833 L 26.0498,-16.3894 L 26.0339,-16.4144 L 26.0151,-16.4372 L 25.935,-16.534
 L 25.8944,-16.583 L 25.8728,-16.6033 L 25.7813,-16.6893 L 25.7349,-16.7328 L 25.6333,-16.8067 L 25.6093,-16.8241
 L 25.5578,-16.8615 L 25.502,-16.8922 L 25.4761,-16.9064 L 25.366,-16.9669 L 25.2493,-17.0131 L 25.1901,-17.0366
 L 25.1625,-17.0475 L 25.1009,-17.0633 L 25.0722,-17.0707 L 24.9506,-17.1019 L 24.9212,-17.1056 L 24.858,-17.1136
 L 24.7334,-17.1293 L -22.8812,-17.1293 L -22.8812,-47.5087 L 49.3574,-47.5087 L 49.482,-47.5244 L 49.5452,-47.5324
 L 49.5746,-47.5361 L 49.6962,-47.5673 L 49.7249,-47.5747 L 49.7865,-47.5905 L 49.8141,-47.6014 L 49.8733,-47.6248
 L 49.99,-47.6711 L 50.1001,-47.7316 L 50.126,-47.7458 L 50.1818,-47.7765 L 50.2333,-47.8139 L 50.2573,-47.8313
 L 50.3589,-47.9052 L 50.4053,-47.9487 L 50.4968,-48.0347 L 50.5184,-48.055 L 50.559,-48.104 L 50.6391,-48.2008
 L 50.6579,-48.2236 L 50.6738,-48.2486 L 50.7411,-48.3547 L 50.7752,-48.4084 L 50.8287,-48.522 L 50.8558,-48.5796
 L 50.8684,-48.6064 L 50.8881,-48.667 L 50.8972,-48.6952 L 50.936,-48.8146 L 50.9416,-48.8437 L 50.9535,-48.9062
 L 50.977,-49.0296 L 50.9849,-49.1549 L 50.9889,-49.2184 L 50.9908,-49.248 L 50.9908,-73.872 L 50.9889,-73.9016
 L 50.9849,-73.9651 L 50.977,-74.0904 L 50.9535,-74.2138 L 50.9416,-74.2763 L 50.936,-74.3054 L 50.8972,-74.4248
 L 50.8881,-74.453 L 50.8684,-74.5136 L 50.8558,-74.5404 L 50.8287,-74.598 L 50.7752,-74.7116 L 50.7411,-74.7653
 L 50.6738,-74.8714 L 50.6579,-74.8964 L 50.6391,-74.9192 L 50.559,-75.016 L 50.5184,-75.065 L 50.4968,-75.0853
 L 50.4053,-75.1713 L 50.3589,-75.2148 L 50.2573,-75.2887 L 50.2333,-75.3061 L 50.1818,-75.3435 L 50.126,-75.3742
 L 50.1001,-75.3884 L 49.99,-75.4489 L 49.8733,-75.4952 L 49.8141,-75.5186 L 49.7865,-75.5295 L 49.7249,-75.5453
 L 49.6962,-75.5527 L 49.5746,-75.5839 L 49.5452,-75.5876 L 49.482,-75.5956 L 49.3574,-75.6113 L -49.3574,-75.6113
 L -49.482,-75.5956 L -49.5452,-75.5876 L -49.5746,-75.5839 L -49.6962,-75.5527 L -49.7249,-75.5453 L -49.7865,-75.5295
 L -49.8141,-75.5186 L -49.8733,-75.4952 L -49.99,-75.4489 L -50.1001,-75.3884 L -50.126,-75.3742 L -50.1818,-75.3435
 L -50.2333,-75.3061 L -50.2573,-75.2887 L -50.3589,-75.2148 L -50.4053,-75.1713 L -50.4968,-75.0853 L -50.5184,-75.065
 L -50.559,-75.016 L -50.6391,-74.9192 L -50.6579,-74.8964 L -50.6738,-74.8714 L -50.7411,-74.7653 L -50.7752,-74.7116
 L -50.8287,-74.598 L -50.8558,-74.5404 L -50.8684,-74.5136 L -50.8881,-74.453 L -50.8972,-74.4248 L -50.936,-74.3054
 L -50.9416,-74.2763 L -50.9535,-74.2138 L -50.977,-74.0904 L -50.9849,-73.9651 L -50.9889,-73.9016 L -50.9908,-73.872
 z
M -37,61 L -36.9921,60.8747 L -36.9686,60.7513 L -36.9298,60.6319 L -36.8763,60.5182 L -36.809,60.4122
 L -36.729,60.3155 L -36.6374,60.2295 L -36.5358,60.1557 L -36.4258,60.0952 L -36.309,60.0489 L -36.1874,60.0177
 L -36.0628,60.002 L -35.9372,60.002 L -35.8126,60.0177 L -35.691,60.0489 L -35.5742,60.0952 L -35.4642,60.1557
 L -35.3626,60.2295 L -35.271,60.3155 L -35.191,60.4122 L -35.1237,60.5182 L -35.0702,60.6319 L -35.0314,60.7513
 L -35.0079,60.8747 L -35,61 L -35.0079,61.1253 L -35.0314,61.2487 L -35.0702,61.3681 L -35.1237,61.4818
 L -35.191,61.5878 L -35.271,61.6845 L -35.3626,61.7705 L -35.4642,61.8443 L -35.5742,61.9048 L -35.691,61.9511
 L -35.8126,61.9823 L -35.9372,61.998 L -36.0628,61.998 L -36.1874,61.9823 L -36.309,61.9511 L -36.4258,61.9048
 L -36.5358,61.8443 L -36.6374,61.7705 L -36.729,61.6845 L -36.809,61.5878 L -36.8763,61.4818 L -36.9298,61.3681
 L -36.9686,61.2487 L -36.9921,61.1253 z
M -37,-61 L -36.9921,-61.1253 L -36.9686,-61.2487 L -36.9298,-61.3681 L -36.8763,-61.4818 L -36.809,-61.5878
 L -36.729,-61.6845 L -36.6374,-61.7705 L -36.5358,-61.8443 L -36.4258,-61.9048 L -36.309,-61.9511 L -36.1874,-61.9823
 L -36.0628,-61.998 L -35.9372,-61.998 L -35.8126,-61.9823 L -35.691,-61.9511 L -35.5742,-61.9048 L -35.4642,-61.8443
 L -35.3626,-61.7705 L -35.271,-61.6845 L -35.191,-61.5878 L -35.1237,-61.4818 L -35.0702,-61.3681 L -35.0314,-61.2487
 L -35.0079,-61.1253 L -35,-61 L -35.0079,-60.8747 L -35.0314,-60.7513 L -35.0702,-60.6319 L -35.1237,-60.5182
 L -35.191,-60.4122 L -35.271,-60.3155 L -35.3626,-60.2295 L -35.4642,-60.1557 L -35.5742,-60.0952 L -35.691,-60.0489
 L -35.8126,-60.0177 L -35.9372,-60.002 L -36.0628,-60.002 L -36.1874,-60.0177 L -36.309,-60.0489 L -36.4258,-60.0952
 L -36.5358,-60.1557 L -36.6374,-60.2295 L -36.729,-60.3155 L -36.809,-60.4122 L -36.8763,-60.5182 L -36.9298,-60.6319
 L -36.9686,-60.7513 L -36.9921,-60.8747 z
M 11,-4 L 11.0079,-4.12533 L 11.0314,-4.24869 L 11.0702,-4.36812 L 11.1237,-4.48175 L 11.191,-4.58778
 L 11.271,-4.68455 L 11.3626,-4.77051 L 11.4642,-4.84433 L 11.5742,-4.90483 L 11.691,-4.95106 L 11.8126,-4.98229
 L 11.9372,-4.99803 L 12.0628,-4.99803 L 12.1874,-4.98229 L 12.309,-4.95106 L 12.4258,-4.90483 L 12.5358,-4.84433
 L 12.6374,-4.77051 L 12.729,-4.68455 L 12.809,-4.58778 L 12.8763,-4.48175 L 12.9298,-4.36812 L 12.9686,-4.24869
 L 12.9921,-4.12533 L 13,-4 L 12.9921,-3.87467 L 12.9686,-3.75131 L 12.9298,-3.63188 L 12.8763,-3.51825
 L 12.809,-3.41221 L 12.729,-3.31545 L 12.6374,-3.22949 L 12.5358,-3.15567 L 12.4258,-3.09517 L 12.309,-3.04894
 L 12.1874,-3.01771 L 12.0628,-3.00197 L 11.9372,-3.00197 L 11.8126,-3.01771 L 11.691,-3.04894 L 11.5742,-3.09517
 L 11.4642,-3.15567 L 11.3626,-3.22949 L 11.271,-3.31545 L 11.191,-3.41221 L 11.1237,-3.51825 L 11.0702,-3.63188
 L 11.0314,-3.75131 L 11.0079,-3.87467 z
M 35,61 L 35.0079,60.8747 L 35.0314,60.7513 L 35.0702,60.6319 L 35.1237,60.5182 L 35.191,60.4122
 L 35.271,60.3155 L 35.3626,60.2295 L 35.4642,60.1557 L 35.5742,60.0952 L 35.691,60.0489 L 35.8126,60.0177
 L 35.9372,60.002 L 36.0628,60.002 L 36.1874,60.0177 L 36.309,60.0489 L 36.4258,60.0952 L 36.5358,60.1557
 L 36.6374,60.2295 L 36.729,60.3155 L 36.809,60.4122 L 36.8763,60.5182 L 36.9298,60.6319 L 36.9686,60.7513
 L 36.9921,60.8747 L 37,61 L 36.9921,61.1253 L 36.9686,61.2487 L 36.9298,61.3681 L 36.8763,61.4818
 L 36.809,61.5878 L 36.729,61.6845 L 36.6374,61.7705 L 36.5358,61.8443 L 36.4258,61.9048 L 36.309,61.9511
 L 36.1874,61.9823 L 36.0628,61.998 L 35.9372,61.998 L 35.8126,61.9823 L 35.691,61.9511 L 35.5742,61.9048
 L 35.4642,61.8443 L 35.3626,61.7705 L 35.271,61.6845 L 35.191,61.5878 L 35.1237,61.4818 L 35.0702,61.3681
 L 35.0314,61.2487 L 35.0079,61.1253 z
M 35,-61 L 35.0079,-61.1253 L 35.0314,-61.2487 L 35.0702,-61.3681 L 35.1237,-61.4818 L 35.191,-61.5878
 L 35.271,-61.6845 L 35.3626,-61.7705 L 35.4642,-61.8443 L 35.5742,-61.9048 L 35.691,-61.9511 L 35.8126,-61.9823
 L 35.9372,-61.998 L 36.0628,-61.998 L 36.1874,-61.9823 L 36.309,-61.9511 L 36.4258,-61.9048 L 36.5358,-61.8443
 L 36.6374,-61.7705 L 36.729,-61.6845 L 36.809,-61.5878 L 36.8763,-61.4818 L 36.9298,-61.3681 L 36.9686,-61.2487
 L 36.9921,-61.1253 L 37,-61 L 36.9921,-60.8747 L 36.9686,-60.7513 L 36.9298,-60.6319 L 36.8763,-60.5182
 L 36.809,-60.4122 L 36.729,-60.3155 L 36.6374,-60.2295 L 36.5358,-60.1557 L 36.4258,-60.0952 L 36.309,-60.0489
 L 36.1874,-60.0177 L 36.0628,-60.002 L 35.9372,-60.002 L 35.8126,-60.0177 L 35.691,-60.0489 L 35.5742,-60.0952
 L 35.4642,-60.1557 L 35.3626,-60.2295 L 35.271,-60.3155 L 35.191,-60.4122 L 35.1237,-60.5182 L 35.0702,-60.6319
 L 35.0314,-60.7513 L 35.0079,-60.8747 z
" stroke="black" fill="lightgray" stroke-width="0.5"/>
</svg>
