<?xml version="1.0" standalone="no"?>
<!DOCTYPE svg PUBLIC "-//W3C//DTD SVG 1.1//EN" "http://www.w3.org/Graphics/SVG/1.1/DTD/svg11.dtd">
<svg width="102mm" height="152mm" viewBox="-51 -76 102 152" xmlns="http://www.w3.org/2000/svg" version="1.1">
<title>OpenSCAD Model</title>
<path d="
M -50.9908,-0 L -50.9781,1.50769 L -50.9707,2.39032 L -50.9673,2.80466 L -50.9652,3.04722 L -50.9379,4.11372
 L -50.922,4.73806 L -50.8889,6.03288 L -50.8452,7.04169 L -50.7929,8.24975 L -50.7622,8.95698 L -50.7489,9.17312
 L -50.7411,9.29966 L -50.6049,11.5104 L -50.5929,11.7054 L -50.5859,11.8195 L -50.584,11.8491 L -50.58,11.9126
 L -50.5721,12.0379 L -50.4229,13.8909 L -50.3465,14.8389 L -50.3034,15.2686 L -50.2299,16.0027 L -50.1717,16.5845
 L -50.0721,17.5783 L -50.0138,18.0626 L -49.772,20.0692 L -49.7495,20.2562 L -49.592,21.3693 L -49.4997,22.0209
 L -49.4237,22.5581 L -49.3792,22.8725 L -49.2087,23.9162 L -49.0529,24.8693 L -48.9617,25.4272 L -48.901,25.7535
 L -48.6922,26.8749 L -48.57,27.5313 L -48.5243,27.7767 L -48.4975,27.9204 L -48.4827,27.9982 L -48.474,28.0438
 L -48.4621,28.1063 L -48.4565,28.1354 L -48.3536,28.6256 L -48.1779,29.4631 L -48.0923,29.8707 L -47.9462,30.567
 L -47.8171,31.1172 L -47.6794,31.7044 L -47.4441,32.7073 L -47.4242,32.7921 L -47.3902,32.9371 L -47.0531,34.2316
 L -46.789,35.2456 L -46.6616,35.6888 L -46.4099,36.5646 L -46.2626,37.0773 L -46.1873,37.3392 L -46.1432,37.4925
 L -45.9635,38.062 L -45.8582,38.3954 L -45.4962,39.5421 L -45.4692,39.6278 L -45.4533,39.6779 L -45.4289,39.7532
 L -45.4145,39.7973 L -45.4054,39.8255 L -45.3857,39.8861 L -45.2652,40.235 L -45.0594,40.831 L -44.9298,41.206
 L -44.7086,41.8466 L -44.6878,41.9069 L -44.6522,42.0099 L -44.5426,42.3008 L -44.3555,42.7978 L -44.2321,43.1256
 L -44.0212,43.6855 L -43.9675,43.8282 L -43.8756,44.0721 L -43.6962,44.5102 L -43.3839,45.2729 L -43.2028,45.7154
 L -43.0968,45.9743 L -43.0713,46.0365 L -43.0564,46.0728 L -42.9045,46.4149 L -42.8155,46.6152 L -42.5575,47.1963
 L -42.4112,47.5256 L -42.3256,47.7184 L -42.2433,47.9036 L -42.1952,48.012 L -42.1826,48.0388 L -42.1555,48.0964
 L -42.102,48.21 L -42.0718,48.2729 L -42.0201,48.3803 L -41.8247,48.7868 L -41.6565,49.1365 L -41.6044,49.245
 L -41.5153,49.4303 L -41.4005,49.669 L -41.3119,49.8533 L -41.2887,49.9015 L -41.249,49.984 L -41.2116,50.0618
 L -41.1992,50.0876 L -40.806,50.7929 L -40.5759,51.2058 L -39.9369,52.3031 L -39.282,53.3787 L -39.2479,53.4325
 L -39.223,53.4717 L -39.1806,53.5385 L -39.1647,53.5635 L -38.4937,54.6171 L -37.8062,55.6482 L -37.1021,56.6562
 L -36.381,57.6405 L -35.6428,58.6008 L -34.8871,59.5364 L -34.8682,59.5592 L -34.8177,59.6202 L -34.7882,59.656
 L -34.7476,59.705 L -33.9742,60.6155 L -33.1828,61.5004 L -32.6722,62.042 L -32.3733,62.359 L -31.851,62.8838
 L -31.5453,63.191 L -30.6985,63.9958 L -30.6769,64.0161 L -30.5854,64.1021 L -30.539,64.1457 L -29.6732,64.9228
 L -29.3465,65.1993 L -28.7883,65.6717 L -27.8838,66.3918 L -27.3009,66.8276 L -26.9596,67.0828 L -26.8955,67.1293
 L -26.858,67.1566 L -26.834,67.174 L -26.7825,67.2114 L -25.8383,67.8726 L -24.8738,68.5035 L -23.8377,69.1549
 L -22.7815,69.7754 L -22.7257,69.806 L -22.6997,69.8203 L -22.5897,69.8808 L -21.514,70.47 L -20.4194,71.0275
 L -19.3062,71.5533 L -18.1751,72.047 L -17.0266,72.5084 L -16.9099,72.5547 L -16.8507,72.5781 L -16.8231,72.589
 L -16.3928,72.7474 L -15.6577,73.0178 L -14.4758,73.4138 L -13.278,73.7767 L -12.0649,74.1063 L -12.0032,74.1221
 L -11.9745,74.1295 L -11.8529,74.1607 L -10.6249,74.4567 L -9.38247,74.7188 L -8.12622,74.9468 L -6.85663,75.1404
 L -6.82725,75.1441 L -6.76408,75.1521 L -6.63949,75.1678 L -5.35707,75.3268 L -4.06235,75.4509 L -2.75582,75.5399
 L -1.43801,75.5934 L -0.109429,75.6113 L 0.109429,75.6113 L 2.85855,75.5376 L 5.5633,75.3189 L 5.68789,75.3032
 L 5.75105,75.2952 L 5.78044,75.2915 L 8.43747,74.9318 L 11.0435,74.4348 L 13.5951,73.8044 L 13.7167,73.7732
 L 13.7454,73.7659 L 13.8071,73.75 L 14.728,73.4694 L 16.301,72.9901 L 17.8355,72.4316 L 18.7338,72.1046
 L 18.7614,72.0937 L 18.8206,72.0702 L 18.9373,72.024 L 21.3058,71.0166 L 23.6066,69.8912 L 23.7166,69.8307
 L 23.7426,69.8164 L 23.7984,69.7858 L 26.0281,68.5462 L 28.1834,67.1964 L 30.261,65.7401 L 30.3125,65.7027
 L 30.3365,65.6853 L 30.374,65.658 L 30.4381,65.6115 L 31.1753,65.0359 L 32.4346,64.0526 L 33.6407,63.0071
 L 34.3468,62.395 L 34.3932,62.3514 L 34.4847,62.2654 L 34.5063,62.2452 L 36.3308,60.4926 L 38.0642,58.649
 L 39.7032,56.7182 L 39.7437,56.6692 L 39.7733,56.6334 L 39.8238,56.5724 L 39.8427,56.5496 L 41.3839,54.5354
 L 42.8241,52.4417 L 42.84,52.4167 L 42.8824,52.3498 L 42.9073,52.3107 L 42.9414,52.2569 L 43.4223,51.476
 L 43.7232,50.9873 L 49.3574,50.9873 L 49.436,50.9774 L 49.482,50.9716 L 49.5452,50.9636 L 49.5746,50.9599
 L 49.6962,50.9287 L 49.7249,50.9213 L 49.7866,50.9055 L 49.8141,50.8946 L 49.8733,50.8712 L 49.9164,50.8541
 L 49.99,50.8249 L 50.1001,50.7644 L 50.126,50.7502 L 50.1818,50.7195 L 50.2333,50.6821 L 50.2573,50.6647
 L 50.3589,50.5908 L 50.4053,50.5473 L 50.4968,50.4613 L 50.5184,50.441 L 50.559,50.392 L 50.6391,50.2952
 L 50.6579,50.2724 L 50.6738,50.2474 L 50.7163,50.1805 L 50.7411,50.1413 L 50.7752,50.0876 L 50.8089,50.0159
 L 50.8287,49.974 L 50.8558,49.9164 L 50.8684,49.8896 L 50.8881,49.829 L 50.8972,49.8008 L 50.9116,49.7567
 L 50.936,49.6814 L 50.9416,49.6523 L 50.9535,49.5898 L 50.9622,49.5442 L 50.977,49.4664 L 50.9849,49.3411
 L 50.9889,49.2776 L 50.9908,49.248 L 50.9908,12.312 L 50.9889,12.2824 L 50.9849,12.2189 L 50.977,12.0936
 L 50.9535,11.9702 L 50.9416,11.9077 L 50.936,11.8786 L 50.9116,11.8033 L 50.8972,11.7592 L 50.8881,11.731
 L 50.8684,11.6704 L 50.8558,11.6436 L 50.8287,11.586 L 50.7752,11.4724 L 50.7411,11.4187 L 50.7163,11.3795
 L 50.6738,11.3126 L 50.6579,11.2876 L 50.6391,11.2648 L 50.559,11.168 L 50.5184,11.119 L 50.4968,11.0987
 L 50.4053,11.0127 L 50.3589,10.9692 L 50.2573,10.8953 L 50.2333,10.8779 L 50.1818,10.8405 L 50.126,10.8098
 L 50.1001,10.7956 L 49.99,10.7351 L 49.9164,10.7059 L 49.8733,10.6889 L 49.8141,10.6654 L 49.7866,10.6545
 L 49.7249,10.6387 L 49.6962,10.6313 L 49.5746,10.6001 L 49.5452,10.5964 L 49.482,10.5884 L 49.436,10.5826
 L 49.3574,10.5727 L 24.5146,10.5727 L 24.39,10.5884 L 24.3268,10.5964 L 24.2974,10.6001 L 24.1758,10.6313
 L 24.1471,10.6387 L 24.0855,10.6545 L 24.0579,10.6654 L 23.9987,10.6889 L 23.882,10.7351 L 23.7719,10.7956
 L 23.746,10.8098 L 23.6902,10.8405 L 23.6387,10.8779 L 23.6147,10.8953 L 23.5131,10.9692 L 23.4667,11.0127
 L 23.3752,11.0987 L 23.3536,11.119 L 23.313,11.168 L 23.2329,11.2648 L 23.2141,11.2876 L 23.1982,11.3126
 L 23.1557,11.3795 L 23.1309,11.4187 L 23.0968,11.4724 L 23.0433,11.586 L 23.0162,11.6436 L 23.0036,11.6704
 L 22.9839,11.731 L 22.9748,11.7592 L 22.936,11.8786 L 22.9304,11.9077 L 22.9185,11.9702 L 22.9098,12.0158
 L 22.895,12.0936 L 22.8871,12.2189 L 22.8831,12.2824 L 22.8812,12.312 L 22.8812,24.624 L 22.8534,25.3195
 L 22.8064,26.4983 L 22.722,27.1983 L 22.5786,28.3884 L 22.4472,29.0371 L 22.2249,30.1342 L 21.9086,31.237
 L 21.7222,31.8867 L 21.4843,32.5217 L 21.0798,33.6012 L 20.8119,34.1747 L 20.3596,35.1429 L 19.796,36.1387
 L 19.4646,36.7243 L 19.1016,37.2633 L 18.4862,38.177 L 18.0874,38.6805 L 17.412,39.5332 L 16.9578,40.0238
 L 16.1852,40.8582 L 15.7248,41.2845 L 14.947,42.0046 L 14.0649,42.7033 L 13.5458,43.1146 L 12.9997,43.4823
 L 12.0728,44.1065 L 11.5173,44.4209 L 10.5781,44.9526 L 9.9654,45.2388 L 8.92354,45.7255 L 8.31153,45.9547
 L 7.27546,46.3429 L 6.18465,46.6558 L 5.5413,46.8404 L 4.86031,46.9783 L 3.70248,47.2129 L 3.04022,47.2927
 L 1.92102,47.4276 L 1.19771,47.4565 L -0.0333057,47.5056 L -0.703869,47.4913 L -1.10142,47.4829 L -2.27225,47.405
 L -2.87347,47.3356 L -3.23148,47.2943 L -3.89239,47.1829 L -4.28085,47.1175 L -4.87826,46.9826 L -5.2317,46.9028
 L -5.8066,46.7373 L -6.14686,46.6394 L -6.71206,46.439 L -7.04598,46.3205 L -7.57062,46.0966 L -7.88183,45.9638
 L -8.40428,45.7002 L -8.71322,45.5444 L -9.20541,45.2549 L -9.49717,45.0833 L -9.97991,44.7559 L -10.2656,44.5621
 L -10.7295,44.2027 L -11.0041,43.9899 L -11.4603,43.5892 L -11.7299,43.3523 L -12.1593,42.9274 L -12.4137,42.6757
 L -12.6782,42.3824 L -13.1283,41.8835 L -13.5095,41.4124 L -13.7366,41.1319 L -14.4303,40.1807 L -14.653,39.8431
 L -15.0292,39.273 L -15.4076,38.6415 L -15.6308,38.2691 L -16.2568,37.1224 L -16.4803,36.6701 L -16.8593,35.9033
 L -17.2217,35.0922 L -17.4355,34.6139 L -17.8071,33.6947 L -18.0246,33.1567 L -18.2305,32.5938 L -18.5822,31.6323
 L -18.7567,31.1045 L -19.0515,30.2132 L -19.3556,29.1941 L -19.5341,28.5962 L -19.8251,27.5134 L -19.9955,26.8795
 L -20.1538,26.223 L -20.4243,25.1017 L -20.5705,24.4232 L -20.8203,23.2644 L -21.0232,22.2048 L -21.1434,21.5772
 L -21.3505,20.3507 L -21.4718,19.6324 L -21.6584,18.3667 L -21.7677,17.6258 L -21.933,16.3264 L -22.0298,15.5658
 L -22.114,14.786 L -22.2578,13.454 L -22.3293,12.6557 L -22.4514,11.292 L -22.5076,10.5113 L -22.603,9.18371
 L -22.6772,7.83519 L -22.7208,7.04169 L -22.8097,4.73806 L -22.8633,2.39032 L -22.8812,-0 L -22.8633,-2.39032
 L -22.8097,-4.73806 L -22.7208,-7.04169 L -22.6772,-7.83519 L -22.603,-9.18371 L -22.5076,-10.5113 L -22.4514,-11.292
 L -22.3293,-12.6557 L -22.2578,-13.454 L -22.114,-14.786 L -22.0298,-15.5658 L -21.933,-16.3264 L -21.7677,-17.6258
 L -21.6584,-18.3667 L -21.4718,-19.6324 L -21.3505,-20.3507 L -21.1434,-21.5772 L -21.0232,-22.2048 L -20.8203,-23.2644
 L -20.5705,-24.4232 L -20.4243,-25.1017 L -20.1538,-26.223 L -19.9955,-26.8795 L -19.8251,-27.5134 L -19.5341,-28.5962
 L -19.3556,-29.1941 L -19.0515,-30.2132 L -18.7567,-31.1045 L -18.5822,-31.6323 L -18.2305,-32.5938 L -18.0246,-33.1567
 L -17.8071,-33.6947 L -17.4355,-34.6139 L -17.2217,-35.0922 L -16.8593,-35.9033 L -16.4803,-36.6701 L -16.2568,-37.1224
 L -15.6308,-38.2691 L -15.4076,-38.6415 L -15.0292,-39.273 L -14.653,-39.8431 L -14.4303,-40.1807 L -13.7366,-41.1319
 L -13.5095,-41.4124 L -13.1283,-41.8835 L -12.6782,-42.3824 L -12.4137,-42.6757 L -12.1593,-42.9274 L -11.7299,-43.3523
 L -11.4603,-43.5892 L -11.0041,-43.9899 L -10.7295,-44.2027 L -10.2656,-44.5621 L -9.97991,-44.7559 L -9.49717,-45.0833
 L -9.20541,-45.2549 L -8.71322,-45.5444 L -8.40428,-45.7002 L -7.88183,-45.9638 L -7.57062,-46.0966 L -7.04598,-46.3205
 L -6.71206,-46.439 L -6.14686,-46.6394 L -5.8066,-46.7373 L -5.2317,-46.9028 L -4.87826,-46.9826 L -4.28085,-47.1175
 L -3.89239,-47.1829 L -3.23148,-47.2943 L -2.87347,-47.3356 L -2.27225,-47.405 L -1.10142,-47.4829 L -0.685915,-47.4917
 L 0.0184094,-47.5067 L 1.11797,-47.49 L 1.76614,-47.4802 L 3.59887,-47.3941 L 5.39211,-47.2489 L 5.98426,-47.1797
 L 6.986,-47.0626 L 8.03834,-46.8997 L 8.65628,-46.804 L 10.351,-46.4742 L 10.9289,-46.3377 L 11.9094,-46.1062
 L 12.881,-45.8351 L 13.4533,-45.6753 L 14.4791,-45.3435 L 15.0796,-45.1493 L 15.6447,-44.9408 L 16.6048,-44.5866
 L 17.5349,-44.2004 L 18.0835,-43.9726 L 19.6713,-43.2388 L 20.2456,-42.9462 L 21.2251,-42.4473 L 22.1139,-41.9526
 L 22.6399,-41.6598 L 24.2192,-40.7067 L 25.8024,-39.678 L 26.3715,-39.2822 L 27.3406,-38.6085 L 28.2688,-37.922
 L 28.8165,-37.5169 L 30.4312,-36.2534 L 31.4605,-35.4055 L 32.0631,-34.9092 L 32.1647,-34.8353 L 32.1887,-34.8179
 L 32.2402,-34.7805 L 32.296,-34.7498 L 32.3219,-34.7356 L 32.432,-34.6751 L 32.5056,-34.6459 L 32.5487,-34.6288
 L 32.6079,-34.6054 L 32.6355,-34.5945 L 32.6971,-34.5787 L 32.7258,-34.5713 L 32.8474,-34.5401 L 32.8768,-34.5364
 L 32.94,-34.5284 L 32.986,-34.5226 L 33.0646,-34.5127 L 33.2834,-34.5127 L 33.362,-34.5226 L 33.408,-34.5284
 L 33.4712,-34.5364 L 33.5006,-34.5401 L 33.6222,-34.5713 L 33.6509,-34.5787 L 33.7125,-34.5945 L 33.7401,-34.6054
 L 33.7993,-34.6288 L 33.8424,-34.6459 L 33.916,-34.6751 L 34.0261,-34.7356 L 34.052,-34.7498 L 34.1078,-34.7805
 L 34.1593,-34.8179 L 34.1833,-34.8353 L 34.2849,-34.9092 L 34.3313,-34.9527 L 34.4228,-35.0387 L 34.4444,-35.059
 L 35.5727,-36.4033 L 36.6331,-37.6667 L 37.6268,-38.8507 L 38.5548,-39.9564 L 39.4182,-40.9852 L 40.2182,-41.9383
 L 40.9557,-42.817 L 41.6318,-43.6227 L 42.2477,-44.3565 L 42.8044,-45.0197 L 43.3029,-45.6137 L 43.7444,-46.1398
 L 43.9876,-46.4295 L 44.1299,-46.5991 L 44.4605,-46.9931 L 44.6351,-47.2011 L 44.7374,-47.3229 L 44.9614,-47.5899
 L 45.0702,-47.7194 L 45.1338,-47.7953 L 45.2107,-47.8868 L 45.2556,-47.9404 L 45.3279,-48.0266 L 45.3518,-48.055
 L 50.5184,-54.211 L 50.559,-54.26 L 50.6391,-54.3568 L 50.6579,-54.3796 L 50.6738,-54.4046 L 50.7163,-54.4715
 L 50.7411,-54.5107 L 50.7752,-54.5644 L 50.8089,-54.6361 L 50.8287,-54.678 L 50.8558,-54.7356 L 50.8684,-54.7624
 L 50.8881,-54.823 L 50.8972,-54.8512 L 50.9116,-54.8953 L 50.936,-54.9706 L 50.9416,-54.9997 L 50.9535,-55.0622
 L 50.9622,-55.1078 L 50.977,-55.1856 L 50.9849,-55.3109 L 50.9889,-55.3744 L 50.9908,-55.404 L 50.9889,-55.4336
 L 50.9849,-55.4971 L 50.977,-55.6224 L 50.9622,-55.7002 L 50.9535,-55.7458 L 50.9416,-55.8083 L 50.936,-55.8374
 L 50.9116,-55.9127 L 50.8972,-55.9568 L 50.8881,-55.985 L 50.8684,-56.0456 L 50.8558,-56.0724 L 50.8287,-56.13
 L 50.8089,-56.1719 L 50.7752,-56.2436 L 50.7411,-56.2973 L 50.7163,-56.3365 L 50.6738,-56.4034 L 50.6579,-56.4284
 L 50.6391,-56.4512 L 50.559,-56.548 L 50.5184,-56.597 L 50.4968,-56.6173 L 50.4053,-56.7033 L 50.3589,-56.7468
 L 48.0061,-58.6401 L 45.6649,-60.422 L 45.5633,-60.4958 L 45.5394,-60.5132 L 45.4879,-60.5506 L 44.6262,-61.168
 L 43.1544,-62.2227 L 40.8247,-63.7866 L 39.3553,-64.7057 L 38.4951,-65.2438 L 36.1615,-66.5958 L 36.1058,-66.6265
 L 36.0798,-66.6407 L 35.9697,-66.7012 L 35.1053,-67.1622 L 33.6285,-67.9496 L 32.7598,-68.3729 L 31.2758,-69.0959
 L 28.9077,-70.1417 L 26.5203,-71.0884 L 26.4035,-71.1346 L 26.3443,-71.1581 L 26.3168,-71.169 L 23.9063,-72.0183
 L 22.369,-72.4934 L 21.4689,-72.7716 L 19.0008,-73.4305 L 18.9391,-73.4464 L 18.9104,-73.4537 L 18.7888,-73.485
 L 17.8646,-73.694 L 16.286,-74.0511 L 14.6831,-74.3505 L 13.7447,-74.5259 L 11.1611,-74.9109 L 11.1317,-74.9146
 L 11.0686,-74.9226 L 10.944,-74.9383 L 8.31422,-75.2351 L 5.63444,-75.4451 L 2.90079,-75.5701 L 0.109429,-75.6113
 L -0.109429,-75.6113 L -1.43801,-75.5934 L -2.75582,-75.5399 L -4.06235,-75.4509 L -5.35707,-75.3268 L -6.63949,-75.1678
 L -6.76408,-75.1521 L -6.82725,-75.1441 L -6.85663,-75.1404 L -8.12622,-74.9468 L -9.38247,-74.7188 L -10.6249,-74.4567
 L -11.8529,-74.1607 L -11.9745,-74.1295 L -12.0032,-74.1221 L -12.0649,-74.1063 L -13.278,-73.7767 L -14.4758,-73.4138
 L -15.6577,-73.0178 L -16.3928,-72.7474 L -16.8231,-72.589 L -16.8507,-72.5781 L -16.9099,-72.5547 L -17.0266,-72.5084
 L -18.1751,-72.047 L -19.3062,-71.5533 L -20.4194,-71.0275 L -21.514,-70.47 L -22.5897,-69.8808 L -22.6997,-69.8203
 L -22.7257,-69.806 L -22.7815,-69.7754 L -23.8377,-69.1549 L -24.8738,-68.5035 L -25.8383,-67.8726 L -26.7825,-67.2114
 L -26.834,-67.174 L -26.858,-67.1566 L -26.8955,-67.1293 L -26.9596,-67.0828 L -27.3009,-66.8276 L -27.8838,-66.3918
 L -28.7883,-65.6717 L -29.3465,-65.1993 L -29.6732,-64.9228 L -30.539,-64.1457 L -30.5854,-64.1021 L -30.6769,-64.0161
 L -30.6985,-63.9958 L -31.5453,-63.191 L -31.851,-62.8838 L -32.3733,-62.359 L -32.6722,-62.042 L -33.1828,-61.5004
 L -33.9742,-60.6155 L -34.7476,-59.705 L -34.7882,-59.656 L -34.8177,-59.6202 L -34.8682,-59.5592 L -34.8871,-59.5364
 L -35.6428,-58.6008 L -36.381,-57.6405 L -37.1021,-56.6562 L -37.8062,-55.6482 L -38.4937,-54.6171 L -39.1647,-53.5635
 L -39.1806,-53.5385 L -39.223,-53.4717 L -39.2479,-53.4325 L -39.282,-53.3787 L -39.9369,-52.3031 L -40.5759,-51.2058
 L -40.806,-50.7929 L -41.1992,-50.0876 L -41.2122,-50.0618 L -41.2516,-49.984 L -41.2933,-49.9015 L -41.3177,-49.8533
 L -41.4108,-49.669 L -41.5315,-49.4303 L -41.6251,-49.245 L -41.68,-49.1365 L -41.8568,-48.7868 L -42.0622,-48.3803
 L -42.1165,-48.2729 L -42.1483,-48.21 L -42.2018,-48.0964 L -42.2289,-48.0388 L -42.2415,-48.012 L -42.2917,-47.9036
 L -42.3774,-47.7184 L -42.6192,-47.1963 L -42.7186,-46.9817 L -42.8884,-46.6152 L -42.9811,-46.4149 L -43.1395,-46.0728
 L -43.1549,-46.0365 L -43.1813,-45.9743 L -43.2909,-45.7154 L -43.4783,-45.2729 L -43.5975,-44.9913 L -43.8013,-44.5102
 L -43.9868,-44.0721 L -44.081,-43.8282 L -44.1362,-43.6855 L -44.3525,-43.1256 L -44.4791,-42.7978 L -44.6711,-42.3008
 L -44.7835,-42.0099 L -44.8197,-41.9069 L -44.8409,-41.8466 L -45.0661,-41.206 L -45.1979,-40.831 L -45.4074,-40.235
 L -45.53,-39.8861 L -45.5497,-39.8255 L -45.5588,-39.7973 L -45.5732,-39.7532 L -45.5976,-39.6779 L -45.6136,-39.6278
 L -45.6409,-39.5421 L -46.0063,-38.3954 L -46.1126,-38.062 L -46.2941,-37.4925 L -46.3382,-37.3392 L -46.4136,-37.0773
 L -46.5611,-36.5646 L -46.8132,-35.6888 L -46.8603,-35.5252 L -46.9407,-35.2456 L -47.0376,-34.8712 L -47.203,-34.2316
 L -47.3267,-33.7536 L -47.5379,-32.9371 L -47.5714,-32.7921 L -47.5911,-32.7073 L -47.8229,-31.7044 L -47.9587,-31.1172
 L -48.0389,-30.7702 L -48.0859,-30.567 L -48.2287,-29.8707 L -48.3124,-29.4631 L -48.5848,-28.1354 L -48.5903,-28.1063
 L -48.6023,-28.0438 L -48.611,-27.9982 L -48.6258,-27.9204 L -48.6517,-27.7767 L -48.6961,-27.5313 L -48.8146,-26.8749
 L -49.0171,-25.7535 L -49.076,-25.4272 L -49.1637,-24.8693 L -49.3136,-23.9162 L -49.4777,-22.8725 L -49.5928,-22.0209
 L -49.8312,-20.2562 L -49.8525,-20.0692 L -50.0815,-18.0626 L -50.1368,-17.5783 L -50.2303,-16.5845 L -50.285,-16.0027
 L -50.3541,-15.2686 L -50.3946,-14.8389 L -50.4658,-13.8909 L -50.6049,-12.0379 L -50.6128,-11.9126 L -50.6168,-11.8491
 L -50.6187,-11.8195 L -50.6252,-11.7054 L -50.6363,-11.5104 L -50.7623,-9.29966 L -50.7695,-9.17312 L -50.7819,-8.95698
 L -50.81,-8.24975 L -50.858,-7.04169 L -50.8981,-6.03288 L -50.9283,-4.73806 L -50.9677,-3.04722 L -50.9695,-2.80466
 L -50.9726,-2.39032 z
M -39,-0 L -38.9921,-0.125333 L -38.9686,-0.24869 L -38.9298,-0.368124 L -38.8763,-0.481753 L -38.809,-0.587785
 L -38.729,-0.684546 L -38.6374,-0.770513 L -38.5358,-0.844327 L -38.4258,-0.904826 L -38.309,-0.951056 L -38.1874,-0.982286
 L -38.0628,-0.998026 L -37.9372,-0.998026 L -37.8126,-0.982286 L -37.691,-0.951056 L -37.5742,-0.904826 L -37.4642,-0.844327
 L -37.3626,-0.770513 L -37.271,-0.684546 L -37.191,-0.587785 L -37.1237,-0.481753 L -37.0702,-0.368124 L -37.0314,-0.24869
 L -37.0079,-0.125333 L -37,-0 L -37.0079,0.125333 L -37.0314,0.24869 L -37.0702,0.368124 L -37.1237,0.481753
 L -37.191,0.587785 L -37.271,0.684546 L -37.3626,0.770513 L -37.4642,0.844327 L -37.5742,0.904826 L -37.691,0.951056
 L -37.8126,0.982286 L -37.9372,0.998026 L -38.0628,0.998026 L -38.1874,0.982286 L -38.309,0.951056 L -38.4258,0.904826
 L -38.5358,0.844327 L -38.6374,0.770513 L -38.729,0.684546 L -38.809,0.587785 L -38.8763,0.481753 L -38.9298,0.368124
 L -38.9686,0.24869 L -38.9921,0.125333 z
M 29,-54 L 29.0079,-54.1253 L 29.0314,-54.2487 L 29.0702,-54.3681 L 29.1237,-54.4818 L 29.191,-54.5878
 L 29.271,-54.6845 L 29.3626,-54.7705 L 29.4642,-54.8443 L 29.5742,-54.9048 L 29.691,-54.9511 L 29.8126,-54.9823
 L 29.9372,-54.998 L 30.0628,-54.998 L 30.1874,-54.9823 L 30.309,-54.9511 L 30.4258,-54.9048 L 30.5358,-54.8443
 L 30.6374,-54.7705 L 30.729,-54.6845 L 30.809,-54.5878 L 30.8763,-54.4818 L 30.9298,-54.3681 L 30.9686,-54.2487
 L 30.9921,-54.1253 L 31,-54 L 30.9921,-53.8747 L 30.9686,-53.7513 L 30.9298,-53.6319 L 30.8763,-53.5182
 L 30.809,-53.4122 L 30.729,-53.3155 L 30.6374,-53.2295 L 30.5358,-53.1557 L 30.4258,-53.0952 L 30.309,-53.0489
 L 30.1874,-53.0177 L 30.0628,-53.002 L 29.9372,-53.002 L 29.8126,-53.0177 L 29.691,-53.0489 L 29.5742,-53.0952
 L 29.4642,-53.1557 L 29.3626,-53.2295 L 29.271,-53.3155 L 29.191,-53.4122 L 29.1237,-53.5182 L 29.0702,-53.6319
 L 29.0314,-53.7513 L 29.0079,-53.8747 z
M 36,30 L 36.0079,29.8747 L 36.0314,29.7513 L 36.0702,29.6319 L 36.1237,29.5182 L 36.191,29.4122
 L 36.271,29.3155 L 36.3626,29.2295 L 36.4642,29.1557 L 36.5742,29.0952 L 36.691,29.0489 L 36.8126,29.0177
 L 36.9372,29.002 L 37.0628,29.002 L 37.1874,29.0177 L 37.309,29.0489 L 37.4258,29.0952 L 37.5358,29.1557
 L 37.6374,29.2295 L 37.729,29.3155 L 37.809,29.4122 L 37.8763,29.5182 L 37.9298,29.6319 L 37.9686,29.7513
 L 37.9921,29.8747 L 38,30 L 37.9921,30.1253 L 37.9686,30.2487 L 37.9298,30.3681 L 37.8763,30.4818
 L 37.809,30.5878 L 37.729,30.6845 L 37.6374,30.7705 L 37.5358,30.8443 L 37.4258,30.9048 L 37.309,30.9511
 L 37.1874,30.9823 L 37.0628,30.998 L 36.9372,30.998 L 36.8126,30.9823 L 36.691,30.9511 L 36.5742,30.9048
 L 36.4642,30.8443 L 36.3626,30.7705 L 36.271,30.6845 L 36.191,30.5878 L 36.1237,30.4818 L 36.0702,30.3681
 L 36.0314,30.2487 L 36.0079,30.1253 z
" stroke="black" fill="lightgray" stroke-width="0.5"/>
</svg>
