<?xml version="1.0" standalone="no"?>
<!DOCTYPE svg PUBLIC "-//W3C//DTD SVG 1.1//EN" "http://www.w3.org/Graphics/SVG/1.1/DTD/svg11.dtd">
<svg width="30mm" height="152mm" viewBox="-15 -76 30 152" xmlns="http://www.w3.org/2000/svg" version="1.1">
<title>OpenSCAD Model</title>
<path d="
M -14.0548,73.872 L -14.0529,73.9016 L -14.0489,73.9651 L -14.041,74.0904 L -14.0175,74.2138 L -14.0056,74.2763
 L -14,74.3054 L -13.9612,74.4248 L -13.9521,74.453 L -13.9324,74.5136 L -13.9198,74.5404 L -13.8927,74.598
 L -13.8392,74.7116 L -13.8051,74.7653 L -13.7378,74.8714 L -13.7219,74.8964 L -13.7031,74.9192 L -13.623,75.016
 L -13.5824,75.065 L -13.5608,75.0853 L -13.4693,75.1713 L -13.4229,75.2148 L -13.3213,75.2887 L -13.2973,75.3061
 L -13.2458,75.3435 L -13.19,75.3742 L -13.1641,75.3884 L -13.054,75.4489 L -12.9373,75.4952 L -12.8781,75.5186
 L -12.8505,75.5295 L -12.7889,75.5453 L -12.7602,75.5527 L -12.6386,75.5839 L -12.6092,75.5876 L -12.546,75.5956
 L -12.4214,75.6113 L 12.4214,75.6113 L 12.546,75.5956 L 12.6092,75.5876 L 12.6386,75.5839 L 12.7602,75.5527
 L 12.7889,75.5453 L 12.8505,75.5295 L 12.8781,75.5186 L 12.9373,75.4952 L 13.054,75.4489 L 13.1641,75.3884
 L 13.19,75.3742 L 13.2458,75.3435 L 13.2973,75.3061 L 13.3213,75.2887 L 13.4229,75.2148 L 13.4693,75.1713
 L 13.5608,75.0853 L 13.5824,75.065 L 13.623,75.016 L 13.7031,74.9192 L 13.7219,74.8964 L 13.7378,74.8714
 L 13.8051,74.7653 L 13.8392,74.7116 L 13.8927,74.598 L 13.9198,74.5404 L 13.9324,74.5136 L 13.9521,74.453
 L 13.9612,74.4248 L 14,74.3054 L 14.0056,74.2763 L 14.0175,74.2138 L 14.041,74.0904 L 14.0489,73.9651
 L 14.0529,73.9016 L 14.0548,73.872 L 14.0548,-73.872 L 14.0529,-73.9016 L 14.0489,-73.9651 L 14.041,-74.0904
 L 14.0175,-74.2138 L 14.0056,-74.2763 L 14,-74.3054 L 13.9612,-74.4248 L 13.9521,-74.453 L 13.9324,-74.5136
 L 13.9198,-74.5404 L 13.8927,-74.598 L 13.8392,-74.7116 L 13.8051,-74.7653 L 13.7378,-74.8714 L 13.7219,-74.8964
 L 13.7031,-74.9192 L 13.623,-75.016 L 13.5824,-75.065 L 13.5608,-75.0853 L 13.4693,-75.1713 L 13.4229,-75.2148
 L 13.3213,-75.2887 L 13.2973,-75.3061 L 13.2458,-75.3435 L 13.19,-75.3742 L 13.1641,-75.3884 L 13.054,-75.4489
 L 12.9373,-75.4952 L 12.8781,-75.5186 L 12.8505,-75.5295 L 12.7889,-75.5453 L 12.7602,-75.5527 L 12.6386,-75.5839
 L 12.6092,-75.5876 L 12.546,-75.5956 L 12.4214,-75.6113 L -12.4214,-75.6113 L -12.546,-75.5956 L -12.6092,-75.5876
 L -12.6386,-75.5839 L -12.7602,-75.5527 L -12.7889,-75.5453 L -12.8505,-75.5295 L -12.8781,-75.5186 L -12.9373,-75.4952
 L -13.054,-75.4489 L -13.1641,-75.3884 L -13.19,-75.3742 L -13.2458,-75.3435 L -13.2973,-75.3061 L -13.3213,-75.2887
 L -13.4229,-75.2148 L -13.4693,-75.1713 L -13.5608,-75.0853 L -13.5824,-75.065 L -13.623,-75.016 L -13.7031,-74.9192
 L -13.7219,-74.8964 L -13.7378,-74.8714 L -13.8051,-74.7653 L -13.8392,-74.7116 L -13.8927,-74.598 L -13.9198,-74.5404
 L -13.9324,-74.5136 L -13.9521,-74.453 L -13.9612,-74.4248 L -14,-74.3054 L -14.0056,-74.2763 L -14.0175,-74.2138
 L -14.041,-74.0904 L -14.0489,-73.9651 L -14.0529,-73.9016 L -14.0548,-73.872 z
M -1,61 L -0.992114,60.8747 L -0.968583,60.7513 L -0.929776,60.6319 L -0.876307,60.5182 L -0.809016,60.4122
 L -0.728969,60.3155 L -0.637424,60.2295 L -0.535827,60.1557 L -0.425778,60.0952 L -0.309016,60.0489 L -0.187381,60.0177
 L -0.0627899,60.002 L 0.0627899,60.002 L 0.187381,60.0177 L 0.309016,60.0489 L 0.425778,60.0952 L 0.535827,60.1557
 L 0.637424,60.2295 L 0.728969,60.3155 L 0.809016,60.4122 L 0.876307,60.5182 L 0.929776,60.6319 L 0.968583,60.7513
 L 0.992114,60.8747 L 1,61 L 0.992114,61.1253 L 0.968583,61.2487 L 0.929776,61.3681 L 0.876307,61.4818
 L 0.809016,61.5878 L 0.728969,61.6845 L 0.637424,61.7705 L 0.535827,61.8443 L 0.425778,61.9048 L 0.309016,61.9511
 L 0.187381,61.9823 L 0.0627899,61.998 L -0.0627899,61.998 L -0.187381,61.9823 L -0.309016,61.9511 L -0.425778,61.9048
 L -0.535827,61.8443 L -0.637424,61.7705 L -0.728969,61.6845 L -0.809016,61.5878 L -0.876307,61.4818 L -0.929776,61.3681
 L -0.968583,61.2487 L -0.992114,61.1253 z
M -1,-61 L -0.992114,-61.1253 L -0.968583,-61.2487 L -0.929776,-61.3681 L -0.876307,-61.4818 L -0.809016,-61.5878
 L -0.728969,-61.6845 L -0.637424,-61.7705 L -0.535827,-61.8443 L -0.425778,-61.9048 L -0.309016,-61.9511 L -0.187381,-61.9823
 L -0.0627899,-61.998 L 0.0627899,-61.998 L 0.187381,-61.9823 L 0.309016,-61.9511 L 0.425778,-61.9048 L 0.535827,-61.8443
 L 0.637424,-61.7705 L 0.728969,-61.6845 L 0.809016,-61.5878 L 0.876307,-61.4818 L 0.929776,-61.3681 L 0.968583,-61.2487
 L 0.992114,-61.1253 L 1,-61 L 0.992114,-60.8747 L 0.968583,-60.7513 L 0.929776,-60.6319 L 0.876307,-60.5182
 L 0.809016,-60.4122 L 0.728969,-60.3155 L 0.637424,-60.2295 L 0.535827,-60.1557 L 0.425778,-60.0952 L 0.309016,-60.0489
 L 0.187381,-60.0177 L 0.0627899,-60.002 L -0.0627899,-60.002 L -0.187381,-60.0177 L -0.309016,-60.0489 L -0.425778,-60.0952
 L -0.535827,-60.1557 L -0.637424,-60.2295 L -0.728969,-60.3155 L -0.809016,-60.4122 L -0.876307,-60.5182 L -0.929776,-60.6319
 L -0.968583,-60.7513 L -0.992114,-60.8747 z
" stroke="black" fill="lightgray" stroke-width="0.5"/>
</svg>
