<?xml version="1.0" standalone="no"?>
<!DOCTYPE svg PUBLIC "-//W3C//DTD SVG 1.1//EN" "http://www.w3.org/Graphics/SVG/1.1/DTD/svg11.dtd">
<svg width="102mm" height="152mm" viewBox="-51 -76 102 152" xmlns="http://www.w3.org/2000/svg" version="1.1">
<title>OpenSCAD Model</title>
<path d="
M -50.9908,24.624 L -50.9097,26.6545 L -50.8598,27.9054 L -50.8306,28.6377 L -50.8287,28.6849 L -50.8268,28.7145
 L -50.8228,28.778 L -50.8199,28.8243 L -50.8149,28.9033 L -50.7311,29.5985 L -50.588,30.786 L -50.5047,31.4767
 L -50.3625,32.6564 L -50.3368,32.8698 L -50.322,32.9477 L -50.3133,32.9932 L -50.3014,33.0557 L -50.2958,33.0848
 L -50.1768,33.6724 L -49.9735,34.6762 L -49.6225,36.4091 L -49.5824,36.6068 L -49.514,36.9446 L -49.3114,37.6507
 L -49.1929,38.064 L -48.7422,39.6348 L -48.5521,40.2975 L -48.4408,40.6854 L -48.4163,40.7608 L -48.402,40.8049
 L -48.3928,40.833 L -48.3732,40.8936 L -48.3137,41.0523 L -48.2121,41.3235 L -47.6936,42.7076 L -47.2135,43.989
 L -47.1424,44.1788 L -47.0209,44.5031 L -46.7132,45.1618 L -46.4015,45.829 L -46.2191,46.2196 L -45.943,46.8104
 L -45.7815,47.1563 L -45.5429,47.6669 L -45.4033,47.9658 L -45.4024,47.9678 L -45.4019,47.9689 L -45.3893,47.9957
 L -45.3622,48.0533 L -45.3424,48.0952 L -45.3087,48.1669 L -44.9277,48.84 L -44.624,49.3766 L -44.4027,49.7675
 L -44.3174,49.9183 L -44.2674,50.0065 L -44.2385,50.0577 L -44.2215,50.0876 L -43.7256,50.9638 L -43.4352,51.4768
 L -43.4011,51.5306 L -43.3762,51.5697 L -43.3338,51.6366 L -43.3179,51.6616 L -41.2023,54.8032 L -38.8569,57.7642
 L -38.838,57.7871 L -38.7875,57.8481 L -38.758,57.8838 L -38.7174,57.9329 L -36.1544,60.701 L -36.1328,60.7213
 L -36.0751,60.7755 L -36.0413,60.8073 L -35.9949,60.8508 L -33.2267,63.4138 L -31.3591,64.8932 L -30.2657,65.7592
 L -30.2016,65.8058 L -30.1641,65.833 L -30.1401,65.8504 L -30.0886,65.8879 L -26.947,68.0035 L -23.6372,69.877
 L -23.5814,69.9076 L -23.5554,69.9219 L -23.4454,69.9824 L -19.9795,71.6014 L -19.8628,71.6476 L -19.8036,71.6711
 L -19.776,71.682 L -18.4432,72.1813 L -16.1666,73.0343 L -13.8071,73.7112 L -12.4258,74.1074 L -12.3641,74.1233
 L -12.3354,74.1306 L -12.2138,74.1619 L -8.35398,74.9437 L -8.3246,74.9474 L -8.26144,74.9554 L -8.13685,74.9711
 L -4.17033,75.4492 L -0.109429,75.6113 L 0.109429,75.6113 L 4.17033,75.4492 L 8.13685,74.9711 L 8.26144,74.9554
 L 8.3246,74.9474 L 8.35398,74.9437 L 12.2138,74.1619 L 12.3354,74.1306 L 12.3641,74.1233 L 12.4258,74.1074
 L 13.8071,73.7112 L 16.1666,73.0343 L 18.4432,72.1813 L 19.776,71.682 L 19.8036,71.6711 L 19.8628,71.6476
 L 19.9795,71.6014 L 23.4454,69.9824 L 23.5554,69.9219 L 23.5814,69.9076 L 23.6372,69.877 L 26.947,68.0035
 L 30.0886,65.8879 L 30.1401,65.8504 L 30.1641,65.833 L 30.2016,65.8058 L 30.2657,65.7592 L 31.3591,64.8932
 L 33.2267,63.4138 L 35.9949,60.8508 L 36.0413,60.8073 L 36.0751,60.7755 L 36.1328,60.7213 L 36.1544,60.701
 L 38.7174,57.9329 L 38.758,57.8838 L 38.7875,57.8481 L 38.838,57.7871 L 38.8569,57.7642 L 41.2023,54.8032
 L 43.3179,51.6616 L 43.3338,51.6366 L 43.3762,51.5697 L 43.4011,51.5306 L 43.4352,51.4768 L 43.7256,50.9638
 L 44.2215,50.0876 L 44.2385,50.0577 L 44.2674,50.0065 L 44.3174,49.9183 L 44.4027,49.7675 L 44.624,49.3766
 L 44.9277,48.84 L 45.3087,48.1669 L 45.3424,48.0952 L 45.3622,48.0533 L 45.3893,47.9957 L 45.4019,47.9689
 L 45.4024,47.9678 L 45.4033,47.9658 L 45.5429,47.6669 L 45.7815,47.1563 L 45.943,46.8104 L 46.2191,46.2196
 L 46.4015,45.829 L 46.7132,45.1618 L 47.0209,44.5031 L 47.1424,44.1788 L 47.2135,43.989 L 47.6936,42.7076
 L 48.2121,41.3235 L 48.3137,41.0523 L 48.3732,40.8936 L 48.3928,40.833 L 48.402,40.8049 L 48.4163,40.7608
 L 48.4408,40.6854 L 48.5521,40.2975 L 48.7422,39.6348 L 49.1929,38.064 L 49.3114,37.6507 L 49.514,36.9446
 L 49.5824,36.6068 L 49.6225,36.4091 L 49.9735,34.6762 L 50.1768,33.6724 L 50.2958,33.0848 L 50.3014,33.0557
 L 50.3133,32.9932 L 50.322,32.9477 L 50.3368,32.8698 L 50.3625,32.6564 L 50.5047,31.4767 L 50.588,30.786
 L 50.7311,29.5985 L 50.8149,28.9033 L 50.8199,28.8243 L 50.8228,28.778 L 50.8268,28.7145 L 50.8287,28.6849
 L 50.8306,28.6377 L 50.8598,27.9054 L 50.9097,26.6545 L 50.9908,24.624 L 50.9908,-73.872 L 50.9889,-73.9016
 L 50.9849,-73.9651 L 50.982,-74.0114 L 50.977,-74.0904 L 50.9535,-74.2138 L 50.9416,-74.2763 L 50.936,-74.3054
 L 50.9116,-74.3807 L 50.8972,-74.4249 L 50.8881,-74.453 L 50.8684,-74.5136 L 50.8558,-74.5404 L 50.8287,-74.598
 L 50.7752,-74.7116 L 50.7411,-74.7653 L 50.7163,-74.8045 L 50.6738,-74.8714 L 50.6579,-74.8964 L 50.6391,-74.9192
 L 50.5886,-74.9802 L 50.559,-75.016 L 50.5184,-75.065 L 50.4968,-75.0853 L 50.4391,-75.1395 L 50.4053,-75.1713
 L 50.3589,-75.2148 L 50.2948,-75.2614 L 50.2573,-75.2887 L 50.2333,-75.3061 L 50.1818,-75.3435 L 50.126,-75.3742
 L 50.1001,-75.3884 L 49.99,-75.4489 L 49.9164,-75.4781 L 49.8733,-75.4951 L 49.8141,-75.5186 L 49.7866,-75.5295
 L 49.7249,-75.5453 L 49.6962,-75.5527 L 49.5746,-75.5839 L 49.5452,-75.5876 L 49.482,-75.5956 L 49.436,-75.6014
 L 49.3574,-75.6113 L 24.5146,-75.6113 L 24.39,-75.5956 L 24.3268,-75.5876 L 24.2974,-75.5839 L 24.1758,-75.5527
 L 24.1471,-75.5453 L 24.0855,-75.5295 L 24.0579,-75.5186 L 23.9987,-75.4951 L 23.882,-75.4489 L 23.7719,-75.3884
 L 23.746,-75.3742 L 23.6902,-75.3435 L 23.6387,-75.3061 L 23.6147,-75.2887 L 23.5772,-75.2614 L 23.5131,-75.2148
 L 23.4667,-75.1713 L 23.4329,-75.1395 L 23.3752,-75.0853 L 23.3536,-75.065 L 23.313,-75.016 L 23.2834,-74.9802
 L 23.2329,-74.9192 L 23.2141,-74.8964 L 23.1982,-74.8714 L 23.1557,-74.8045 L 23.1309,-74.7653 L 23.0968,-74.7116
 L 23.0433,-74.598 L 23.0162,-74.5404 L 23.0036,-74.5136 L 22.9839,-74.453 L 22.9748,-74.4249 L 22.936,-74.3054
 L 22.9304,-74.2763 L 22.9185,-74.2138 L 22.9098,-74.1682 L 22.895,-74.0904 L 22.89,-74.0114 L 22.8871,-73.9651
 L 22.8831,-73.9016 L 22.8812,-73.872 L 22.8812,24.624 L 22.8534,25.3195 L 22.8064,26.4983 L 22.722,27.1983
 L 22.5786,28.3884 L 22.4472,29.0371 L 22.2249,30.1342 L 21.9086,31.237 L 21.7222,31.8867 L 21.4843,32.5217
 L 21.0798,33.6012 L 20.8119,34.1747 L 20.3596,35.1429 L 19.796,36.1387 L 19.4646,36.7243 L 19.1016,37.2633
 L 18.4862,38.177 L 18.0874,38.6805 L 17.412,39.5332 L 16.9578,40.0238 L 16.1852,40.8582 L 15.7248,41.2845
 L 14.947,42.0046 L 14.0649,42.7033 L 13.5458,43.1146 L 12.9997,43.4823 L 12.0728,44.1065 L 11.5173,44.4209
 L 10.5781,44.9526 L 9.9654,45.2388 L 8.92354,45.7255 L 8.31153,45.9547 L 7.27546,46.3429 L 6.18465,46.6558
 L 5.5413,46.8404 L 4.86031,46.9783 L 3.70248,47.2129 L 3.04022,47.2927 L 1.92102,47.4276 L 0.711753,47.4759
 L 0,47.5043 L -0.711753,47.4759 L -1.92102,47.4276 L -3.04022,47.2927 L -3.70248,47.2129 L -4.86031,46.9783
 L -5.5413,46.8404 L -6.18465,46.6558 L -7.27546,46.3429 L -8.31153,45.9547 L -8.92354,45.7255 L -9.9654,45.2388
 L -10.5781,44.9526 L -11.5173,44.4209 L -12.0728,44.1065 L -12.9997,43.4823 L -13.5458,43.1146 L -14.0649,42.7033
 L -14.947,42.0046 L -15.7248,41.2845 L -16.1852,40.8582 L -16.9578,40.0238 L -17.412,39.5332 L -18.0874,38.6805
 L -18.4862,38.177 L -19.1016,37.2633 L -19.4646,36.7243 L -19.796,36.1387 L -20.3596,35.1429 L -20.8119,34.1747
 L -21.0798,33.6012 L -21.4843,32.5217 L -21.7222,31.8867 L -21.9086,31.237 L -22.2249,30.1342 L -22.4472,29.0371
 L -22.5786,28.3884 L -22.722,27.1983 L -22.8064,26.4983 L -22.8534,25.3195 L -22.8812,24.624 L -22.8831,24.5944
 L -22.8871,24.5309 L -22.89,24.4846 L -22.895,24.4056 L -22.9098,24.3278 L -22.9185,24.2822 L -22.9304,24.2197
 L -22.936,24.1906 L -22.9748,24.0712 L -22.9839,24.043 L -23.0036,23.9824 L -23.0162,23.9556 L -23.0433,23.898
 L -23.0631,23.8561 L -23.0968,23.7844 L -23.1309,23.7307 L -23.1557,23.6915 L -23.1982,23.6246 L -23.2141,23.5996
 L -23.2329,23.5768 L -23.2834,23.5158 L -23.313,23.48 L -23.3536,23.431 L -23.3752,23.4107 L -23.4329,23.3565
 L -23.4667,23.3247 L -23.5131,23.2812 L -23.6147,23.2073 L -23.6387,23.1899 L -23.6902,23.1525 L -23.746,23.1218
 L -23.7719,23.1076 L -23.882,23.0471 L -23.9987,23.0008 L -24.0579,22.9774 L -24.0855,22.9665 L -24.1471,22.9507
 L -24.1758,22.9433 L -24.2974,22.9121 L -24.3268,22.9084 L -24.39,22.9004 L -24.5146,22.8847 L -49.3574,22.8847
 L -49.436,22.8946 L -49.482,22.9004 L -49.5452,22.9084 L -49.5746,22.9121 L -49.6962,22.9433 L -49.7249,22.9507
 L -49.7866,22.9665 L -49.8141,22.9774 L -49.8733,23.0008 L -49.9164,23.0179 L -49.99,23.0471 L -50.1001,23.1076
 L -50.126,23.1218 L -50.1818,23.1525 L -50.2333,23.1899 L -50.2573,23.2073 L -50.3589,23.2812 L -50.4053,23.3247
 L -50.4391,23.3565 L -50.4968,23.4107 L -50.5184,23.431 L -50.559,23.48 L -50.5886,23.5158 L -50.6391,23.5768
 L -50.6579,23.5996 L -50.6738,23.6246 L -50.7163,23.6915 L -50.7411,23.7307 L -50.7752,23.7844 L -50.8089,23.8561
 L -50.8287,23.898 L -50.8558,23.9556 L -50.8684,23.9824 L -50.8881,24.043 L -50.8972,24.0712 L -50.9116,24.1153
 L -50.936,24.1906 L -50.9416,24.2197 L -50.9535,24.2822 L -50.9622,24.3278 L -50.977,24.4056 L -50.982,24.4846
 L -50.9849,24.5309 L -50.9889,24.5944 z
M -36,36 L -35.9921,35.8747 L -35.9686,35.7513 L -35.9298,35.6319 L -35.8763,35.5182 L -35.809,35.4122
 L -35.729,35.3155 L -35.6374,35.2295 L -35.5358,35.1557 L -35.4258,35.0952 L -35.309,35.0489 L -35.1874,35.0177
 L -35.0628,35.002 L -34.9372,35.002 L -34.8126,35.0177 L -34.691,35.0489 L -34.5742,35.0952 L -34.4642,35.1557
 L -34.3626,35.2295 L -34.271,35.3155 L -34.191,35.4122 L -34.1237,35.5182 L -34.0702,35.6319 L -34.0314,35.7513
 L -34.0079,35.8747 L -34,36 L -34.0079,36.1253 L -34.0314,36.2487 L -34.0702,36.3681 L -34.1237,36.4818
 L -34.191,36.5878 L -34.271,36.6845 L -34.3626,36.7705 L -34.4642,36.8443 L -34.5742,36.9048 L -34.691,36.9511
 L -34.8126,36.9823 L -34.9372,36.998 L -35.0628,36.998 L -35.1874,36.9823 L -35.309,36.9511 L -35.4258,36.9048
 L -35.5358,36.8443 L -35.6374,36.7705 L -35.729,36.6845 L -35.809,36.5878 L -35.8763,36.4818 L -35.9298,36.3681
 L -35.9686,36.2487 L -35.9921,36.1253 z
M -1,61 L -0.992114,60.8747 L -0.968583,60.7513 L -0.929776,60.6319 L -0.876307,60.5182 L -0.809016,60.4122
 L -0.728969,60.3155 L -0.637424,60.2295 L -0.535827,60.1557 L -0.425778,60.0952 L -0.309016,60.0489 L -0.187381,60.0177
 L -0.0627899,60.002 L 0.0627899,60.002 L 0.187381,60.0177 L 0.309016,60.0489 L 0.425778,60.0952 L 0.535827,60.1557
 L 0.637424,60.2295 L 0.728969,60.3155 L 0.809016,60.4122 L 0.876307,60.5182 L 0.929776,60.6319 L 0.968583,60.7513
 L 0.992114,60.8747 L 1,61 L 0.992114,61.1253 L 0.968583,61.2487 L 0.929776,61.3681 L 0.876307,61.4818
 L 0.809016,61.5878 L 0.728969,61.6845 L 0.637424,61.7705 L 0.535827,61.8443 L 0.425778,61.9048 L 0.309016,61.9511
 L 0.187381,61.9823 L 0.0627899,61.998 L -0.0627899,61.998 L -0.187381,61.9823 L -0.309016,61.9511 L -0.425778,61.9048
 L -0.535827,61.8443 L -0.637424,61.7705 L -0.728969,61.6845 L -0.809016,61.5878 L -0.876307,61.4818 L -0.929776,61.3681
 L -0.968583,61.2487 L -0.992114,61.1253 z
M 36,-61 L 36.0079,-61.1253 L 36.0314,-61.2487 L 36.0702,-61.3681 L 36.1237,-61.4818 L 36.191,-61.5878
 L 36.271,-61.6845 L 36.3626,-61.7705 L 36.4642,-61.8443 L 36.5742,-61.9048 L 36.691,-61.9511 L 36.8126,-61.9823
 L 36.9372,-61.998 L 37.0628,-61.998 L 37.1874,-61.9823 L 37.309,-61.9511 L 37.4258,-61.9048 L 37.5358,-61.8443
 L 37.6374,-61.7705 L 37.729,-61.6845 L 37.809,-61.5878 L 37.8763,-61.4818 L 37.9298,-61.3681 L 37.9686,-61.2487
 L 37.9921,-61.1253 L 38,-61 L 37.9921,-60.8747 L 37.9686,-60.7513 L 37.9298,-60.6319 L 37.8763,-60.5182
 L 37.809,-60.4122 L 37.729,-60.3155 L 37.6374,-60.2295 L 37.5358,-60.1557 L 37.4258,-60.0952 L 37.309,-60.0489
 L 37.1874,-60.0177 L 37.0628,-60.002 L 36.9372,-60.002 L 36.8126,-60.0177 L 36.691,-60.0489 L 36.5742,-60.0952
 L 36.4642,-60.1557 L 36.3626,-60.2295 L 36.271,-60.3155 L 36.191,-60.4122 L 36.1237,-60.5182 L 36.0702,-60.6319
 L 36.0314,-60.7513 L 36.0079,-60.8747 z
" stroke="black" fill="lightgray" stroke-width="0.5"/>
</svg>
