<?xml version="1.0" standalone="no"?>
<!DOCTYPE svg PUBLIC "-//W3C//DTD SVG 1.1//EN" "http://www.w3.org/Graphics/SVG/1.1/DTD/svg11.dtd">
<svg width="102mm" height="152mm" viewBox="-51 -76 102 152" xmlns="http://www.w3.org/2000/svg" version="1.1">
<title>OpenSCAD Model</title>
<path d="
M -50.9908,73.872 L -50.9889,73.9016 L -50.9849,73.9651 L -50.982,74.0114 L -50.977,74.0904 L -50.9535,74.2138
 L -50.9416,74.2763 L -50.936,74.3054 L -50.9116,74.3807 L -50.8972,74.4249 L -50.8881,74.453 L -50.8684,74.5136
 L -50.8558,74.5404 L -50.8287,74.598 L -50.7752,74.7116 L -50.7411,74.7653 L -50.7163,74.8045 L -50.6738,74.8714
 L -50.6579,74.8964 L -50.6391,74.9192 L -50.5886,74.9802 L -50.559,75.016 L -50.5184,75.065 L -50.4968,75.0853
 L -50.4391,75.1395 L -50.4053,75.1713 L -50.3589,75.2148 L -50.2948,75.2614 L -50.2573,75.2887 L -50.2333,75.3061
 L -50.1818,75.3435 L -50.126,75.3742 L -50.1001,75.3884 L -49.99,75.4489 L -49.9164,75.4781 L -49.8733,75.4951
 L -49.8141,75.5186 L -49.7866,75.5295 L -49.7249,75.5453 L -49.6962,75.5527 L -49.5746,75.5839 L -49.5452,75.5876
 L -49.482,75.5956 L -49.436,75.6014 L -49.3574,75.6113 L -24.5146,75.6113 L -24.39,75.5956 L -24.3268,75.5876
 L -24.2974,75.5839 L -24.1758,75.5527 L -24.1471,75.5453 L -24.0855,75.5295 L -24.0579,75.5186 L -23.9987,75.4951
 L -23.882,75.4489 L -23.7719,75.3884 L -23.746,75.3742 L -23.6902,75.3435 L -23.6387,75.3061 L -23.6147,75.2887
 L -23.5772,75.2614 L -23.5131,75.2148 L -23.4667,75.1713 L -23.4329,75.1395 L -23.3752,75.0853 L -23.3536,75.065
 L -23.313,75.016 L -23.2834,74.9802 L -23.2329,74.9192 L -23.2141,74.8964 L -23.1982,74.8714 L -23.1557,74.8045
 L -23.1309,74.7653 L -23.0968,74.7116 L -23.0433,74.598 L -23.0162,74.5404 L -23.0036,74.5136 L -22.9839,74.453
 L -22.9748,74.4249 L -22.936,74.3054 L -22.9304,74.2763 L -22.9185,74.2138 L -22.9098,74.1682 L -22.895,74.0904
 L -22.89,74.0114 L -22.8871,73.9651 L -22.8831,73.9016 L -22.8812,73.872 L -22.8812,26.5666 L -16.2102,17.5517
 L -12.2347,12.1794 L -0.297207,35.3235 L 20.0188,74.7116 L 20.0529,74.7653 L 20.0777,74.8045 L 20.1202,74.8714
 L 20.1361,74.8964 L 20.1549,74.9192 L 20.2054,74.9802 L 20.235,75.016 L 20.2756,75.065 L 20.2972,75.0853
 L 20.3549,75.1395 L 20.3887,75.1713 L 20.4351,75.2148 L 20.4992,75.2614 L 20.5367,75.2887 L 20.5607,75.3061
 L 20.6122,75.3435 L 20.668,75.3742 L 20.6939,75.3884 L 20.804,75.4489 L 20.9207,75.4951 L 20.9799,75.5186
 L 21.0074,75.5295 L 21.0691,75.5453 L 21.0978,75.5527 L 21.2194,75.5839 L 21.2488,75.5876 L 21.312,75.5956
 L 21.4366,75.6113 L 49.3574,75.6113 L 49.436,75.6014 L 49.482,75.5956 L 49.5452,75.5876 L 49.5746,75.5839
 L 49.6962,75.5527 L 49.7249,75.5453 L 49.7866,75.5295 L 49.8141,75.5186 L 49.8733,75.4951 L 49.9164,75.4781
 L 49.99,75.4489 L 50.1001,75.3884 L 50.126,75.3742 L 50.1818,75.3435 L 50.2333,75.3061 L 50.2573,75.2887
 L 50.2948,75.2614 L 50.3589,75.2148 L 50.4053,75.1713 L 50.4391,75.1395 L 50.4968,75.0853 L 50.5184,75.065
 L 50.559,75.016 L 50.5886,74.9802 L 50.6391,74.9192 L 50.6579,74.8964 L 50.6738,74.8714 L 50.7163,74.8045
 L 50.7411,74.7653 L 50.7752,74.7116 L 50.8287,74.598 L 50.8558,74.5404 L 50.8684,74.5136 L 50.8881,74.453
 L 50.8972,74.4249 L 50.9116,74.3807 L 50.936,74.3054 L 50.9416,74.2763 L 50.9535,74.2138 L 50.977,74.0904
 L 50.982,74.0114 L 50.9849,73.9651 L 50.9889,73.9016 L 50.9908,73.872 L 50.9889,73.8424 L 50.9849,73.7789
 L 50.982,73.7326 L 50.977,73.6536 L 50.9535,73.5302 L 50.9416,73.4677 L 50.936,73.4386 L 50.9116,73.3633
 L 50.8972,73.3192 L 50.8881,73.291 L 50.8684,73.2304 L 50.8558,73.2036 L 50.8287,73.146 L 50.7752,73.0324
 L 38.4004,49.0385 L 17.2619,8.05241 L 10.479,-5.09915 L 6.49013,-12.8333 L 6.92052,-13.4181 L 7.61782,-14.3656
 L 23.5104,-35.9601 L 50.6579,-72.8476 L 50.6738,-72.8726 L 50.7163,-72.9395 L 50.7411,-72.9787 L 50.7752,-73.0324
 L 50.8287,-73.146 L 50.8558,-73.2036 L 50.8684,-73.2304 L 50.8881,-73.291 L 50.8972,-73.3192 L 50.9116,-73.3633
 L 50.936,-73.4386 L 50.9416,-73.4677 L 50.9535,-73.5302 L 50.977,-73.6536 L 50.982,-73.7326 L 50.9849,-73.7789
 L 50.9889,-73.8424 L 50.9908,-73.872 L 50.9889,-73.9016 L 50.9849,-73.9651 L 50.982,-74.0114 L 50.977,-74.0904
 L 50.9535,-74.2138 L 50.9416,-74.2763 L 50.936,-74.3054 L 50.9116,-74.3807 L 50.8972,-74.4249 L 50.8881,-74.453
 L 50.8684,-74.5136 L 50.8558,-74.5404 L 50.8287,-74.598 L 50.7752,-74.7116 L 50.7411,-74.7653 L 50.7163,-74.8045
 L 50.6738,-74.8714 L 50.6579,-74.8964 L 50.6391,-74.9192 L 50.5886,-74.9802 L 50.559,-75.016 L 50.5184,-75.065
 L 50.4968,-75.0853 L 50.4391,-75.1395 L 50.4053,-75.1713 L 50.3589,-75.2148 L 50.2948,-75.2614 L 50.2573,-75.2887
 L 50.2333,-75.3061 L 50.1818,-75.3435 L 50.126,-75.3742 L 50.1001,-75.3884 L 49.99,-75.4489 L 49.9164,-75.4781
 L 49.8733,-75.4951 L 49.8141,-75.5186 L 49.7866,-75.5295 L 49.7249,-75.5453 L 49.6962,-75.5527 L 49.5746,-75.5839
 L 49.5452,-75.5876 L 49.482,-75.5956 L 49.436,-75.6014 L 49.3574,-75.6113 L 18.7006,-75.6113 L 18.576,-75.5956
 L 18.5128,-75.5876 L 18.4834,-75.5839 L 18.3618,-75.5527 L 18.3331,-75.5453 L 18.2714,-75.5295 L 18.2439,-75.5186
 L 18.1847,-75.4951 L 18.068,-75.4489 L 17.9579,-75.3884 L 17.932,-75.3742 L 17.8762,-75.3435 L 17.8247,-75.3061
 L 17.8007,-75.2887 L 17.7632,-75.2614 L 17.6991,-75.2148 L 17.6527,-75.1713 L 17.6189,-75.1395 L 17.5612,-75.0853
 L 17.5396,-75.065 L 17.499,-75.016 L 17.4694,-74.9802 L 17.4189,-74.9192 L 17.4001,-74.8964 L -7.93777,-40.7801
 L -22.8812,-20.6594 L -22.8812,-73.872 L -22.8831,-73.9016 L -22.8871,-73.9651 L -22.89,-74.0114 L -22.895,-74.0904
 L -22.9098,-74.1682 L -22.9185,-74.2138 L -22.9304,-74.2763 L -22.936,-74.3054 L -22.9748,-74.4249 L -22.9839,-74.453
 L -23.0036,-74.5136 L -23.0162,-74.5404 L -23.0433,-74.598 L -23.0968,-74.7116 L -23.1309,-74.7653 L -23.1557,-74.8045
 L -23.1982,-74.8714 L -23.2141,-74.8964 L -23.2329,-74.9192 L -23.2834,-74.9802 L -23.313,-75.016 L -23.3536,-75.065
 L -23.3752,-75.0853 L -23.4329,-75.1395 L -23.4667,-75.1713 L -23.5131,-75.2148 L -23.5772,-75.2614 L -23.6147,-75.2887
 L -23.6387,-75.3061 L -23.6902,-75.3435 L -23.746,-75.3742 L -23.7719,-75.3884 L -23.882,-75.4489 L -23.9987,-75.4951
 L -24.0579,-75.5186 L -24.0855,-75.5295 L -24.1471,-75.5453 L -24.1758,-75.5527 L -24.2974,-75.5839 L -24.3268,-75.5876
 L -24.39,-75.5956 L -24.5146,-75.6113 L -49.3574,-75.6113 L -49.436,-75.6014 L -49.482,-75.5956 L -49.5452,-75.5876
 L -49.5746,-75.5839 L -49.6962,-75.5527 L -49.7249,-75.5453 L -49.7866,-75.5295 L -49.8141,-75.5186 L -49.8733,-75.4951
 L -49.9164,-75.4781 L -49.99,-75.4489 L -50.1001,-75.3884 L -50.126,-75.3742 L -50.1818,-75.3435 L -50.2333,-75.3061
 L -50.2573,-75.2887 L -50.2948,-75.2614 L -50.3589,-75.2148 L -50.4053,-75.1713 L -50.4391,-75.1395 L -50.4968,-75.0853
 L -50.5184,-75.065 L -50.559,-75.016 L -50.5886,-74.9802 L -50.6391,-74.9192 L -50.6579,-74.8964 L -50.6738,-74.8714
 L -50.7163,-74.8045 L -50.7411,-74.7653 L -50.7752,-74.7116 L -50.8287,-74.598 L -50.8558,-74.5404 L -50.8684,-74.5136
 L -50.8881,-74.453 L -50.8972,-74.4249 L -50.9116,-74.3807 L -50.936,-74.3054 L -50.9416,-74.2763 L -50.9535,-74.2138
 L -50.977,-74.0904 L -50.982,-74.0114 L -50.9849,-73.9651 L -50.9889,-73.9016 L -50.9908,-73.872 z
M -38,61 L -37.9921,60.8747 L -37.9686,60.7513 L -37.9298,60.6319 L -37.8763,60.5182 L -37.809,60.4122
 L -37.729,60.3155 L -37.6374,60.2295 L -37.5358,60.1557 L -37.4258,60.0952 L -37.309,60.0489 L -37.1874,60.0177
 L -37.0628,60.002 L -36.9372,60.002 L -36.8126,60.0177 L -36.691,60.0489 L -36.5742,60.0952 L -36.4642,60.1557
 L -36.3626,60.2295 L -36.271,60.3155 L -36.191,60.4122 L -36.1237,60.5182 L -36.0702,60.6319 L -36.0314,60.7513
 L -36.0079,60.8747 L -36,61 L -36.0079,61.1253 L -36.0314,61.2487 L -36.0702,61.3681 L -36.1237,61.4818
 L -36.191,61.5878 L -36.271,61.6845 L -36.3626,61.7705 L -36.4642,61.8443 L -36.5742,61.9048 L -36.691,61.9511
 L -36.8126,61.9823 L -36.9372,61.998 L -37.0628,61.998 L -37.1874,61.9823 L -37.309,61.9511 L -37.4258,61.9048
 L -37.5358,61.8443 L -37.6374,61.7705 L -37.729,61.6845 L -37.809,61.5878 L -37.8763,61.4818 L -37.9298,61.3681
 L -37.9686,61.2487 L -37.9921,61.1253 z
M -38,-61 L -37.9921,-61.1253 L -37.9686,-61.2487 L -37.9298,-61.3681 L -37.8763,-61.4818 L -37.809,-61.5878
 L -37.729,-61.6845 L -37.6374,-61.7705 L -37.5358,-61.8443 L -37.4258,-61.9048 L -37.309,-61.9511 L -37.1874,-61.9823
 L -37.0628,-61.998 L -36.9372,-61.998 L -36.8126,-61.9823 L -36.691,-61.9511 L -36.5742,-61.9048 L -36.4642,-61.8443
 L -36.3626,-61.7705 L -36.271,-61.6845 L -36.191,-61.5878 L -36.1237,-61.4818 L -36.0702,-61.3681 L -36.0314,-61.2487
 L -36.0079,-61.1253 L -36,-61 L -36.0079,-60.8747 L -36.0314,-60.7513 L -36.0702,-60.6319 L -36.1237,-60.5182
 L -36.191,-60.4122 L -36.271,-60.3155 L -36.3626,-60.2295 L -36.4642,-60.1557 L -36.5742,-60.0952 L -36.691,-60.0489
 L -36.8126,-60.0177 L -36.9372,-60.002 L -37.0628,-60.002 L -37.1874,-60.0177 L -37.309,-60.0489 L -37.4258,-60.0952
 L -37.5358,-60.1557 L -37.6374,-60.2295 L -37.729,-60.3155 L -37.809,-60.4122 L -37.8763,-60.5182 L -37.9298,-60.6319
 L -37.9686,-60.7513 L -37.9921,-60.8747 z
M 23,-61 L 23.0079,-61.1253 L 23.0314,-61.2487 L 23.0702,-61.3681 L 23.1237,-61.4818 L 23.191,-61.5878
 L 23.271,-61.6845 L 23.3626,-61.7705 L 23.4642,-61.8443 L 23.5742,-61.9048 L 23.691,-61.9511 L 23.8126,-61.9823
 L 23.9372,-61.998 L 24.0628,-61.998 L 24.1874,-61.9823 L 24.309,-61.9511 L 24.4258,-61.9048 L 24.5358,-61.8443
 L 24.6374,-61.7705 L 24.729,-61.6845 L 24.809,-61.5878 L 24.8763,-61.4818 L 24.9298,-61.3681 L 24.9686,-61.2487
 L 24.9921,-61.1253 L 25,-61 L 24.9921,-60.8747 L 24.9686,-60.7513 L 24.9298,-60.6319 L 24.8763,-60.5182
 L 24.809,-60.4122 L 24.729,-60.3155 L 24.6374,-60.2295 L 24.5358,-60.1557 L 24.4258,-60.0952 L 24.309,-60.0489
 L 24.1874,-60.0177 L 24.0628,-60.002 L 23.9372,-60.002 L 23.8126,-60.0177 L 23.691,-60.0489 L 23.5742,-60.0952
 L 23.4642,-60.1557 L 23.3626,-60.2295 L 23.271,-60.3155 L 23.191,-60.4122 L 23.1237,-60.5182 L 23.0702,-60.6319
 L 23.0314,-60.7513 L 23.0079,-60.8747 z
M 29,61 L 29.0079,60.8747 L 29.0314,60.7513 L 29.0702,60.6319 L 29.1237,60.5182 L 29.191,60.4122
 L 29.271,60.3155 L 29.3626,60.2295 L 29.4642,60.1557 L 29.5742,60.0952 L 29.691,60.0489 L 29.8126,60.0177
 L 29.9372,60.002 L 30.0628,60.002 L 30.1874,60.0177 L 30.309,60.0489 L 30.4258,60.0952 L 30.5358,60.1557
 L 30.6374,60.2295 L 30.729,60.3155 L 30.809,60.4122 L 30.8763,60.5182 L 30.9298,60.6319 L 30.9686,60.7513
 L 30.9921,60.8747 L 31,61 L 30.9921,61.1253 L 30.9686,61.2487 L 30.9298,61.3681 L 30.8763,61.4818
 L 30.809,61.5878 L 30.729,61.6845 L 30.6374,61.7705 L 30.5358,61.8443 L 30.4258,61.9048 L 30.309,61.9511
 L 30.1874,61.9823 L 30.0628,61.998 L 29.9372,61.998 L 29.8126,61.9823 L 29.691,61.9511 L 29.5742,61.9048
 L 29.4642,61.8443 L 29.3626,61.7705 L 29.271,61.6845 L 29.191,61.5878 L 29.1237,61.4818 L 29.0702,61.3681
 L 29.0314,61.2487 L 29.0079,61.1253 z
" stroke="black" fill="lightgray" stroke-width="0.5"/>
</svg>
