<?xml version="1.0" standalone="no"?>
<!DOCTYPE svg PUBLIC "-//W3C//DTD SVG 1.1//EN" "http://www.w3.org/Graphics/SVG/1.1/DTD/svg11.dtd">
<svg width="102mm" height="152mm" viewBox="-51 -76 102 152" xmlns="http://www.w3.org/2000/svg" version="1.1">
<title>OpenSCAD Model</title>
<path d="
M -50.9908,73.872 L -50.9889,73.9016 L -50.9849,73.9651 L -50.982,74.0114 L -50.977,74.0904 L -50.9535,74.2138
 L -50.9416,74.2763 L -50.936,74.3054 L -50.9116,74.3807 L -50.8972,74.4249 L -50.8881,74.453 L -50.8684,74.5136
 L -50.8558,74.5404 L -50.8287,74.598 L -50.7752,74.7116 L -50.7411,74.7653 L -50.7163,74.8045 L -50.6738,74.8714
 L -50.6579,74.8964 L -50.6391,74.9192 L -50.5886,74.9802 L -50.559,75.016 L -50.5184,75.065 L -50.4968,75.0853
 L -50.4391,75.1395 L -50.4053,75.1713 L -50.3589,75.2148 L -50.2948,75.2614 L -50.2573,75.2887 L -50.2333,75.3061
 L -50.1818,75.3435 L -50.126,75.3742 L -50.1001,75.3884 L -49.99,75.4489 L -49.9164,75.4781 L -49.8733,75.4951
 L -49.8141,75.5186 L -49.7866,75.5295 L -49.7249,75.5453 L -49.6962,75.5527 L -49.5746,75.5839 L -49.5452,75.5876
 L -49.482,75.5956 L -49.436,75.6014 L -49.3574,75.6113 L -24.5146,75.6113 L -24.39,75.5956 L -24.3268,75.5876
 L -24.2974,75.5839 L -24.1758,75.5527 L -24.1471,75.5453 L -24.0855,75.5295 L -24.0579,75.5186 L -23.9987,75.4951
 L -23.882,75.4489 L -23.7719,75.3884 L -23.746,75.3742 L -23.6902,75.3435 L -23.6387,75.3061 L -23.6147,75.2887
 L -23.5772,75.2614 L -23.5131,75.2148 L -23.4667,75.1713 L -23.4329,75.1395 L -23.3752,75.0853 L -23.3536,75.065
 L -23.313,75.016 L -23.2834,74.9802 L -23.2329,74.9192 L -23.2141,74.8964 L -23.1982,74.8714 L -23.1557,74.8045
 L -23.1309,74.7653 L -23.0968,74.7116 L -23.0433,74.598 L -23.0162,74.5404 L -23.0036,74.5136 L -22.9839,74.453
 L -22.9748,74.4249 L -22.936,74.3054 L -22.9304,74.2763 L -22.9185,74.2138 L -22.9098,74.1682 L -22.895,74.0904
 L -22.89,74.0114 L -22.8871,73.9651 L -22.8831,73.9016 L -22.8812,73.872 L -22.8812,10.9733 L 6.26543,10.9733
 L 9.67982,10.8341 L 13.0401,10.4237 L 13.1647,10.408 L 13.2279,10.4 L 13.2572,10.3963 L 16.5503,9.72587
 L 16.672,9.69464 L 16.7006,9.68728 L 16.7623,9.67144 L 19.9751,8.75193 L 23.0945,7.59439 L 23.1221,7.58349
 L 23.1812,7.56006 L 23.298,7.51383 L 26.311,6.12928 L 26.421,6.06878 L 26.447,6.05451 L 26.5028,6.02384
 L 29.3962,4.42332 L 31.1376,3.28453 L 32.1571,2.61786 L 32.2086,2.58044 L 32.2325,2.56303 L 32.3341,2.48922
 L 34.9493,0.489855 L 37.4056,-1.69241 L 37.4521,-1.73599 L 37.5436,-1.82196 L 37.5652,-1.84223 L 39.8497,-4.19634
 L 41.9493,-6.71128 L 41.9899,-6.76034 L 42.0699,-6.8571 L 42.0888,-6.87992 L 43.9904,-9.54465 L 44.0062,-9.56966
 L 44.0735,-9.67569 L 44.1076,-9.72944 L 45.7981,-12.5329 L 46.8073,-14.5504 L 46.8364,-14.6086 L 46.9221,-14.7799
 L 47.0619,-15.0594 L 47.2534,-15.4423 L 47.2644,-15.4642 L 47.3178,-15.5778 L 47.3449,-15.6354 L 47.3576,-15.6622
 L 47.426,-15.8319 L 47.5429,-16.1218 L 47.6285,-16.3341 L 47.7747,-16.6968 L 48.0424,-17.3606 L 48.3439,-18.1082
 L 48.5866,-18.7102 L 48.6062,-18.7707 L 48.6154,-18.7989 L 48.6297,-18.843 L 48.6542,-18.9183 L 48.68,-19.0013
 L 48.7239,-19.1431 L 48.8272,-19.4757 L 49.0035,-20.0438 L 49.1147,-20.402 L 49.3045,-21.0139 L 49.4231,-21.3958
 L 49.6255,-22.0483 L 49.6283,-22.057 L 49.6329,-22.0719 L 49.7815,-22.747 L 49.8686,-23.1422 L 50.1215,-24.2908
 L 50.2644,-24.9401 L 50.3481,-25.3202 L 50.3537,-25.3493 L 50.3656,-25.4118 L 50.3743,-25.4574 L 50.3891,-25.5352
 L 50.4114,-25.7041 L 50.5751,-26.9473 L 50.6375,-27.4211 L 50.7441,-28.2305 L 50.775,-28.4656 L 50.8279,-28.8671
 L 50.8329,-28.9461 L 50.8358,-28.9924 L 50.8398,-29.056 L 50.8416,-29.0855 L 50.8527,-29.3373 L 50.8715,-29.7673
 L 50.8933,-30.2653 L 50.9306,-31.116 L 50.9908,-32.49 L 50.9529,-33.3551 L 50.9307,-33.8615 L 50.8718,-35.2031
 L 50.8528,-35.6376 L 50.8416,-35.892 L 50.8398,-35.9216 L 50.8358,-35.9851 L 50.8329,-36.0314 L 50.8279,-36.1104
 L 50.7764,-36.5004 L 50.7463,-36.7287 L 50.6407,-37.5287 L 50.5789,-37.9971 L 50.4172,-39.2225 L 50.3891,-39.4352
 L 50.3743,-39.513 L 50.3656,-39.5586 L 50.3537,-39.6211 L 50.3481,-39.6502 L 50.2694,-40.0066 L 50.1349,-40.6153
 L 49.8861,-41.7414 L 49.6497,-42.8113 L 49.6435,-42.8394 L 49.6329,-42.8873 L 49.4493,-43.476 L 49.3419,-43.8207
 L 49.0474,-44.7652 L 48.7745,-45.6404 L 48.6986,-45.8837 L 48.6542,-46.0261 L 48.6297,-46.1014 L 48.6154,-46.1455
 L 48.6062,-46.1737 L 48.5866,-46.2343 L 48.4802,-46.4966 L 48.4179,-46.6501 L 48.2328,-47.1066 L 48.1244,-47.3738
 L 47.9603,-47.7783 L 47.8643,-48.0151 L 47.6393,-48.5697 L 47.5207,-48.862 L 47.4513,-49.0332 L 47.3922,-49.179
 L 47.3576,-49.2643 L 47.3449,-49.2911 L 47.3178,-49.3487 L 47.2981,-49.3907 L 47.2644,-49.4624 L 47.1954,-49.5993
 L 47.0602,-49.8677 L 46.9775,-50.0319 L 46.9494,-50.0876 L 45.7981,-52.3732 L 44.7318,-54.1273 L 44.1076,-55.1542
 L 44.0735,-55.2079 L 44.0487,-55.2471 L 44.0062,-55.314 L 43.9904,-55.339 L 42.0888,-57.9797 L 42.0699,-58.0025
 L 42.0194,-58.0635 L 41.9899,-58.0993 L 41.9493,-58.1483 L 39.8497,-60.6382 L 37.5652,-62.9668 L 37.5436,-62.987
 L 37.4521,-63.073 L 37.4056,-63.1166 L 36.4986,-63.9129 L 34.9493,-65.2733 L 33.2998,-66.5186 L 32.3341,-67.2476
 L 32.27,-67.2942 L 32.2325,-67.3214 L 32.2086,-67.3388 L 32.1571,-67.3763 L 31.1376,-68.0341 L 29.3962,-69.1577
 L 29.3404,-69.1884 L 29.3145,-69.2026 L 29.2044,-69.2631 L 26.311,-70.8411 L 23.298,-72.2053 L 23.1812,-72.2515
 L 23.1221,-72.2749 L 23.0945,-72.2858 L 21.9427,-72.7067 L 19.9751,-73.4255 L 17.9486,-73.9961 L 16.7623,-74.3302
 L 16.7006,-74.3461 L 16.672,-74.3534 L 16.5503,-74.3846 L 13.2572,-75.0439 L 13.2279,-75.0476 L 13.1647,-75.0556
 L 13.0401,-75.0713 L 9.67982,-75.4746 L 6.26543,-75.6113 L -49.3574,-75.6113 L -49.436,-75.6014 L -49.482,-75.5956
 L -49.5452,-75.5876 L -49.5746,-75.5839 L -49.6962,-75.5527 L -49.7249,-75.5453 L -49.7866,-75.5295 L -49.8141,-75.5186
 L -49.8733,-75.4951 L -49.9164,-75.4781 L -49.99,-75.4489 L -50.1001,-75.3884 L -50.126,-75.3742 L -50.1818,-75.3435
 L -50.2333,-75.3061 L -50.2573,-75.2887 L -50.2948,-75.2614 L -50.3589,-75.2148 L -50.4053,-75.1713 L -50.4391,-75.1395
 L -50.4968,-75.0853 L -50.5184,-75.065 L -50.559,-75.016 L -50.5886,-74.9802 L -50.6391,-74.9192 L -50.6579,-74.8964
 L -50.6738,-74.8714 L -50.7163,-74.8045 L -50.7411,-74.7653 L -50.7752,-74.7116 L -50.8287,-74.598 L -50.8558,-74.5404
 L -50.8684,-74.5136 L -50.8881,-74.453 L -50.8972,-74.4249 L -50.9116,-74.3807 L -50.936,-74.3054 L -50.9416,-74.2763
 L -50.9535,-74.2138 L -50.977,-74.0904 L -50.982,-74.0114 L -50.9849,-73.9651 L -50.9889,-73.9016 L -50.9908,-73.872
 z
M -37,61 L -36.9921,60.8747 L -36.9686,60.7513 L -36.9298,60.6319 L -36.8763,60.5182 L -36.809,60.4122
 L -36.729,60.3155 L -36.6374,60.2295 L -36.5358,60.1557 L -36.4258,60.0952 L -36.309,60.0489 L -36.1874,60.0177
 L -36.0628,60.002 L -35.9372,60.002 L -35.8126,60.0177 L -35.691,60.0489 L -35.5742,60.0952 L -35.4642,60.1557
 L -35.3626,60.2295 L -35.271,60.3155 L -35.191,60.4122 L -35.1237,60.5182 L -35.0702,60.6319 L -35.0314,60.7513
 L -35.0079,60.8747 L -35,61 L -35.0079,61.1253 L -35.0314,61.2487 L -35.0702,61.3681 L -35.1237,61.4818
 L -35.191,61.5878 L -35.271,61.6845 L -35.3626,61.7705 L -35.4642,61.8443 L -35.5742,61.9048 L -35.691,61.9511
 L -35.8126,61.9823 L -35.9372,61.998 L -36.0628,61.998 L -36.1874,61.9823 L -36.309,61.9511 L -36.4258,61.9048
 L -36.5358,61.8443 L -36.6374,61.7705 L -36.729,61.6845 L -36.809,61.5878 L -36.8763,61.4818 L -36.9298,61.3681
 L -36.9686,61.2487 L -36.9921,61.1253 z
M -37,-61 L -36.9921,-61.1253 L -36.9686,-61.2487 L -36.9298,-61.3681 L -36.8763,-61.4818 L -36.809,-61.5878
 L -36.729,-61.6845 L -36.6374,-61.7705 L -36.5358,-61.8443 L -36.4258,-61.9048 L -36.309,-61.9511 L -36.1874,-61.9823
 L -36.0628,-61.998 L -35.9372,-61.998 L -35.8126,-61.9823 L -35.691,-61.9511 L -35.5742,-61.9048 L -35.4642,-61.8443
 L -35.3626,-61.7705 L -35.271,-61.6845 L -35.191,-61.5878 L -35.1237,-61.4818 L -35.0702,-61.3681 L -35.0314,-61.2487
 L -35.0079,-61.1253 L -35,-61 L -35.0079,-60.8747 L -35.0314,-60.7513 L -35.0702,-60.6319 L -35.1237,-60.5182
 L -35.191,-60.4122 L -35.271,-60.3155 L -35.3626,-60.2295 L -35.4642,-60.1557 L -35.5742,-60.0952 L -35.691,-60.0489
 L -35.8126,-60.0177 L -35.9372,-60.002 L -36.0628,-60.002 L -36.1874,-60.0177 L -36.309,-60.0489 L -36.4258,-60.0952
 L -36.5358,-60.1557 L -36.6374,-60.2295 L -36.729,-60.3155 L -36.809,-60.4122 L -36.8763,-60.5182 L -36.9298,-60.6319
 L -36.9686,-60.7513 L -36.9921,-60.8747 z
M -22.8812,-17.1293 L -22.8812,-47.5087 L 6.04657,-47.5087 L 7.43051,-47.4529 L 8.17027,-47.3647 L 8.61023,-47.3123
 L 9.42585,-47.1517 L 9.90569,-47.0573 L 10.6453,-46.8544 L 11.084,-46.7341 L 11.8518,-46.4634 L 12.3045,-46.3038
 L 13.0405,-45.9849 L 13.4752,-45.7966 L 14.1755,-45.434 L 14.5899,-45.2194 L 15.2961,-44.79 L 15.712,-44.5371
 L 16.3332,-44.0982 L 16.7019,-43.8377 L 17.355,-43.3047 L 17.7386,-42.9916 L 18.2692,-42.4919 L 18.5854,-42.1943
 L 19.1398,-41.5904 L 19.4661,-41.2351 L 19.9373,-40.6376 L 20.2165,-40.2836 L 20.6362,-39.6565 L 20.8849,-39.2849
 L 21.2652,-38.603 L 21.4896,-38.2005 L 21.7906,-37.5333 L 21.9694,-37.1371 L 22.212,-36.441 L 22.356,-36.0279
 L 22.5379,-35.2946 L 22.6457,-34.8604 L 22.7115,-34.4183 L 22.8225,-33.6723 L 22.8593,-32.9307 L 22.8812,-32.49
 L 22.8593,-32.0482 L 22.8225,-31.3048 L 22.7111,-30.5526 L 22.6451,-30.1071 L 22.5369,-29.6671 L 22.354,-28.9238
 L 22.2107,-28.5078 L 21.9694,-27.8073 L 21.6638,-27.1201 L 21.4826,-26.7126 L 21.2565,-26.3001 L 20.8732,-25.6007
 L 20.6285,-25.2279 L 20.2165,-24.6 L 19.9298,-24.2284 L 19.4444,-23.5991 L 19.1257,-23.2434 L 18.5854,-22.6403
 L 18.2581,-22.3239 L 17.7066,-21.7905 L 17.3229,-21.4682 L 16.6696,-20.9193 L 16.3108,-20.6579 L 15.7084,-20.219
 L 15.2802,-19.95 L 14.5506,-19.4917 L 14.1499,-19.2769 L 13.4752,-18.9153 L 12.7154,-18.574 L 12.2681,-18.373
 L 11.828,-18.2119 L 11.084,-17.9394 L 10.6357,-17.8116 L 9.87824,-17.5955 L 9.40285,-17.498 L 8.5956,-17.3325
 L 8.16072,-17.2784 L 7.43051,-17.1875 L 6.04657,-17.1293 z
M 35,-33 L 35.0079,-33.1253 L 35.0314,-33.2487 L 35.0702,-33.3681 L 35.1237,-33.4818 L 35.191,-33.5878
 L 35.271,-33.6845 L 35.3626,-33.7705 L 35.4642,-33.8443 L 35.5742,-33.9048 L 35.691,-33.9511 L 35.8126,-33.9823
 L 35.9372,-33.998 L 36.0628,-33.998 L 36.1874,-33.9823 L 36.309,-33.9511 L 36.4258,-33.9048 L 36.5358,-33.8443
 L 36.6374,-33.7705 L 36.729,-33.6845 L 36.809,-33.5878 L 36.8763,-33.4818 L 36.9298,-33.3681 L 36.9686,-33.2487
 L 36.9921,-33.1253 L 37,-33 L 36.9921,-32.8747 L 36.9686,-32.7513 L 36.9298,-32.6319 L 36.8763,-32.5182
 L 36.809,-32.4122 L 36.729,-32.3155 L 36.6374,-32.2295 L 36.5358,-32.1557 L 36.4258,-32.0952 L 36.309,-32.0489
 L 36.1874,-32.0177 L 36.0628,-32.002 L 35.9372,-32.002 L 35.8126,-32.0177 L 35.691,-32.0489 L 35.5742,-32.0952
 L 35.4642,-32.1557 L 35.3626,-32.2295 L 35.271,-32.3155 L 35.191,-32.4122 L 35.1237,-32.5182 L 35.0702,-32.6319
 L 35.0314,-32.7513 L 35.0079,-32.8747 z
" stroke="black" fill="lightgray" stroke-width="0.5"/>
</svg>
