<?xml version="1.0" standalone="no"?>
<!DOCTYPE svg PUBLIC "-//W3C//DTD SVG 1.1//EN" "http://www.w3.org/Graphics/SVG/1.1/DTD/svg11.dtd">
<svg width="102mm" height="152mm" viewBox="-51 -76 102 152" xmlns="http://www.w3.org/2000/svg" version="1.1">
<title>OpenSCAD Model</title>
<path d="
M -50.9908,-0 L -50.9781,1.50769 L -50.9707,2.39032 L -50.9673,2.80466 L -50.9652,3.04722 L -50.9379,4.11372
 L -50.922,4.73806 L -50.8889,6.03288 L -50.8452,7.04169 L -50.7929,8.24975 L -50.7622,8.95698 L -50.7489,9.17312
 L -50.7411,9.29966 L -50.6049,11.5104 L -50.5929,11.7054 L -50.5859,11.8195 L -50.584,11.8491 L -50.58,11.9126
 L -50.5721,12.0379 L -50.4229,13.8909 L -50.3465,14.8389 L -50.3034,15.2686 L -50.2299,16.0027 L -50.1717,16.5845
 L -50.0721,17.5783 L -50.0138,18.0626 L -49.772,20.0692 L -49.7495,20.2562 L -49.592,21.3693 L -49.4997,22.0209
 L -49.4237,22.5581 L -49.3792,22.8725 L -49.2087,23.9162 L -49.0529,24.8693 L -48.9617,25.4272 L -48.901,25.7535
 L -48.6922,26.8749 L -48.57,27.5313 L -48.5243,27.7767 L -48.4975,27.9204 L -48.4827,27.9982 L -48.474,28.0438
 L -48.4621,28.1063 L -48.4565,28.1354 L -48.3536,28.6256 L -48.1779,29.4631 L -48.0923,29.8707 L -47.9462,30.567
 L -47.8171,31.1172 L -47.6794,31.7044 L -47.4441,32.7073 L -47.4242,32.7921 L -47.3902,32.9371 L -47.0531,34.2316
 L -46.789,35.2456 L -46.6616,35.6888 L -46.4099,36.5646 L -46.2626,37.0773 L -46.1873,37.3392 L -46.1432,37.4925
 L -45.9635,38.062 L -45.8582,38.3954 L -45.4962,39.5421 L -45.4692,39.6278 L -45.4533,39.6779 L -45.4289,39.7532
 L -45.4145,39.7973 L -45.4054,39.8255 L -45.3857,39.8861 L -45.2652,40.235 L -45.0594,40.831 L -44.9298,41.206
 L -44.7086,41.8466 L -44.6878,41.9069 L -44.6522,42.0099 L -44.5426,42.3008 L -44.3555,42.7978 L -44.2321,43.1256
 L -44.0212,43.6855 L -43.9675,43.8282 L -43.8756,44.0721 L -43.6962,44.5102 L -43.3839,45.2729 L -43.2028,45.7154
 L -43.0968,45.9743 L -43.0713,46.0365 L -43.0564,46.0728 L -42.9045,46.4149 L -42.8155,46.6152 L -42.5575,47.1963
 L -42.4112,47.5256 L -42.3256,47.7184 L -42.2433,47.9036 L -42.1952,48.012 L -42.1826,48.0388 L -42.1555,48.0964
 L -42.102,48.21 L -42.0718,48.2729 L -42.0201,48.3803 L -41.8247,48.7868 L -41.6565,49.1365 L -41.6044,49.245
 L -41.5153,49.4303 L -41.4005,49.669 L -41.3119,49.8533 L -41.2887,49.9015 L -41.249,49.984 L -41.2116,50.0618
 L -41.1992,50.0876 L -40.806,50.7929 L -40.5759,51.2058 L -39.9369,52.3031 L -39.282,53.3787 L -39.2479,53.4325
 L -39.223,53.4717 L -39.1806,53.5385 L -39.1647,53.5635 L -38.4937,54.6171 L -37.8062,55.6482 L -37.1021,56.6562
 L -36.381,57.6405 L -35.6428,58.6008 L -34.8871,59.5364 L -34.8682,59.5592 L -34.8177,59.6202 L -34.7882,59.656
 L -34.7476,59.705 L -33.9742,60.6155 L -33.1828,61.5004 L -32.6722,62.042 L -32.3733,62.359 L -31.851,62.8838
 L -31.5453,63.191 L -30.6985,63.9958 L -30.6769,64.0161 L -30.5854,64.1021 L -30.539,64.1457 L -29.6732,64.9228
 L -29.3465,65.1993 L -28.7883,65.6717 L -27.8838,66.3918 L -27.3009,66.8276 L -26.9596,67.0828 L -26.8955,67.1293
 L -26.858,67.1566 L -26.834,67.174 L -26.7825,67.2114 L -25.8383,67.8726 L -25.7094,67.9569 L -25.4892,68.1009
 L -25.262,68.2496 L -24.8738,68.5035 L -23.8377,69.1549 L -22.7815,69.7754 L -22.7257,69.806 L -22.6997,69.8203
 L -22.5897,69.8808 L -21.514,70.47 L -20.4194,71.0275 L -19.3062,71.5533 L -18.1751,72.047 L -17.0266,72.5084
 L -16.9099,72.5547 L -16.8507,72.5781 L -16.8231,72.589 L -16.3928,72.7474 L -15.6577,73.0178 L -14.4758,73.4138
 L -13.278,73.7767 L -12.0649,74.1063 L -12.0032,74.1221 L -11.9745,74.1295 L -11.8529,74.1607 L -10.6249,74.4567
 L -9.38247,74.7188 L -8.12622,74.9468 L -6.85663,75.1404 L -6.82725,75.1441 L -6.76408,75.1521 L -6.63949,75.1678
 L -5.35707,75.3268 L -4.06235,75.4509 L -2.75582,75.5399 L -1.43801,75.5934 L -0.109429,75.6113 L 0.109429,75.6113
 L 1.43801,75.5934 L 2.75582,75.5399 L 4.06235,75.4509 L 5.35707,75.3268 L 6.63949,75.1678 L 6.76408,75.1521
 L 6.82725,75.1441 L 6.85663,75.1404 L 8.12622,74.9468 L 9.38247,74.7188 L 10.6249,74.4567 L 11.8529,74.1607
 L 11.9745,74.1295 L 12.0032,74.1221 L 12.0649,74.1063 L 13.278,73.7767 L 14.4758,73.4138 L 15.6577,73.0178
 L 16.3928,72.7474 L 16.8231,72.589 L 16.8507,72.5781 L 16.9099,72.5547 L 17.0266,72.5084 L 18.1751,72.047
 L 19.3062,71.5533 L 20.4194,71.0275 L 21.514,70.47 L 22.5897,69.8808 L 22.6997,69.8203 L 22.7257,69.806
 L 22.7815,69.7754 L 23.8377,69.1549 L 24.1167,68.9795 L 24.3214,68.8508 L 26.6385,71.168 L 30.5356,75.065
 L 30.5572,75.0853 L 30.6149,75.1395 L 30.6487,75.1713 L 30.6951,75.2148 L 30.7592,75.2614 L 30.7967,75.2887
 L 30.8207,75.3061 L 30.8722,75.3435 L 30.928,75.3742 L 30.9539,75.3884 L 31.064,75.4489 L 31.1807,75.4951
 L 31.2399,75.5186 L 31.2675,75.5295 L 31.3291,75.5453 L 31.3578,75.5527 L 31.4794,75.5839 L 31.5088,75.5876
 L 31.572,75.5956 L 31.6966,75.6113 L 31.9154,75.6113 L 32.04,75.5956 L 32.1032,75.5876 L 32.1326,75.5839
 L 32.2542,75.5527 L 32.2829,75.5453 L 32.3445,75.5295 L 32.3721,75.5186 L 32.4313,75.4951 L 32.4744,75.4781
 L 32.548,75.4489 L 32.6581,75.3884 L 32.684,75.3742 L 32.7398,75.3435 L 32.7913,75.3061 L 32.8153,75.2887
 L 32.8528,75.2614 L 32.9169,75.2148 L 32.9633,75.1713 L 32.9971,75.1395 L 33.0548,75.0853 L 33.0764,75.065
 L 50.5184,57.623 L 50.559,57.574 L 50.6391,57.4772 L 50.6579,57.4544 L 50.6738,57.4294 L 50.7163,57.3625
 L 50.7411,57.3233 L 50.7752,57.2696 L 50.8089,57.1979 L 50.8287,57.156 L 50.8558,57.0984 L 50.8684,57.0716
 L 50.8881,57.011 L 50.8972,56.9828 L 50.9116,56.9387 L 50.936,56.8634 L 50.9416,56.8343 L 50.9535,56.7718
 L 50.9622,56.7262 L 50.977,56.6484 L 50.9849,56.5231 L 50.9889,56.4596 L 50.9908,56.43 L 50.9889,56.4004
 L 50.9849,56.3369 L 50.977,56.2116 L 50.9622,56.1338 L 50.9535,56.0882 L 50.9416,56.0257 L 50.936,55.9966
 L 50.9116,55.9213 L 50.8972,55.8772 L 50.8881,55.849 L 50.8684,55.7884 L 50.8558,55.7616 L 50.8287,55.704
 L 50.8089,55.6621 L 50.7752,55.5904 L 50.7411,55.5367 L 50.7163,55.4975 L 50.6738,55.4306 L 50.6579,55.4056
 L 50.6391,55.3828 L 50.559,55.286 L 50.5184,55.237 L 42.5332,47.2517 L 42.5525,47.2087 L 42.5581,47.1963
 L 42.6546,46.9817 L 42.8195,46.6152 L 42.9031,46.4295 L 42.973,46.2614 L 43.0926,45.9743 L 43.2004,45.7154
 L 43.3846,45.2729 L 43.6952,44.527 L 43.6992,44.5164 L 43.7016,44.5102 L 43.9017,43.99 L 44.0188,43.6855
 L 44.234,43.1256 L 44.3601,42.7978 L 44.4484,42.5681 L 44.6096,42.113 L 44.704,41.8466 L 44.9309,41.206
 L 45.0638,40.831 L 45.1259,40.6555 L 45.1623,40.5528 L 45.327,40.0466 L 45.4235,39.7502 L 45.7966,38.6036
 L 45.8217,38.5263 L 45.8364,38.4811 L 45.8561,38.4206 L 45.8653,38.3924 L 45.8796,38.3483 L 45.9041,38.273
 L 46.0356,37.8315 L 46.2603,37.0773 L 46.3628,36.733 L 46.538,36.145 L 46.6618,35.6888 L 46.8079,35.1508
 L 47.0575,34.2316 L 47.0847,34.1316 L 47.1312,33.9606 L 47.3259,33.1701 L 47.4399,32.7073 L 47.5934,32.0844
 L 47.6832,31.7198 L 47.7677,31.3397 L 47.8171,31.1172 L 48.049,30.0739 L 48.1847,29.4631 L 48.1904,29.4376
 L 48.1937,29.4227 L 48.4042,28.3653 L 48.5274,27.7463 L 48.6124,27.3192 L 48.6622,27.0691 L 48.6677,27.0401
 L 48.6796,26.9775 L 48.6883,26.932 L 48.7032,26.8542 L 48.775,26.4477 L 48.8977,25.7535 L 48.9832,25.2701
 L 49.1291,24.4443 L 49.1594,24.2493 L 49.2112,23.9162 L 49.5055,22.0209 L 49.508,22.0051 L 49.5122,21.978
 L 49.6071,21.2732 L 49.7692,20.0692 L 49.7997,19.8426 L 49.8518,19.4554 L 49.9526,18.5769 L 50.0116,18.0626
 L 50.1477,16.8763 L 50.2003,16.3253 L 50.2311,16.0027 L 50.3371,14.8915 L 50.3992,14.241 L 50.4162,14.0202
 L 50.4261,13.8909 L 50.5309,12.5272 L 50.5922,11.7289 L 50.606,11.5492 L 50.6139,11.4239 L 50.6179,11.3603
 L 50.6198,11.3308 L 50.7392,9.29966 L 50.7814,8.58264 L 50.805,8.01364 L 50.8452,7.04169 L 50.8645,6.57512
 L 50.8974,5.77813 L 50.9068,5.39409 L 50.9229,4.73806 L 50.9674,2.91725 L 50.9716,2.39032 L 50.9787,1.50769
 L 50.9908,-0 L 50.9781,-1.50769 L 50.9707,-2.39032 L 50.9673,-2.80466 L 50.9652,-3.04722 L 50.9379,-4.11372
 L 50.922,-4.73806 L 50.8889,-6.03288 L 50.8452,-7.04169 L 50.7929,-8.24975 L 50.7622,-8.95698 L 50.7489,-9.17312
 L 50.7411,-9.29966 L 50.6049,-11.5104 L 50.5929,-11.7054 L 50.5859,-11.8195 L 50.584,-11.8491 L 50.58,-11.9126
 L 50.5721,-12.0379 L 50.4229,-13.8909 L 50.3465,-14.8389 L 50.3034,-15.2686 L 50.2299,-16.0027 L 50.1717,-16.5845
 L 50.0721,-17.5783 L 50.0138,-18.0626 L 49.772,-20.0692 L 49.7495,-20.2562 L 49.592,-21.3693 L 49.4997,-22.0209
 L 49.4237,-22.5581 L 49.3792,-22.8725 L 49.2087,-23.9162 L 49.0529,-24.8693 L 48.9617,-25.4272 L 48.901,-25.7535
 L 48.6922,-26.8749 L 48.57,-27.5313 L 48.5243,-27.7767 L 48.4975,-27.9204 L 48.4827,-27.9982 L 48.474,-28.0438
 L 48.4621,-28.1063 L 48.4565,-28.1354 L 48.3536,-28.6256 L 48.1779,-29.4631 L 48.0923,-29.8707 L 47.9462,-30.567
 L 47.8171,-31.1172 L 47.6794,-31.7044 L 47.4441,-32.7073 L 47.4242,-32.7921 L 47.3902,-32.9371 L 47.0531,-34.2316
 L 46.789,-35.2456 L 46.6616,-35.6888 L 46.4099,-36.5646 L 46.2626,-37.0773 L 46.1873,-37.3392 L 46.1432,-37.4925
 L 45.9635,-38.062 L 45.8582,-38.3954 L 45.4962,-39.5421 L 45.4692,-39.6278 L 45.4533,-39.6779 L 45.4289,-39.7532
 L 45.4145,-39.7973 L 45.4054,-39.8255 L 45.3857,-39.8861 L 45.2652,-40.235 L 45.0594,-40.831 L 44.9298,-41.206
 L 44.7086,-41.8466 L 44.6878,-41.9069 L 44.6522,-42.0099 L 44.5426,-42.3008 L 44.3555,-42.7978 L 44.2321,-43.1256
 L 44.0212,-43.6855 L 43.9675,-43.8282 L 43.8756,-44.0721 L 43.6962,-44.5102 L 43.3839,-45.2729 L 43.2028,-45.7154
 L 43.0968,-45.9743 L 43.0713,-46.0365 L 43.0564,-46.0728 L 42.9045,-46.4149 L 42.8155,-46.6152 L 42.5575,-47.1963
 L 42.4112,-47.5256 L 42.3256,-47.7184 L 42.2433,-47.9036 L 42.1952,-48.012 L 42.1826,-48.0388 L 42.1555,-48.0964
 L 42.102,-48.21 L 42.0718,-48.2729 L 42.0201,-48.3803 L 41.8247,-48.7868 L 41.6565,-49.1365 L 41.6044,-49.245
 L 41.5153,-49.4303 L 41.4005,-49.669 L 41.3119,-49.8533 L 41.2887,-49.9015 L 41.249,-49.984 L 41.2116,-50.0618
 L 41.1992,-50.0876 L 40.806,-50.7929 L 40.5759,-51.2058 L 39.9369,-52.3031 L 39.282,-53.3787 L 39.2479,-53.4325
 L 39.223,-53.4717 L 39.1806,-53.5385 L 39.1647,-53.5635 L 38.4937,-54.6171 L 37.8062,-55.6482 L 37.1021,-56.6562
 L 36.381,-57.6405 L 35.6428,-58.6008 L 34.8871,-59.5364 L 34.8682,-59.5592 L 34.8177,-59.6202 L 34.7882,-59.656
 L 34.7476,-59.705 L 33.9742,-60.6155 L 33.1828,-61.5004 L 32.6722,-62.042 L 32.3733,-62.359 L 31.851,-62.8838
 L 31.5453,-63.191 L 30.6985,-63.9958 L 30.6769,-64.0161 L 30.5854,-64.1021 L 30.539,-64.1457 L 29.6732,-64.9228
 L 29.3465,-65.1993 L 28.7883,-65.6717 L 27.8838,-66.3918 L 27.3009,-66.8276 L 26.9596,-67.0828 L 26.8955,-67.1293
 L 26.858,-67.1566 L 26.834,-67.174 L 26.7825,-67.2114 L 25.8383,-67.8726 L 24.8738,-68.5035 L 23.8377,-69.1549
 L 22.7815,-69.7754 L 22.7257,-69.806 L 22.6997,-69.8203 L 22.5897,-69.8808 L 21.514,-70.47 L 20.4194,-71.0275
 L 19.3062,-71.5533 L 18.1751,-72.047 L 17.0266,-72.5084 L 16.9099,-72.5547 L 16.8507,-72.5781 L 16.8231,-72.589
 L 16.3928,-72.7474 L 15.6577,-73.0178 L 14.4758,-73.4138 L 13.278,-73.7767 L 12.0649,-74.1063 L 12.0032,-74.1221
 L 11.9745,-74.1295 L 11.8529,-74.1607 L 10.6249,-74.4567 L 9.38247,-74.7188 L 8.12622,-74.9468 L 6.85663,-75.1404
 L 6.82725,-75.1441 L 6.76408,-75.1521 L 6.63949,-75.1678 L 5.35707,-75.3268 L 4.06235,-75.4509 L 2.75582,-75.5399
 L 1.43801,-75.5934 L 0.109429,-75.6113 L -0.109429,-75.6113 L -1.43801,-75.5934 L -2.75582,-75.5399 L -4.06235,-75.4509
 L -5.35707,-75.3268 L -6.63949,-75.1678 L -6.76408,-75.1521 L -6.82725,-75.1441 L -6.85663,-75.1404 L -8.12622,-74.9468
 L -9.38247,-74.7188 L -10.6249,-74.4567 L -11.8529,-74.1607 L -11.9745,-74.1295 L -12.0032,-74.1221 L -12.0649,-74.1063
 L -13.278,-73.7767 L -14.4758,-73.4138 L -15.6577,-73.0178 L -16.3928,-72.7474 L -16.8231,-72.589 L -16.8507,-72.5781
 L -16.9099,-72.5547 L -17.0266,-72.5084 L -18.1751,-72.047 L -19.3062,-71.5533 L -20.4194,-71.0275 L -21.514,-70.47
 L -22.5897,-69.8808 L -22.6997,-69.8203 L -22.7257,-69.806 L -22.7815,-69.7754 L -23.8377,-69.1549 L -24.8738,-68.5035
 L -25.8383,-67.8726 L -26.7825,-67.2114 L -26.834,-67.174 L -26.858,-67.1566 L -26.8955,-67.1293 L -26.9596,-67.0828
 L -27.3009,-66.8276 L -27.8838,-66.3918 L -28.7883,-65.6717 L -29.3465,-65.1993 L -29.6732,-64.9228 L -30.539,-64.1457
 L -30.5854,-64.1021 L -30.6769,-64.0161 L -30.6985,-63.9958 L -31.5453,-63.191 L -31.851,-62.8838 L -32.3733,-62.359
 L -32.6722,-62.042 L -33.1828,-61.5004 L -33.9742,-60.6155 L -34.7476,-59.705 L -34.7882,-59.656 L -34.8177,-59.6202
 L -34.8682,-59.5592 L -34.8871,-59.5364 L -35.6428,-58.6008 L -36.381,-57.6405 L -37.1021,-56.6562 L -37.8062,-55.6482
 L -38.4937,-54.6171 L -39.1647,-53.5635 L -39.1806,-53.5385 L -39.223,-53.4717 L -39.2479,-53.4325 L -39.282,-53.3787
 L -39.9369,-52.3031 L -40.5759,-51.2058 L -40.806,-50.7929 L -41.1992,-50.0876 L -41.2122,-50.0618 L -41.2516,-49.984
 L -41.2933,-49.9015 L -41.3177,-49.8533 L -41.4108,-49.669 L -41.5315,-49.4303 L -41.6251,-49.245 L -41.68,-49.1365
 L -41.8568,-48.7868 L -42.0622,-48.3803 L -42.1165,-48.2729 L -42.1483,-48.21 L -42.2018,-48.0964 L -42.2289,-48.0388
 L -42.2415,-48.012 L -42.2917,-47.9036 L -42.3774,-47.7184 L -42.6192,-47.1963 L -42.7186,-46.9817 L -42.8884,-46.6152
 L -42.9811,-46.4149 L -43.1395,-46.0728 L -43.1549,-46.0365 L -43.1813,-45.9743 L -43.2909,-45.7154 L -43.4783,-45.2729
 L -43.5975,-44.9913 L -43.8013,-44.5102 L -43.9868,-44.0721 L -44.081,-43.8282 L -44.1362,-43.6855 L -44.3525,-43.1256
 L -44.4791,-42.7978 L -44.6711,-42.3008 L -44.7835,-42.0099 L -44.8197,-41.9069 L -44.8409,-41.8466 L -45.0661,-41.206
 L -45.1979,-40.831 L -45.4074,-40.235 L -45.53,-39.8861 L -45.5497,-39.8255 L -45.5588,-39.7973 L -45.5732,-39.7532
 L -45.5976,-39.6779 L -45.6136,-39.6278 L -45.6409,-39.5421 L -46.0063,-38.3954 L -46.1126,-38.062 L -46.2941,-37.4925
 L -46.3382,-37.3392 L -46.4136,-37.0773 L -46.5611,-36.5646 L -46.8132,-35.6888 L -46.8603,-35.5252 L -46.9407,-35.2456
 L -47.0376,-34.8712 L -47.203,-34.2316 L -47.3267,-33.7536 L -47.5379,-32.9371 L -47.5714,-32.7921 L -47.5911,-32.7073
 L -47.8229,-31.7044 L -47.9587,-31.1172 L -48.0389,-30.7702 L -48.0859,-30.567 L -48.2287,-29.8707 L -48.3124,-29.4631
 L -48.5848,-28.1354 L -48.5903,-28.1063 L -48.6023,-28.0438 L -48.611,-27.9982 L -48.6258,-27.9204 L -48.6517,-27.7767
 L -48.6961,-27.5313 L -48.8146,-26.8749 L -49.0171,-25.7535 L -49.076,-25.4272 L -49.1637,-24.8693 L -49.3136,-23.9162
 L -49.4777,-22.8725 L -49.5928,-22.0209 L -49.8312,-20.2562 L -49.8525,-20.0692 L -50.0815,-18.0626 L -50.1368,-17.5783
 L -50.2303,-16.5845 L -50.285,-16.0027 L -50.3541,-15.2686 L -50.3946,-14.8389 L -50.4658,-13.8909 L -50.6049,-12.0379
 L -50.6128,-11.9126 L -50.6168,-11.8491 L -50.6187,-11.8195 L -50.6252,-11.7054 L -50.6363,-11.5104 L -50.7623,-9.29966
 L -50.7695,-9.17312 L -50.7819,-8.95698 L -50.81,-8.24975 L -50.858,-7.04169 L -50.8981,-6.03288 L -50.9283,-4.73806
 L -50.9677,-3.04722 L -50.9695,-2.80466 L -50.9726,-2.39032 z
M -38,-0 L -37.9921,-0.125333 L -37.9686,-0.24869 L -37.9298,-0.368124 L -37.8763,-0.481753 L -37.809,-0.587785
 L -37.729,-0.684546 L -37.6374,-0.770513 L -37.5358,-0.844327 L -37.4258,-0.904826 L -37.309,-0.951056 L -37.1874,-0.982286
 L -37.0628,-0.998026 L -36.9372,-0.998026 L -36.8126,-0.982286 L -36.691,-0.951056 L -36.5742,-0.904826 L -36.4642,-0.844327
 L -36.3626,-0.770513 L -36.271,-0.684546 L -36.191,-0.587785 L -36.1237,-0.481753 L -36.0702,-0.368124 L -36.0314,-0.24869
 L -36.0079,-0.125333 L -36,-0 L -36.0079,0.125333 L -36.0314,0.24869 L -36.0702,0.368124 L -36.1237,0.481753
 L -36.191,0.587785 L -36.271,0.684546 L -36.3626,0.770513 L -36.4642,0.844327 L -36.5742,0.904826 L -36.691,0.951056
 L -36.8126,0.982286 L -36.9372,0.998026 L -37.0628,0.998026 L -37.1874,0.982286 L -37.309,0.951056 L -37.4258,0.904826
 L -37.5358,0.844327 L -37.6374,0.770513 L -37.729,0.684546 L -37.809,0.587785 L -37.8763,0.481753 L -37.9298,0.368124
 L -37.9686,0.24869 L -37.9921,0.125333 z
M -22.8812,-0 L -22.8633,-2.39032 L -22.8097,-4.73806 L -22.7208,-7.04169 L -22.6772,-7.83519 L -22.603,-9.18371
 L -22.5076,-10.5113 L -22.4514,-11.292 L -22.3293,-12.6557 L -22.2578,-13.454 L -22.114,-14.786 L -22.0298,-15.5658
 L -21.933,-16.3264 L -21.7677,-17.6258 L -21.6584,-18.3667 L -21.4718,-19.6324 L -21.3505,-20.3507 L -21.1434,-21.5772
 L -21.0232,-22.2048 L -20.8203,-23.2644 L -20.5705,-24.4232 L -20.4243,-25.1017 L -20.1538,-26.223 L -19.9955,-26.8795
 L -19.8251,-27.5134 L -19.5341,-28.5962 L -19.3556,-29.1941 L -19.0515,-30.2132 L -18.7567,-31.1045 L -18.5822,-31.6323
 L -18.2305,-32.5938 L -18.0246,-33.1567 L -17.8071,-33.6947 L -17.4355,-34.6139 L -17.2217,-35.0922 L -16.8593,-35.9033
 L -16.4803,-36.6701 L -16.2568,-37.1224 L -15.6308,-38.2691 L -15.4076,-38.6415 L -15.0292,-39.273 L -14.653,-39.8431
 L -14.4303,-40.1807 L -13.7366,-41.1319 L -13.5095,-41.4124 L -13.1283,-41.8835 L -12.6782,-42.3824 L -12.4137,-42.6757
 L -12.1593,-42.9274 L -11.7299,-43.3523 L -11.4603,-43.5892 L -11.0041,-43.9899 L -10.7295,-44.2027 L -10.2656,-44.5621
 L -9.97991,-44.7559 L -9.49717,-45.0833 L -9.20541,-45.2549 L -8.71322,-45.5444 L -8.40428,-45.7002 L -7.88183,-45.9638
 L -7.57062,-46.0966 L -7.04598,-46.3205 L -6.71206,-46.439 L -6.14686,-46.6394 L -5.8066,-46.7373 L -5.2317,-46.9028
 L -4.87826,-46.9826 L -4.28085,-47.1175 L -3.89239,-47.1829 L -3.23148,-47.2943 L -2.87347,-47.3356 L -2.27225,-47.405
 L -1.10142,-47.4829 L -0.692306,-47.4916 L 0,-47.5063 L 0.692306,-47.4916 L 1.10142,-47.4829 L 2.27225,-47.405
 L 2.87347,-47.3356 L 3.23148,-47.2943 L 3.89239,-47.1829 L 4.28085,-47.1175 L 4.87826,-46.9826 L 5.2317,-46.9028
 L 5.8066,-46.7373 L 6.14686,-46.6394 L 6.71206,-46.439 L 7.04598,-46.3205 L 7.57062,-46.0966 L 7.88183,-45.9638
 L 8.40428,-45.7002 L 8.71322,-45.5444 L 9.20541,-45.2549 L 9.49717,-45.0833 L 9.97991,-44.7559 L 10.2656,-44.5621
 L 10.7295,-44.2027 L 11.0041,-43.9899 L 11.4603,-43.5892 L 11.7299,-43.3523 L 12.1593,-42.9274 L 12.4137,-42.6757
 L 12.6782,-42.3824 L 13.1283,-41.8835 L 13.5095,-41.4124 L 13.7366,-41.1319 L 14.4303,-40.1807 L 14.653,-39.8431
 L 15.0292,-39.273 L 15.4076,-38.6415 L 15.6308,-38.2691 L 16.2568,-37.1224 L 16.4803,-36.6701 L 16.8593,-35.9033
 L 17.2217,-35.0922 L 17.4355,-34.6139 L 17.8071,-33.6947 L 18.0246,-33.1567 L 18.2305,-32.5938 L 18.5822,-31.6323
 L 18.7567,-31.1045 L 19.0515,-30.2132 L 19.3556,-29.1941 L 19.5341,-28.5962 L 19.8251,-27.5134 L 19.9955,-26.8795
 L 20.1538,-26.223 L 20.4243,-25.1017 L 20.5705,-24.4232 L 20.8203,-23.2644 L 21.0232,-22.2048 L 21.1434,-21.5772
 L 21.3505,-20.3507 L 21.4718,-19.6324 L 21.6584,-18.3667 L 21.7677,-17.6258 L 21.933,-16.3264 L 22.0298,-15.5658
 L 22.114,-14.786 L 22.2578,-13.454 L 22.3293,-12.6557 L 22.4514,-11.292 L 22.5076,-10.5113 L 22.603,-9.18371
 L 22.6772,-7.83519 L 22.7208,-7.04169 L 22.8097,-4.73806 L 22.8633,-2.39032 L 22.8812,-0 L 22.8633,2.39032
 L 22.8097,4.73806 L 22.7208,7.04169 L 22.6772,7.83519 L 22.603,9.18371 L 22.5076,10.5113 L 22.4514,11.292
 L 22.3293,12.6557 L 22.2578,13.454 L 22.114,14.786 L 22.0298,15.5658 L 21.933,16.3264 L 21.7677,17.6258
 L 21.6584,18.3667 L 21.4718,19.6324 L 21.3505,20.3507 L 21.1434,21.5772 L 21.0232,22.2048 L 20.8203,23.2644
 L 20.5705,24.4232 L 20.4243,25.1017 L 20.1538,26.223 L 19.9955,26.8795 L 19.8251,27.5134 L 19.5341,28.5962
 L 19.3556,29.1941 L 19.0515,30.2132 L 18.7567,31.1045 L 18.5822,31.6323 L 18.2305,32.5938 L 18.0246,33.1567
 L 17.8071,33.6947 L 17.4355,34.6139 L 17.2217,35.0922 L 16.8593,35.9033 L 16.4803,36.6701 L 16.2568,37.1224
 L 15.6308,38.2691 L 15.4076,38.6415 L 15.0292,39.273 L 14.653,39.8431 L 14.4303,40.1807 L 13.7366,41.1319
 L 13.5095,41.4124 L 13.1283,41.8835 L 12.6782,42.3824 L 12.4137,42.6757 L 12.1593,42.9274 L 11.7299,43.3523
 L 11.4603,43.5892 L 11.0041,43.9899 L 10.7295,44.2027 L 10.2656,44.5621 L 9.97991,44.7559 L 9.49717,45.0833
 L 9.20541,45.2549 L 8.71322,45.5444 L 8.40428,45.7002 L 7.88183,45.9638 L 7.66306,46.0572 L 7.43264,46.1555
 L 7.04598,46.3205 L 6.71206,46.439 L 6.14686,46.6394 L 5.8066,46.7373 L 5.2317,46.9028 L 4.87826,46.9826
 L 4.28085,47.1175 L 3.89239,47.1829 L 3.23148,47.2943 L 2.87347,47.3356 L 2.27225,47.405 L 1.10142,47.4829
 L 0.692306,47.4916 L 0,47.5063 L -0.692306,47.4916 L -1.10142,47.4829 L -2.27225,47.405 L -2.87347,47.3356
 L -3.23148,47.2943 L -3.89239,47.1829 L -4.28085,47.1175 L -4.87826,46.9826 L -5.2317,46.9028 L -5.8066,46.7373
 L -6.14686,46.6394 L -6.71206,46.439 L -7.04598,46.3205 L -7.57062,46.0966 L -7.88183,45.9638 L -8.40428,45.7002
 L -8.71322,45.5444 L -9.20541,45.2549 L -9.49717,45.0833 L -9.97991,44.7559 L -10.2656,44.5621 L -10.7295,44.2027
 L -11.0041,43.9899 L -11.4603,43.5892 L -11.7299,43.3523 L -12.1593,42.9274 L -12.4137,42.6757 L -12.6782,42.3824
 L -13.1283,41.8835 L -13.5095,41.4124 L -13.7366,41.1319 L -14.4303,40.1807 L -14.653,39.8431 L -15.0292,39.273
 L -15.4076,38.6415 L -15.6308,38.2691 L -16.2568,37.1224 L -16.4803,36.6701 L -16.8593,35.9033 L -17.2217,35.0922
 L -17.4355,34.6139 L -17.8071,33.6947 L -18.0246,33.1567 L -18.2305,32.5938 L -18.5822,31.6323 L -18.7567,31.1045
 L -19.0515,30.2132 L -19.3556,29.1941 L -19.5341,28.5962 L -19.8251,27.5134 L -19.9955,26.8795 L -20.1538,26.223
 L -20.4243,25.1017 L -20.5705,24.4232 L -20.8203,23.2644 L -21.0232,22.2048 L -21.1434,21.5772 L -21.3505,20.3507
 L -21.4718,19.6324 L -21.6584,18.3667 L -21.7677,17.6258 L -21.933,16.3264 L -22.0298,15.5658 L -22.114,14.786
 L -22.2578,13.454 L -22.3293,12.6557 L -22.4514,11.292 L -22.5076,10.5113 L -22.603,9.18371 L -22.6772,7.83519
 L -22.7208,7.04169 L -22.8097,4.73806 L -22.8633,2.39032 z
M -1,61 L -0.992114,60.8747 L -0.968583,60.7513 L -0.929776,60.6319 L -0.876307,60.5182 L -0.809016,60.4122
 L -0.728969,60.3155 L -0.637424,60.2295 L -0.535827,60.1557 L -0.425778,60.0952 L -0.309016,60.0489 L -0.187381,60.0177
 L -0.0627899,60.002 L 0.0627899,60.002 L 0.187381,60.0177 L 0.309016,60.0489 L 0.425778,60.0952 L 0.535827,60.1557
 L 0.637424,60.2295 L 0.728969,60.3155 L 0.809016,60.4122 L 0.876307,60.5182 L 0.929776,60.6319 L 0.968583,60.7513
 L 0.992114,60.8747 L 1,61 L 0.992114,61.1253 L 0.968583,61.2487 L 0.929776,61.3681 L 0.876307,61.4818
 L 0.809016,61.5878 L 0.728969,61.6845 L 0.637424,61.7705 L 0.535827,61.8443 L 0.425778,61.9048 L 0.309016,61.9511
 L 0.187381,61.9823 L 0.0627899,61.998 L -0.0627899,61.998 L -0.187381,61.9823 L -0.309016,61.9511 L -0.425778,61.9048
 L -0.535827,61.8443 L -0.637424,61.7705 L -0.728969,61.6845 L -0.809016,61.5878 L -0.876307,61.4818 L -0.929776,61.3681
 L -0.968583,61.2487 L -0.992114,61.1253 z
M -1,-61 L -0.992114,-61.1253 L -0.968583,-61.2487 L -0.929776,-61.3681 L -0.876307,-61.4818 L -0.809016,-61.5878
 L -0.728969,-61.6845 L -0.637424,-61.7705 L -0.535827,-61.8443 L -0.425778,-61.9048 L -0.309016,-61.9511 L -0.187381,-61.9823
 L -0.0627899,-61.998 L 0.0627899,-61.998 L 0.187381,-61.9823 L 0.309016,-61.9511 L 0.425778,-61.9048 L 0.535827,-61.8443
 L 0.637424,-61.7705 L 0.728969,-61.6845 L 0.809016,-61.5878 L 0.876307,-61.4818 L 0.929776,-61.3681 L 0.968583,-61.2487
 L 0.992114,-61.1253 L 1,-61 L 0.992114,-60.8747 L 0.968583,-60.7513 L 0.929776,-60.6319 L 0.876307,-60.5182
 L 0.809016,-60.4122 L 0.728969,-60.3155 L 0.637424,-60.2295 L 0.535827,-60.1557 L 0.425778,-60.0952 L 0.309016,-60.0489
 L 0.187381,-60.0177 L 0.0627899,-60.002 L -0.0627899,-60.002 L -0.187381,-60.0177 L -0.309016,-60.0489 L -0.425778,-60.0952
 L -0.535827,-60.1557 L -0.637424,-60.2295 L -0.728969,-60.3155 L -0.809016,-60.4122 L -0.876307,-60.5182 L -0.929776,-60.6319
 L -0.968583,-60.7513 L -0.992114,-60.8747 z
M 36,-0 L 36.0079,-0.125333 L 36.0314,-0.24869 L 36.0702,-0.368124 L 36.1237,-0.481753 L 36.191,-0.587785
 L 36.271,-0.684546 L 36.3626,-0.770513 L 36.4642,-0.844327 L 36.5742,-0.904826 L 36.691,-0.951056 L 36.8126,-0.982286
 L 36.9372,-0.998026 L 37.0628,-0.998026 L 37.1874,-0.982286 L 37.309,-0.951056 L 37.4258,-0.904826 L 37.5358,-0.844327
 L 37.6374,-0.770513 L 37.729,-0.684546 L 37.809,-0.587785 L 37.8763,-0.481753 L 37.9298,-0.368124 L 37.9686,-0.24869
 L 37.9921,-0.125333 L 38,-0 L 37.9921,0.125333 L 37.9686,0.24869 L 37.9298,0.368124 L 37.8763,0.481753
 L 37.809,0.587785 L 37.729,0.684546 L 37.6374,0.770513 L 37.5358,0.844327 L 37.4258,0.904826 L 37.309,0.951056
 L 37.1874,0.982286 L 37.0628,0.998026 L 36.9372,0.998026 L 36.8126,0.982286 L 36.691,0.951056 L 36.5742,0.904826
 L 36.4642,0.844327 L 36.3626,0.770513 L 36.271,0.684546 L 36.191,0.587785 L 36.1237,0.481753 L 36.0702,0.368124
 L 36.0314,0.24869 L 36.0079,0.125333 z
" stroke="black" fill="lightgray" stroke-width="0.5"/>
</svg>
