<?xml version="1.0" standalone="no"?>
<!DOCTYPE svg PUBLIC "-//W3C//DTD SVG 1.1//EN" "http://www.w3.org/Graphics/SVG/1.1/DTD/svg11.dtd">
<svg width="102mm" height="152mm" viewBox="-51 -76 102 152" xmlns="http://www.w3.org/2000/svg" version="1.1">
<title>OpenSCAD Model</title>
<path d="
M -50.9908,73.872 L -50.9889,73.9016 L -50.9849,73.9651 L -50.977,74.0904 L -50.9535,74.2138 L -50.9416,74.2763
 L -50.936,74.3054 L -50.8972,74.4248 L -50.8881,74.453 L -50.8684,74.5136 L -50.8558,74.5404 L -50.8287,74.598
 L -50.7752,74.7116 L -50.7411,74.7653 L -50.6738,74.8714 L -50.6579,74.8964 L -50.6391,74.9192 L -50.559,75.016
 L -50.5184,75.065 L -50.4968,75.0853 L -50.4053,75.1713 L -50.3589,75.2148 L -50.2573,75.2887 L -50.2333,75.3061
 L -50.1818,75.3435 L -50.126,75.3742 L -50.1001,75.3884 L -49.99,75.4489 L -49.8733,75.4952 L -49.8141,75.5186
 L -49.7865,75.5295 L -49.7249,75.5453 L -49.6962,75.5527 L -49.5746,75.5839 L -49.5452,75.5876 L -49.482,75.5956
 L -49.3574,75.6113 L -24.5146,75.6113 L -24.39,75.5956 L -24.3268,75.5876 L -24.2974,75.5839 L -24.1758,75.5527
 L -24.1471,75.5453 L -24.0854,75.5295 L -24.0579,75.5186 L -23.9987,75.4952 L -23.882,75.4489 L -23.7719,75.3884
 L -23.746,75.3742 L -23.6902,75.3435 L -23.6387,75.3061 L -23.6147,75.2887 L -23.5131,75.2148 L -23.4667,75.1713
 L -23.3752,75.0853 L -23.3536,75.065 L -23.313,75.016 L -23.2329,74.9192 L -23.2141,74.8964 L -23.1982,74.8714
 L -23.1309,74.7653 L -23.0968,74.7116 L -23.0433,74.598 L -23.0162,74.5404 L -23.0036,74.5136 L -22.9839,74.453
 L -22.9748,74.4248 L -22.936,74.3054 L -22.9304,74.2763 L -22.9185,74.2138 L -22.895,74.0904 L -22.8871,73.9651
 L -22.8831,73.9016 L -22.8812,73.872 L -22.8812,10.9733 L -1.22543,10.9733 L 21.6356,74.5136 L 21.6482,74.5404
 L 21.6753,74.598 L 21.7288,74.7116 L 21.7629,74.7653 L 21.8302,74.8714 L 21.8461,74.8964 L 21.8649,74.9192
 L 21.945,75.016 L 21.9856,75.065 L 22.0072,75.0853 L 22.0987,75.1713 L 22.1451,75.2148 L 22.2467,75.2887
 L 22.2707,75.3061 L 22.3222,75.3435 L 22.378,75.3742 L 22.4039,75.3884 L 22.514,75.4489 L 22.6307,75.4952
 L 22.6899,75.5186 L 22.7174,75.5295 L 22.7791,75.5453 L 22.8078,75.5527 L 22.9294,75.5839 L 22.9588,75.5876
 L 23.022,75.5956 L 23.1466,75.6113 L 49.3574,75.6113 L 49.482,75.5956 L 49.5452,75.5876 L 49.5746,75.5839
 L 49.6962,75.5527 L 49.7249,75.5453 L 49.7865,75.5295 L 49.8141,75.5186 L 49.8733,75.4952 L 49.99,75.4489
 L 50.1001,75.3884 L 50.126,75.3742 L 50.1818,75.3435 L 50.2333,75.3061 L 50.2573,75.2887 L 50.3589,75.2148
 L 50.4053,75.1713 L 50.4968,75.0853 L 50.5184,75.065 L 50.559,75.016 L 50.6391,74.9192 L 50.6579,74.8964
 L 50.6738,74.8714 L 50.7411,74.7653 L 50.7752,74.7116 L 50.8287,74.598 L 50.8558,74.5404 L 50.8684,74.5136
 L 50.8881,74.453 L 50.8972,74.4248 L 50.936,74.3054 L 50.9416,74.2763 L 50.9535,74.2138 L 50.977,74.0904
 L 50.9849,73.9651 L 50.9889,73.9016 L 50.9908,73.872 L 50.9889,73.8424 L 50.9849,73.7789 L 50.977,73.6536
 L 50.9535,73.5302 L 50.9416,73.4677 L 50.936,73.4386 L 50.8972,73.3192 L 50.8881,73.291 L 50.8684,73.2304
 L 27.7145,8.59244 L 26.7809,5.98604 L 27.4891,5.62517 L 27.5991,5.56467 L 27.6251,5.5504 L 27.6809,5.51973
 L 29.7377,4.32923 L 31.7238,3.03407 L 31.7753,2.99665 L 31.7993,2.97925 L 31.9009,2.90543 L 33.8116,1.50973
 L 35.6422,0.0175903 L 37.3882,-1.56689 L 37.4346,-1.61048 L 37.5262,-1.69644 L 37.5477,-1.71671 L 39.2045,-3.38943
 L 40.7673,-5.14629 L 40.8079,-5.19534 L 40.888,-5.29211 L 40.9068,-5.31493 L 42.3712,-7.15181 L 43.7324,-9.06462
 L 43.7483,-9.08962 L 43.8156,-9.19565 L 43.8497,-9.24941 L 45.1032,-11.234 L 46.2444,-13.2864 L 46.8562,-14.5504
 L 46.8844,-14.6086 L 46.9673,-14.7799 L 47.1026,-15.0594 L 47.2686,-15.4023 L 47.3221,-15.516 L 47.3492,-15.5736
 L 47.3618,-15.6004 L 47.3784,-15.6404 L 47.5781,-16.1218 L 47.8167,-16.6968 L 48.0921,-17.3606 L 48.2644,-17.7758
 L 48.3801,-18.1082 L 48.6678,-18.9349 L 48.9813,-19.8357 L 49.0408,-20.0067 L 49.0605,-20.0672 L 49.0697,-20.0954
 L 49.1085,-20.2148 L 49.3345,-21.0139 L 49.6271,-22.0483 L 49.7541,-22.497 L 49.8954,-23.1422 L 50.147,-24.2908
 L 50.2643,-24.8264 L 50.2698,-24.8555 L 50.2817,-24.918 L 50.3053,-25.0413 L 50.4087,-25.7041 L 50.6026,-26.9473
 L 50.6754,-27.4138 L 50.7518,-28.2305 L 50.875,-29.5489 L 50.9009,-29.8252 L 50.9087,-29.9506 L 50.9127,-30.0141
 L 50.9146,-30.0437 L 50.948,-31.116 L 50.9908,-32.49 L 50.9307,-33.8615 L 50.8718,-35.2031 L 50.8416,-35.892
 L 50.8398,-35.9216 L 50.8358,-35.9851 L 50.8279,-36.1104 L 50.7463,-36.7287 L 50.5789,-37.9971 L 50.4172,-39.2225
 L 50.3891,-39.4352 L 50.3656,-39.5586 L 50.3537,-39.6211 L 50.3481,-39.6502 L 50.1349,-40.6153 L 49.8861,-41.7414
 L 49.6497,-42.8113 L 49.6329,-42.8873 L 49.3419,-43.8207 L 49.0474,-44.7652 L 48.7745,-45.6404 L 48.6542,-46.0261
 L 48.6154,-46.1455 L 48.6062,-46.1737 L 48.5866,-46.2343 L 48.4179,-46.6501 L 48.1244,-47.3738 L 47.8643,-48.0151
 L 47.6393,-48.5697 L 47.4513,-49.0332 L 47.3576,-49.2643 L 47.3449,-49.2911 L 47.3178,-49.3487 L 47.2644,-49.4624
 L 47.1954,-49.5993 L 47.0602,-49.8677 L 46.9775,-50.0319 L 46.9494,-50.0876 L 45.7981,-52.3732 L 44.1076,-55.1542
 L 44.0735,-55.2079 L 44.0062,-55.314 L 43.9904,-55.339 L 42.0888,-57.9797 L 42.0699,-58.0025 L 41.9899,-58.0993
 L 41.9493,-58.1483 L 39.8497,-60.6382 L 37.5652,-62.9668 L 37.5436,-62.987 L 37.4521,-63.073 L 37.4056,-63.1166
 L 34.9493,-65.2733 L 32.3341,-67.2476 L 32.2325,-67.3214 L 32.2086,-67.3388 L 32.1571,-67.3762 L 29.3962,-69.1577
 L 29.3404,-69.1884 L 29.3145,-69.2026 L 29.2044,-69.2631 L 26.311,-70.8412 L 23.298,-72.2053 L 23.1812,-72.2515
 L 23.1221,-72.2749 L 23.0945,-72.2858 L 19.9751,-73.4255 L 16.7623,-74.3302 L 16.7006,-74.3461 L 16.672,-74.3534
 L 16.5503,-74.3846 L 13.2572,-75.0439 L 13.2279,-75.0476 L 13.1647,-75.0556 L 13.0401,-75.0713 L 9.67982,-75.4746
 L 6.26543,-75.6113 L -49.3574,-75.6113 L -49.482,-75.5956 L -49.5452,-75.5876 L -49.5746,-75.5839 L -49.6962,-75.5527
 L -49.7249,-75.5453 L -49.7865,-75.5295 L -49.8141,-75.5186 L -49.8733,-75.4952 L -49.99,-75.4489 L -50.1001,-75.3884
 L -50.126,-75.3742 L -50.1818,-75.3435 L -50.2333,-75.3061 L -50.2573,-75.2887 L -50.3589,-75.2148 L -50.4053,-75.1713
 L -50.4968,-75.0853 L -50.5184,-75.065 L -50.559,-75.016 L -50.6391,-74.9192 L -50.6579,-74.8964 L -50.6738,-74.8714
 L -50.7411,-74.7653 L -50.7752,-74.7116 L -50.8287,-74.598 L -50.8558,-74.5404 L -50.8684,-74.5136 L -50.8881,-74.453
 L -50.8972,-74.4248 L -50.936,-74.3054 L -50.9416,-74.2763 L -50.9535,-74.2138 L -50.977,-74.0904 L -50.9849,-73.9651
 L -50.9889,-73.9016 L -50.9908,-73.872 z
M -37,61 L -36.9921,60.8747 L -36.9686,60.7513 L -36.9298,60.6319 L -36.8763,60.5182 L -36.809,60.4122
 L -36.729,60.3155 L -36.6374,60.2295 L -36.5358,60.1557 L -36.4258,60.0952 L -36.309,60.0489 L -36.1874,60.0177
 L -36.0628,60.002 L -35.9372,60.002 L -35.8126,60.0177 L -35.691,60.0489 L -35.5742,60.0952 L -35.4642,60.1557
 L -35.3626,60.2295 L -35.271,60.3155 L -35.191,60.4122 L -35.1237,60.5182 L -35.0702,60.6319 L -35.0314,60.7513
 L -35.0079,60.8747 L -35,61 L -35.0079,61.1253 L -35.0314,61.2487 L -35.0702,61.3681 L -35.1237,61.4818
 L -35.191,61.5878 L -35.271,61.6845 L -35.3626,61.7705 L -35.4642,61.8443 L -35.5742,61.9048 L -35.691,61.9511
 L -35.8126,61.9823 L -35.9372,61.998 L -36.0628,61.998 L -36.1874,61.9823 L -36.309,61.9511 L -36.4258,61.9048
 L -36.5358,61.8443 L -36.6374,61.7705 L -36.729,61.6845 L -36.809,61.5878 L -36.8763,61.4818 L -36.9298,61.3681
 L -36.9686,61.2487 L -36.9921,61.1253 z
M -37,-61 L -36.9921,-61.1253 L -36.9686,-61.2487 L -36.9298,-61.3681 L -36.8763,-61.4818 L -36.809,-61.5878
 L -36.729,-61.6845 L -36.6374,-61.7705 L -36.5358,-61.8443 L -36.4258,-61.9048 L -36.309,-61.9511 L -36.1874,-61.9823
 L -36.0628,-61.998 L -35.9372,-61.998 L -35.8126,-61.9823 L -35.691,-61.9511 L -35.5742,-61.9048 L -35.4642,-61.8443
 L -35.3626,-61.7705 L -35.271,-61.6845 L -35.191,-61.5878 L -35.1237,-61.4818 L -35.0702,-61.3681 L -35.0314,-61.2487
 L -35.0079,-61.1253 L -35,-61 L -35.0079,-60.8747 L -35.0314,-60.7513 L -35.0702,-60.6319 L -35.1237,-60.5182
 L -35.191,-60.4122 L -35.271,-60.3155 L -35.3626,-60.2295 L -35.4642,-60.1557 L -35.5742,-60.0952 L -35.691,-60.0489
 L -35.8126,-60.0177 L -35.9372,-60.002 L -36.0628,-60.002 L -36.1874,-60.0177 L -36.309,-60.0489 L -36.4258,-60.0952
 L -36.5358,-60.1557 L -36.6374,-60.2295 L -36.729,-60.3155 L -36.809,-60.4122 L -36.8763,-60.5182 L -36.9298,-60.6319
 L -36.9686,-60.7513 L -36.9921,-60.8747 z
M -22.8812,-17.1293 L -22.8812,-47.5087 L 6.04657,-47.5087 L 7.43051,-47.4529 L 8.61023,-47.3123 L 9.90569,-47.0573
 L 11.084,-46.7341 L 12.3045,-46.3038 L 13.4752,-45.7966 L 14.5899,-45.2194 L 15.712,-44.5371 L 16.7019,-43.8377
 L 17.7386,-42.9916 L 18.5854,-42.1943 L 19.4661,-41.2351 L 20.2165,-40.2836 L 20.8849,-39.2849 L 21.4896,-38.2005
 L 21.9694,-37.1371 L 22.356,-36.0279 L 22.6457,-34.8604 L 22.8225,-33.6723 L 22.8812,-32.49 L 22.8225,-31.3048
 L 22.6451,-30.107 L 22.354,-28.9238 L 21.9694,-27.8073 L 21.4826,-26.7126 L 20.8732,-25.6007 L 20.2165,-24.6
 L 19.4444,-23.5991 L 18.5854,-22.6403 L 17.7066,-21.7905 L 16.6696,-20.9193 L 15.7084,-20.219 L 14.5506,-19.4916
 L 13.4752,-18.9153 L 12.2681,-18.373 L 11.084,-17.9394 L 9.87824,-17.5955 L 8.5956,-17.3325 L 7.43051,-17.1875
 L 6.04657,-17.1293 z
M 31,61 L 31.0079,60.8747 L 31.0314,60.7513 L 31.0702,60.6319 L 31.1237,60.5182 L 31.191,60.4122
 L 31.271,60.3155 L 31.3626,60.2295 L 31.4642,60.1557 L 31.5742,60.0952 L 31.691,60.0489 L 31.8126,60.0177
 L 31.9372,60.002 L 32.0628,60.002 L 32.1874,60.0177 L 32.309,60.0489 L 32.4258,60.0952 L 32.5358,60.1557
 L 32.6374,60.2295 L 32.729,60.3155 L 32.809,60.4122 L 32.8763,60.5182 L 32.9298,60.6319 L 32.9686,60.7513
 L 32.9921,60.8747 L 33,61 L 32.9921,61.1253 L 32.9686,61.2487 L 32.9298,61.3681 L 32.8763,61.4818
 L 32.809,61.5878 L 32.729,61.6845 L 32.6374,61.7705 L 32.5358,61.8443 L 32.4258,61.9048 L 32.309,61.9511
 L 32.1874,61.9823 L 32.0628,61.998 L 31.9372,61.998 L 31.8126,61.9823 L 31.691,61.9511 L 31.5742,61.9048
 L 31.4642,61.8443 L 31.3626,61.7705 L 31.271,61.6845 L 31.191,61.5878 L 31.1237,61.4818 L 31.0702,61.3681
 L 31.0314,61.2487 L 31.0079,61.1253 z
M 35,-33 L 35.0079,-33.1253 L 35.0314,-33.2487 L 35.0702,-33.3681 L 35.1237,-33.4818 L 35.191,-33.5878
 L 35.271,-33.6845 L 35.3626,-33.7705 L 35.4642,-33.8443 L 35.5742,-33.9048 L 35.691,-33.9511 L 35.8126,-33.9823
 L 35.9372,-33.998 L 36.0628,-33.998 L 36.1874,-33.9823 L 36.309,-33.9511 L 36.4258,-33.9048 L 36.5358,-33.8443
 L 36.6374,-33.7705 L 36.729,-33.6845 L 36.809,-33.5878 L 36.8763,-33.4818 L 36.9298,-33.3681 L 36.9686,-33.2487
 L 36.9921,-33.1253 L 37,-33 L 36.9921,-32.8747 L 36.9686,-32.7513 L 36.9298,-32.6319 L 36.8763,-32.5182
 L 36.809,-32.4122 L 36.729,-32.3155 L 36.6374,-32.2295 L 36.5358,-32.1557 L 36.4258,-32.0952 L 36.309,-32.0489
 L 36.1874,-32.0177 L 36.0628,-32.002 L 35.9372,-32.002 L 35.8126,-32.0177 L 35.691,-32.0489 L 35.5742,-32.0952
 L 35.4642,-32.1557 L 35.3626,-32.2295 L 35.271,-32.3155 L 35.191,-32.4122 L 35.1237,-32.5182 L 35.0702,-32.6319
 L 35.0314,-32.7513 L 35.0079,-32.8747 z
" stroke="black" fill="lightgray" stroke-width="0.5"/>
</svg>
