<?xml version="1.0" standalone="no"?>
<!DOCTYPE svg PUBLIC "-//W3C//DTD SVG 1.1//EN" "http://www.w3.org/Graphics/SVG/1.1/DTD/svg11.dtd">
<svg width="102mm" height="152mm" viewBox="-51 -76 102 152" xmlns="http://www.w3.org/2000/svg" version="1.1">
<title>OpenSCAD Model</title>
<path d="
M -50.9908,24.624 L -50.9076,26.6545 L -50.8263,28.6377 L -50.8262,28.6386 L -50.8244,28.6682 L -50.8204,28.7317
 L -50.8175,28.778 L -50.8125,28.857 L -50.6624,30.0738 L -50.5745,30.786 L -50.4289,31.9658 L -50.3437,32.6564
 L -50.3335,32.7386 L -50.3276,32.7867 L -50.3127,32.8646 L -50.3041,32.9101 L -50.2921,32.9726 L -50.2866,33.0017
 L -50.1587,33.62 L -49.9404,34.6762 L -49.5821,36.4091 L -49.5497,36.5658 L -49.4944,36.8335 L -49.2677,37.6096
 L -49.1351,38.064 L -48.8458,39.0548 L -48.6764,39.6348 L -48.5071,40.2147 L -48.408,40.5541 L -48.3835,40.6295
 L -48.3692,40.6736 L -48.36,40.7017 L -48.3403,40.7623 L -48.2615,40.9695 L -48.1269,41.3235 L -47.9326,41.8346
 L -47.6007,42.7076 L -47.1134,43.989 L -47.0615,44.1256 L -46.9728,44.3588 L -46.9602,44.3856 L -46.9331,44.4432
 L -46.8796,44.5568 L -46.5,45.3598 L -46.3153,45.7504 L -45.9998,46.4176 L -45.8363,46.7635 L -45.5569,47.3543
 L -45.244,48.0161 L -45.1908,48.1093 L -45.1596,48.1638 L -44.7733,48.84 L -44.4668,49.3766 L -44.2434,49.7675
 L -44.1573,49.9183 L -44.1068,50.0065 L -44.0776,50.0577 L -44.0605,50.0876 L -43.3535,51.3251 L -43.3194,51.3788
 L -43.2946,51.418 L -43.2521,51.4849 L -43.2362,51.5099 L -41.1038,54.6555 L -38.7426,57.6246 L -38.7237,57.6474
 L -38.6733,57.7084 L -38.6437,57.7441 L -38.6031,57.7932 L -36.0262,60.5728 L -36.0046,60.593 L -35.9469,60.6473
 L -35.9131,60.679 L -35.8666,60.7226 L -34.8403,61.6741 L -33.0871,63.2995 L -31.2143,64.7888 L -30.118,65.6607
 L -30.0539,65.7073 L -30.0164,65.7345 L -29.9924,65.752 L -29.9409,65.7894 L -26.7953,67.9218 L -23.4863,69.8123
 L -23.4305,69.843 L -23.4046,69.8573 L -23.2945,69.9178 L -19.8353,71.5533 L -19.7185,71.5996 L -19.6593,71.623
 L -19.6318,71.6339 L -16.0353,73.0014 L -12.3146,74.0878 L -12.2529,74.1037 L -12.2242,74.111 L -12.1026,74.1423
 L -8.27088,74.9345 L -8.2415,74.9382 L -8.17833,74.9461 L -8.05374,74.9619 L -4.12404,75.4468 L -0.109429,75.6113
 L 0.109429,75.6113 L 2.05335,75.5781 L 3.98497,75.479 L 5.90222,75.3147 L 7.80306,75.086 L 7.92765,75.0703
 L 7.99081,75.0623 L 8.02019,75.0586 L 9.90256,74.7663 L 11.7644,74.4112 L 13.6037,73.994 L 13.7253,73.9628
 L 13.754,73.9554 L 13.8157,73.9396 L 15.6303,73.4611 L 17.4183,72.922 L 19.1775,72.3232 L 20.2678,71.9083
 L 20.906,71.6654 L 20.9335,71.6545 L 20.9927,71.6311 L 21.1095,71.5849 L 22.8051,70.8689 L 24.4659,70.0954
 L 26.0897,69.2652 L 26.1998,69.2047 L 26.2257,69.1904 L 26.2815,69.1598 L 27.8663,68.2737 L 29.4101,67.3325
 L 30.9108,66.3369 L 31.8289,65.6751 L 32.3664,65.2877 L 32.4179,65.2502 L 32.4418,65.2328 L 32.4793,65.2056
 L 32.5434,65.159 L 33.0635,64.7521 L 33.9518,64.057 L 34.809,63.329 L 35.3109,62.9028 L 36.7163,61.5949
 L 36.7628,61.5514 L 36.7966,61.5196 L 36.8543,61.4654 L 36.8759,61.4451 L 38.2187,60.0875 L 39.498,58.6816
 L 40.7126,57.229 L 40.7532,57.18 L 40.7827,57.1442 L 40.8332,57.0832 L 40.8521,57.0604 L 42.0011,55.5627
 L 43.0833,54.0214 L 44.0979,52.438 L 44.1137,52.413 L 44.1562,52.3461 L 44.181,52.307 L 44.2151,52.2532
 L 45.1609,50.6293 L 45.4463,50.0876 L 45.4734,50.0362 L 45.555,49.8814 L 45.641,49.718 L 45.6914,49.6224
 L 45.8831,49.2586 L 46.037,48.9664 L 46.09,48.8546 L 46.121,48.7891 L 46.3937,48.2131 L 46.7173,47.5299
 L 46.8422,47.2661 L 46.8759,47.1944 L 46.8957,47.1525 L 46.9228,47.0949 L 46.9354,47.0681 L 47.1582,46.5407
 L 47.2985,46.2084 L 47.5383,45.6408 L 47.6688,45.3318 L 47.8337,44.89 L 47.9302,44.6313 L 48.182,43.9563
 L 48.3294,43.5612 L 48.3396,43.5299 L 48.3455,43.5116 L 48.7459,42.2807 L 48.9161,41.7577 L 48.9358,41.6972
 L 48.9449,41.669 L 48.9592,41.6249 L 48.9837,41.5496 L 49.0682,41.2469 L 49.2124,40.7299 L 49.3169,40.3551
 L 49.4955,39.7148 L 49.5984,39.2747 L 49.8085,38.3763 L 49.9314,37.8504 L 49.937,37.8213 L 49.9489,37.7587
 L 49.9576,37.7132 L 49.9724,37.6354 L 49.9998,37.4911 L 50.3189,35.8083 L 50.3313,35.7427 L 50.5849,34.0106
 L 50.6123,33.8233 L 50.7916,32.0973 L 50.8142,31.8787 L 50.8192,31.7997 L 50.8221,31.7534 L 50.8261,31.6899
 L 50.828,31.6603 L 50.8694,30.9915 L 50.9402,29.849 L 50.9438,29.7911 L 50.9499,29.6922 L 50.9908,27.702
 L 50.9582,26.2644 L 50.9497,25.8899 L 50.9447,25.6706 L 50.9428,25.6411 L 50.9388,25.5775 L 50.9359,25.5313
 L 50.931,25.4522 L 50.9118,25.1759 L 50.8791,24.7038 L 50.8473,24.2455 L 50.793,23.4627 L 50.7925,23.4579
 L 50.7915,23.4498 L 50.6534,22.277 L 50.5638,21.5157 L 50.528,21.3027 L 50.507,21.1779 L 50.3976,20.5268
 L 50.3335,20.1456 L 50.2769,19.8091 L 50.2438,19.6121 L 50.2289,19.5343 L 50.2203,19.4887 L 50.2083,19.4262
 L 50.2028,19.3971 L 50.167,19.2349 L 50.1058,18.9578 L 50.0308,18.6179 L 49.9027,18.0373 L 49.862,17.8528
 L 49.7925,17.5376 L 49.7272,17.3007 L 49.6889,17.162 L 49.5434,16.6338 L 49.4582,16.3246 L 49.3536,15.9451
 L 49.2924,15.723 L 49.2679,15.6477 L 49.2536,15.6036 L 49.2444,15.5754 L 49.2247,15.5149 L 49.1995,15.4392
 L 49.1564,15.3098 L 49.0601,15.0207 L 48.8956,14.5268 L 48.8013,14.2438 L 48.6402,13.7602 L 48.6384,13.7549
 L 48.6354,13.7459 L 48.3429,13.0029 L 48.0455,12.2476 L 47.9573,12.0234 L 47.712,11.4871 L 47.3585,10.7144
 L 47.191,10.348 L 47.1783,10.3213 L 47.1512,10.2636 L 47.0978,10.15 L 46.8742,9.7241 L 46.4445,8.90518
 L 46.2437,8.52266 L 45.7199,7.64418 L 45.4782,7.23878 L 45.3024,6.94403 L 45.2683,6.89027 L 45.201,6.78424
 L 45.1852,6.75924 L 44.1572,5.23011 L 43.0431,3.75126 L 43.0242,3.72844 L 42.9441,3.63168 L 42.9035,3.58262
 L 41.7037,2.15481 L 40.4187,0.778825 L 39.0491,-0.544589 L 39.0275,-0.564863 L 38.936,-0.650829 L 38.8896,-0.69441
 L 37.4358,-1.96446 L 35.8984,-3.1804 L 35.7968,-3.25422 L 35.7729,-3.27162 L 35.7214,-3.30904 L 34.1009,-4.47009
 L 33.472,-4.87826 L 32.3978,-5.57548 L 31.5486,-6.08047 L 31.0515,-6.3761 L 29.6813,-7.13774 L 29.6255,-7.16841
 L 29.5996,-7.18267 L 29.4895,-7.24317 L 28.0973,-7.96787 L 26.6848,-8.65769 L 25.2538,-9.31467 L 23.8062,-9.94087
 L 22.3437,-10.5383 L 22.2269,-10.5846 L 22.1677,-10.608 L 22.1402,-10.6189 L 20.6646,-11.1897 L 19.1777,-11.7359
 L 17.6813,-12.2595 L 16.1772,-12.7626 L 14.6673,-13.2472 L 13.1532,-13.7154 L 11.6368,-14.1692 L 10.1199,-14.6107
 L 8.60428,-15.042 L 7.09174,-15.465 L 5.58407,-15.882 L 4.08308,-16.2947 L 2.59055,-16.7055 L 0.628802,-17.2416
 L -0.519638,-17.5554 L -2.33141,-18.066 L -3.39205,-18.3649 L -6.03516,-19.1394 L -8.45741,-19.8847 L -10.6673,-20.6064
 L -12.6733,-21.3102 L -13.296,-21.548 L -14.3518,-21.9512 L -15.3291,-22.3634 L -15.9038,-22.6058 L -17.3488,-23.2896
 L -18.0418,-23.6637 L -18.4535,-23.886 L -19.1242,-24.3069 L -19.5185,-24.5543 L -20.026,-24.932 L -20.3284,-25.157
 L -20.7559,-25.5428 L -21.0108,-25.7728 L -21.3553,-26.1599 L -21.5614,-26.3916 L -21.8293,-26.7782 L -21.9905,-27.0107
 L -22.1963,-27.408 L -22.3203,-27.6475 L -22.4743,-28.0684 L -22.5671,-28.3219 L -22.6759,-28.7828 L -22.7412,-29.0593
 L -22.7808,-29.3704 L -22.8473,-29.8929 L -22.86,-30.224 L -22.8812,-30.78 L -22.8353,-31.8322 L -22.8081,-32.4543
 L -22.7274,-33.0503 L -22.5906,-34.0601 L -22.4609,-34.6157 L -22.2416,-35.556 L -22.07,-36.063 L -21.7806,-36.9182
 L -21.4186,-37.7194 L -21.2039,-38.1943 L -20.766,-38.9551 L -20.5069,-39.4052 L -20.2087,-39.8242 L -19.7044,-40.5327
 L -19.3764,-40.9127 L -18.8227,-41.5542 L -18.4657,-41.8997 L -17.8635,-42.4823 L -17.4583,-42.8121 L -16.7711,-43.3714
 L -16.3494,-43.6611 L -15.6362,-44.151 L -15.1914,-44.4086 L -14.4395,-44.8442 L -13.9472,-45.0835 L -13.1099,-45.4904
 L -12.6397,-45.6803 L -11.8475,-46.0001 L -11.3047,-46.1791 L -10.3787,-46.4844 L -9.88214,-46.6145 L -9.04546,-46.8338
 L -8.47711,-46.947 L -7.50733,-47.1402 L -6.98274,-47.2135 L -6.09653,-47.3375 L -5.12852,-47.4178 L -4.56002,-47.4649
 L -4.01738,-47.4798 L -3.0982,-47.5051 L -2.03583,-47.4627 L -1.41078,-47.4377 L -0.447947,-47.3217 L 0.12277,-47.2529
 L 1.12843,-47.0492 L 1.72035,-46.9293 L 2.27736,-46.7695 L 3.22071,-46.4988 L 4.11449,-46.164 L 4.6432,-45.9659
 L 5.54843,-45.5431 L 6.0811,-45.2942 L 6.88987,-44.8364 L 7.36894,-44.5653 L 8.17203,-44.0245 L 8.64559,-43.7055
 L 9.09642,-43.3484 L 9.86179,-42.7422 L 10.5304,-42.1231 L 10.927,-41.756 L 11.5985,-41.0307 L 11.9936,-40.604
 L 12.5765,-39.868 L 12.9212,-39.4328 L 13.4531,-38.643 L 13.7673,-38.1764 L 14.0555,-37.6673 L 14.5453,-36.802
 L 14.9338,-35.9704 L 15.1643,-35.4768 L 15.5154,-34.5397 L 15.7221,-33.9879 L 15.8838,-33.4245 L 16.1578,-32.4693
 L 16.3492,-31.5243 L 16.4626,-30.9646 L 16.5872,-29.9309 L 16.6605,-29.3225 L 16.7012,-28.3038 L 16.7252,-27.702
 L 16.7271,-27.6724 L 16.7311,-27.6089 L 16.734,-27.5626 L 16.739,-27.4836 L 16.7538,-27.4058 L 16.7625,-27.3602
 L 16.7744,-27.2977 L 16.78,-27.2686 L 16.8188,-27.1492 L 16.8279,-27.121 L 16.8476,-27.0604 L 16.8602,-27.0336
 L 16.8873,-26.976 L 16.9071,-26.9341 L 16.9408,-26.8624 L 16.9749,-26.8087 L 16.9997,-26.7695 L 17.0422,-26.7026
 L 17.0581,-26.6776 L 17.0769,-26.6548 L 17.1274,-26.5938 L 17.157,-26.558 L 17.1976,-26.509 L 17.2192,-26.4887
 L 17.2769,-26.4345 L 17.3107,-26.4027 L 17.3571,-26.3592 L 17.4587,-26.2853 L 17.4827,-26.2679 L 17.5342,-26.2305
 L 17.59,-26.1998 L 17.6159,-26.1856 L 17.726,-26.1251 L 17.8427,-26.0788 L 17.9019,-26.0554 L 17.9294,-26.0445
 L 17.9911,-26.0287 L 18.0198,-26.0213 L 18.1414,-25.9901 L 18.1708,-25.9864 L 18.234,-25.9784 L 18.3586,-25.9627
 L 43.2014,-25.9627 L 43.28,-25.9726 L 43.326,-25.9784 L 43.3892,-25.9864 L 43.4186,-25.9901 L 43.5402,-26.0213
 L 43.5689,-26.0287 L 43.6305,-26.0445 L 43.6581,-26.0554 L 43.7173,-26.0788 L 43.7604,-26.0959 L 43.834,-26.1251
 L 43.9441,-26.1856 L 43.97,-26.1998 L 44.0258,-26.2305 L 44.0773,-26.2679 L 44.1013,-26.2853 L 44.2029,-26.3592
 L 44.2493,-26.4027 L 44.2831,-26.4345 L 44.3408,-26.4887 L 44.3624,-26.509 L 44.403,-26.558 L 44.4326,-26.5938
 L 44.4831,-26.6548 L 44.5019,-26.6776 L 44.5178,-26.7026 L 44.5851,-26.8087 L 44.6192,-26.8624 L 44.6529,-26.9341
 L 44.6727,-26.976 L 44.6998,-27.0336 L 44.7124,-27.0604 L 44.7321,-27.121 L 44.7412,-27.1492 L 44.7556,-27.1933
 L 44.78,-27.2686 L 44.7856,-27.2977 L 44.7975,-27.3602 L 44.8062,-27.4058 L 44.821,-27.4836 L 44.826,-27.5626
 L 44.8289,-27.6089 L 44.8329,-27.6724 L 44.8348,-27.702 L 44.7888,-28.8226 L 44.7618,-29.4786 L 44.7169,-30.5732
 L 44.6906,-31.214 L 44.6841,-31.3709 L 44.6804,-31.4628 L 44.6785,-31.4924 L 44.6745,-31.5559 L 44.6716,-31.6022
 L 44.6666,-31.6812 L 44.5544,-32.5894 L 44.4887,-33.1211 L 44.3611,-34.1534 L 44.2864,-34.7577 L 44.2116,-35.363
 L 44.1968,-35.4408 L 44.1881,-35.4864 L 44.1761,-35.5489 L 44.1706,-35.578 L 44.0961,-35.9376 L 43.969,-36.5518
 L 43.6551,-38.0681 L 43.5709,-38.4744 L 43.4273,-39.1685 L 43.3631,-39.3878 L 43.3256,-39.5162 L 43.0722,-40.3831
 L 42.9238,-40.8906 L 42.6849,-41.7077 L 42.5451,-42.1861 L 42.4586,-42.4821 L 42.4079,-42.6554 L 42.3834,-42.7307
 L 42.3691,-42.7748 L 42.36,-42.803 L 42.3403,-42.8635 L 42.058,-43.6053 L 41.6312,-44.7266 L 41.2406,-45.7527
 L 41.0573,-46.2344 L 41.0447,-46.2612 L 41.0176,-46.3188 L 40.9641,-46.4325 L 40.7541,-46.8763 L 40.6108,-47.179
 L 40.3662,-47.696 L 40.031,-48.4043 L 39.7511,-48.9959 L 39.5289,-49.4654 L 39.4923,-49.5429 L 39.4297,-49.6751
 L 39.382,-49.7586 L 39.354,-49.8075 L 39.2786,-49.9394 L 39.2345,-50.0167 L 39.2089,-50.0614 L 39.1939,-50.0876
 L 37.6563,-52.7772 L 37.6222,-52.831 L 37.5973,-52.8702 L 37.5549,-52.937 L 37.539,-52.962 L 35.5388,-55.9113
 L 33.3242,-58.6953 L 33.3053,-58.7181 L 33.2253,-58.8149 L 33.1847,-58.864 L 32.2923,-59.8264 L 30.7679,-61.4705
 L 30.7463,-61.4908 L 30.6886,-61.545 L 30.6548,-61.5768 L 30.6084,-61.6203 L 29.6459,-62.5127 L 28.0018,-64.0371
 L 26.2458,-65.4339 L 25.2178,-66.2517 L 25.1537,-66.2983 L 25.1162,-66.3255 L 25.0922,-66.3429 L 25.0407,-66.3803
 L 22.0915,-68.3805 L 18.9894,-70.154 L 18.9336,-70.1846 L 18.9076,-70.1989 L 18.7976,-70.2594 L 15.5549,-71.7938
 L 15.4382,-71.84 L 15.379,-71.8635 L 15.3514,-71.8744 L 14.1067,-72.3481 L 11.9805,-73.1574 L 8.49364,-74.1767
 L 8.43198,-74.1925 L 8.40329,-74.1999 L 8.28166,-74.2311 L 4.69117,-74.9745 L 4.66178,-74.9782 L 4.59862,-74.9862
 L 4.47403,-75.0019 L 0.792229,-75.4569 L -2.96857,-75.6113 L -3.18743,-75.6113 L -5.02632,-75.5807 L -6.84853,-75.4892
 L -8.6528,-75.3378 L -10.4378,-75.1271 L -10.5624,-75.1113 L -10.6256,-75.1034 L -10.655,-75.0996 L -12.4195,-74.8304
 L -14.1622,-74.5035 L -15.8818,-74.1197 L -15.9585,-74.1 L -16.0034,-74.0885 L -16.0321,-74.0811 L -16.0938,-74.0653
 L -16.7197,-73.9028 L -17.789,-73.6252 L -18.4055,-73.4423 L -19.4586,-73.1298 L -21.1013,-72.5797 L -22.7157,-71.9758
 L -22.7433,-71.9649 L -22.8025,-71.9415 L -22.9192,-71.8952 L -24.5042,-71.2382 L -26.0584,-70.5289 L -27.5805,-69.768
 L -29.0693,-68.9563 L -29.1793,-68.8958 L -29.2053,-68.8815 L -29.2611,-68.8508 L -30.7152,-67.9891 L -31.6097,-67.4145
 L -32.1334,-67.0782 L -33.5145,-66.1187 L -33.566,-66.0813 L -33.5899,-66.0639 L -33.6274,-66.0366 L -33.6915,-65.9901
 L -34.1873,-65.6182 L -35.0341,-64.9829 L -36.3369,-63.9288 L -36.3833,-63.8853 L -36.4748,-63.7993 L -36.4964,-63.779
 L -37.8018,-62.525 L -39.0498,-61.2263 L -40.2393,-59.8846 L -40.2799,-59.8355 L -40.3599,-59.7388 L -40.3788,-59.7159
 L -41.5088,-58.3326 L -42.5782,-56.9093 L -43.5861,-55.4475 L -43.6019,-55.4225 L -43.6444,-55.3556 L -43.6692,-55.3165
 L -43.7033,-55.2627 L -44.0524,-54.7093 L -44.6486,-53.764 L -45.5303,-52.2299 L -46.3473,-50.6619 L -46.4008,-50.5483
 L -46.4279,-50.4907 L -46.4405,-50.4639 L -46.5401,-50.2518 L -46.7102,-49.8896 L -46.7178,-49.8734 L -46.7307,-49.8458
 L -46.7535,-49.7972 L -46.7925,-49.7141 L -46.8308,-49.6327 L -46.8961,-49.4937 L -47.0416,-49.1837 L -47.0971,-49.0655
 L -47.1919,-48.8636 L -47.2043,-48.834 L -47.2255,-48.7834 L -47.4318,-48.2921 L -47.5222,-48.0767 L -47.6766,-47.7089
 L -47.8766,-47.2325 L -47.9506,-47.0332 L -48.1309,-46.5481 L -48.2364,-46.2641 L -48.3986,-45.8276 L -48.4936,-45.5722
 L -48.5132,-45.5116 L -48.5224,-45.4834 L -48.5367,-45.4393 L -48.5612,-45.364 L -48.5817,-45.3007 L -48.6168,-45.1927
 L -48.7317,-44.8389 L -48.928,-44.2345 L -48.995,-44.0283 L -49.1094,-43.676 L -49.1605,-43.4931 L -49.2477,-43.1807
 L -49.5687,-42.0304 L -49.5758,-42.0051 L -49.5879,-41.9618 L -49.7622,-41.2182 L -49.8643,-40.7829 L -49.9471,-40.4297
 L -49.9955,-40.223 L -50.0011,-40.1939 L -50.013,-40.1313 L -50.0217,-40.0858 L -50.0365,-40.008 L -50.1863,-39.2225
 L -50.3724,-38.2461 L -50.4414,-37.7782 L -50.6354,-36.4626 L -50.6593,-36.2345 L -50.8245,-34.6592 L -50.8324,-34.5339
 L -50.8364,-34.4703 L -50.8382,-34.4408 L -50.8426,-34.372 L -50.883,-33.7276 L -50.952,-32.6269 L -50.9522,-32.6239
 L -50.9525,-32.6188 L -50.9666,-31.9398 L -50.9908,-30.78 L -50.9791,-30.1209 L -50.9722,-29.7351 L -50.9667,-29.4239
 L -50.9301,-28.7513 L -50.9052,-28.2941 L -50.8906,-28.0266 L -50.8887,-27.997 L -50.8847,-27.9335 L -50.8818,-27.8872
 L -50.8768,-27.8081 L -50.8698,-27.7329 L -50.8578,-27.6044 L -50.8274,-27.2799 L -50.7756,-26.7257 L -50.7635,-26.596
 L -50.7427,-26.3743 L -50.7015,-26.0696 L -50.6774,-25.8911 L -50.5699,-25.095 L -50.5448,-24.909 L -50.4794,-24.5449
 L -50.4412,-24.3318 L -50.3579,-23.8675 L -50.3091,-23.5957 L -50.2889,-23.483 L -50.277,-23.417 L -50.2622,-23.3392
 L -50.2535,-23.2936 L -50.2416,-23.2311 L -50.236,-23.202 L -50.1911,-23.0042 L -50.1145,-22.6662 L -50.0559,-22.4082
 L -49.956,-21.9676 L -49.9326,-21.8644 L -49.8926,-21.6882 L -49.821,-21.4302 L -49.7791,-21.2792 L -49.6593,-20.848
 L -49.5892,-20.5955 L -49.5125,-20.3192 L -49.4676,-20.1574 L -49.4431,-20.0821 L -49.4288,-20.038 L -49.4196,-20.0098
 L -49.4,-19.9493 L -49.3697,-19.8582 L -49.318,-19.7026 L -49.2332,-19.4472 L -49.0884,-19.0111 L -48.8875,-18.4065
 L -48.8488,-18.3074 L -48.5667,-17.5857 L -48.2817,-16.8565 L -48.2744,-16.8404 L -47.9226,-16.0658 L -47.5767,-15.3042
 L -47.564,-15.2774 L -47.5369,-15.2198 L -47.4835,-15.1062 L -47.4585,-15.0584 L -46.7994,-13.7977 L -46.6732,-13.5564
 L -45.7519,-12.0141 L -45.7178,-11.9604 L -45.693,-11.9212 L -45.6505,-11.8543 L -45.6346,-11.8293 L -44.5964,-10.2994
 L -43.4352,-8.78657 L -43.4164,-8.76375 L -43.3363,-8.66699 L -43.2957,-8.61793 L -42.0058,-7.1272 L -40.5813,-5.66339
 L -40.5597,-5.64312 L -40.4681,-5.55715 L -40.4217,-5.51357 L -38.8566,-4.08158 L -37.145,-2.68626 L -37.0434,-2.61244
 L -37.0195,-2.59504 L -36.968,-2.55762 L -35.104,-1.20385 L -34.3573,-0.721118 L -33.0818,0.103482 L -32.2973,0.576146
 L -31.8381,0.85285 L -30.5702,1.56348 L -30.5144,1.59415 L -30.4884,1.60842 L -30.3784,1.66892 L -29.0879,2.34313
 L -27.7765,2.98322 L -26.4455,3.59151 L -25.0965,4.1703 L -23.7312,4.7219 L -23.6144,4.76813 L -23.5552,4.79157
 L -23.5277,4.80247 L -22.1475,5.3292 L -20.7539,5.83335 L -19.3486,6.31724 L -17.9329,6.78317 L -16.5086,7.23345
 L -15.0771,7.6704 L -13.6399,8.09632 L -12.1986,8.51352 L -10.7548,8.9243 L -9.30991,9.33098 L -7.86556,9.73587
 L -6.42326,10.1413 L -4.98455,10.5495 L -1.7644,11.4023 L 1.2313,12.2212 L 4.00898,13.0134 L 6.57505,13.7862
 L 8.93592,14.5466 L 11.098,15.3019 L 11.7725,15.5613 L 12.9156,16.0008 L 14.0071,16.4699 L 14.648,16.7453
 L 15.6368,17.2279 L 16.2169,17.5111 L 17.0173,17.9623 L 17.4914,18.2295 L 18.2302,18.7188 L 18.6658,19.0073
 L 19.2877,19.5004 L 19.6557,19.7922 L 20.1673,20.2878 L 20.4714,20.5824 L 20.8878,21.0871 L 21.1364,21.3884
 L 21.4794,21.9236 L 21.6841,22.2431 L 21.9562,22.8106 L 22.1187,23.1495 L 22.3269,23.7623 L 22.4512,24.1278
 L 22.6003,24.8032 L 22.6889,25.2048 L 22.7803,25.9644 L 22.8343,26.4138 L 22.8517,26.8928 L 22.8812,27.702
 L 22.8273,28.9442 L 22.7954,29.6773 L 22.701,30.3793 L 22.5408,31.5702 L 22.389,32.2262 L 22.1316,33.3381
 L 21.9309,33.9368 L 21.5918,34.9483 L 21.1639,35.9053 L 20.9109,36.4712 L 20.6075,37.0046 L 20.0936,37.908
 L 19.7449,38.4046 L 19.1541,39.2458 L 18.7745,39.6922 L 18.1333,40.4462 L 17.4181,41.1494 L 16.9955,41.565
 L 16.5249,41.955 L 15.7259,42.617 L 15.2427,42.9555 L 14.4258,43.5277 L 13.9011,43.8381 L 13.0113,44.3646
 L 12.4536,44.642 L 11.506,45.1134 L 10.9503,45.3434 L 10.0102,45.7325 L 9.39937,45.9395 L 8.35879,46.292
 L 7.77491,46.4495 L 6.78762,46.716 L 6.14915,46.8472 L 5.06109,47.0709 L 4.45211,47.159 L 3.42075,47.3083
 L 2.78,47.3634 L 1.68953,47.4572 L 0.638091,47.4873 L 0.0181008,47.505 L -1.20299,47.4563 L -1.92102,47.4276
 L -3.04022,47.2927 L -3.70248,47.2129 L -4.86031,46.9783 L -5.5413,46.8404 L -6.18465,46.6558 L -7.27546,46.3429
 L -8.31153,45.9547 L -8.92354,45.7255 L -9.9654,45.2388 L -10.5781,44.9526 L -11.5173,44.4209 L -12.0728,44.1065
 L -12.9997,43.4823 L -13.5458,43.1146 L -14.0649,42.7033 L -14.947,42.0046 L -15.7248,41.2845 L -16.1852,40.8582
 L -16.9578,40.0238 L -17.412,39.5332 L -18.0874,38.6805 L -18.4862,38.177 L -19.1016,37.2633 L -19.4646,36.7243
 L -19.796,36.1387 L -20.3596,35.1429 L -20.8119,34.1747 L -21.0798,33.6012 L -21.4843,32.5217 L -21.7222,31.8867
 L -21.9086,31.237 L -22.2249,30.1342 L -22.4472,29.0371 L -22.5786,28.3884 L -22.722,27.1983 L -22.8064,26.4983
 L -22.8534,25.3195 L -22.8812,24.624 L -22.8831,24.5944 L -22.8871,24.5309 L -22.89,24.4846 L -22.895,24.4056
 L -22.9098,24.3278 L -22.9185,24.2822 L -22.9304,24.2197 L -22.936,24.1906 L -22.9748,24.0712 L -22.9839,24.043
 L -23.0036,23.9824 L -23.0162,23.9556 L -23.0433,23.898 L -23.0631,23.8561 L -23.0968,23.7844 L -23.1309,23.7307
 L -23.1557,23.6915 L -23.1982,23.6246 L -23.2141,23.5996 L -23.2329,23.5768 L -23.2834,23.5158 L -23.313,23.48
 L -23.3536,23.431 L -23.3752,23.4107 L -23.4329,23.3565 L -23.4667,23.3247 L -23.5131,23.2812 L -23.6147,23.2073
 L -23.6387,23.1899 L -23.6902,23.1525 L -23.746,23.1218 L -23.7719,23.1076 L -23.882,23.0471 L -23.9987,23.0008
 L -24.0579,22.9774 L -24.0855,22.9665 L -24.1471,22.9507 L -24.1758,22.9433 L -24.2974,22.9121 L -24.3268,22.9084
 L -24.39,22.9004 L -24.5146,22.8847 L -49.3574,22.8847 L -49.436,22.8946 L -49.482,22.9004 L -49.5452,22.9084
 L -49.5746,22.9121 L -49.6962,22.9433 L -49.7249,22.9507 L -49.7866,22.9665 L -49.8141,22.9774 L -49.8733,23.0008
 L -49.9164,23.0179 L -49.99,23.0471 L -50.1001,23.1076 L -50.126,23.1218 L -50.1818,23.1525 L -50.2333,23.1899
 L -50.2573,23.2073 L -50.3589,23.2812 L -50.4053,23.3247 L -50.4391,23.3565 L -50.4968,23.4107 L -50.5184,23.431
 L -50.559,23.48 L -50.5886,23.5158 L -50.6391,23.5768 L -50.6579,23.5996 L -50.6738,23.6246 L -50.7163,23.6915
 L -50.7411,23.7307 L -50.7752,23.7844 L -50.8089,23.8561 L -50.8287,23.898 L -50.8558,23.9556 L -50.8684,23.9824
 L -50.8881,24.043 L -50.8972,24.0712 L -50.9116,24.1153 L -50.936,24.1906 L -50.9416,24.2197 L -50.9535,24.2822
 L -50.9622,24.3278 L -50.977,24.4056 L -50.982,24.4846 L -50.9849,24.5309 L -50.9889,24.5944 z
M -38,-30 L -37.9921,-30.1253 L -37.9686,-30.2487 L -37.9298,-30.3681 L -37.8763,-30.4818 L -37.809,-30.5878
 L -37.729,-30.6845 L -37.6374,-30.7705 L -37.5358,-30.8443 L -37.4258,-30.9048 L -37.309,-30.9511 L -37.1874,-30.9823
 L -37.0628,-30.998 L -36.9372,-30.998 L -36.8126,-30.9823 L -36.691,-30.9511 L -36.5742,-30.9048 L -36.4642,-30.8443
 L -36.3626,-30.7705 L -36.271,-30.6845 L -36.191,-30.5878 L -36.1237,-30.4818 L -36.0702,-30.3681 L -36.0314,-30.2487
 L -36.0079,-30.1253 L -36,-30 L -36.0079,-29.8747 L -36.0314,-29.7513 L -36.0702,-29.6319 L -36.1237,-29.5182
 L -36.191,-29.4122 L -36.271,-29.3155 L -36.3626,-29.2295 L -36.4642,-29.1557 L -36.5742,-29.0952 L -36.691,-29.0489
 L -36.8126,-29.0177 L -36.9372,-29.002 L -37.0628,-29.002 L -37.1874,-29.0177 L -37.309,-29.0489 L -37.4258,-29.0952
 L -37.5358,-29.1557 L -37.6374,-29.2295 L -37.729,-29.3155 L -37.809,-29.4122 L -37.8763,-29.5182 L -37.9298,-29.6319
 L -37.9686,-29.7513 L -37.9921,-29.8747 z
M -34,40 L -33.9921,39.8747 L -33.9686,39.7513 L -33.9298,39.6319 L -33.8763,39.5182 L -33.809,39.4122
 L -33.729,39.3155 L -33.6374,39.2295 L -33.5358,39.1557 L -33.4258,39.0952 L -33.309,39.0489 L -33.1874,39.0177
 L -33.0628,39.002 L -32.9372,39.002 L -32.8126,39.0177 L -32.691,39.0489 L -32.5742,39.0952 L -32.4642,39.1557
 L -32.3626,39.2295 L -32.271,39.3155 L -32.191,39.4122 L -32.1237,39.5182 L -32.0702,39.6319 L -32.0314,39.7513
 L -32.0079,39.8747 L -32,40 L -32.0079,40.1253 L -32.0314,40.2487 L -32.0702,40.3681 L -32.1237,40.4818
 L -32.191,40.5878 L -32.271,40.6845 L -32.3626,40.7705 L -32.4642,40.8443 L -32.5742,40.9048 L -32.691,40.9511
 L -32.8126,40.9823 L -32.9372,40.998 L -33.0628,40.998 L -33.1874,40.9823 L -33.309,40.9511 L -33.4258,40.9048
 L -33.5358,40.8443 L -33.6374,40.7705 L -33.729,40.6845 L -33.809,40.5878 L -33.8763,40.4818 L -33.9298,40.3681
 L -33.9686,40.2487 L -33.9921,40.1253 z
M 26,-44 L 26.0079,-44.1253 L 26.0314,-44.2487 L 26.0702,-44.3681 L 26.1237,-44.4818 L 26.191,-44.5878
 L 26.271,-44.6845 L 26.3626,-44.7705 L 26.4642,-44.8443 L 26.5742,-44.9048 L 26.691,-44.9511 L 26.8126,-44.9823
 L 26.9372,-44.998 L 27.0628,-44.998 L 27.1874,-44.9823 L 27.309,-44.9511 L 27.4258,-44.9048 L 27.5358,-44.8443
 L 27.6374,-44.7705 L 27.729,-44.6845 L 27.809,-44.5878 L 27.8763,-44.4818 L 27.9298,-44.3681 L 27.9686,-44.2487
 L 27.9921,-44.1253 L 28,-44 L 27.9921,-43.8747 L 27.9686,-43.7513 L 27.9298,-43.6319 L 27.8763,-43.5182
 L 27.809,-43.4122 L 27.729,-43.3155 L 27.6374,-43.2295 L 27.5358,-43.1557 L 27.4258,-43.0952 L 27.309,-43.0489
 L 27.1874,-43.0177 L 27.0628,-43.002 L 26.9372,-43.002 L 26.8126,-43.0177 L 26.691,-43.0489 L 26.5742,-43.0952
 L 26.4642,-43.1557 L 26.3626,-43.2295 L 26.271,-43.3155 L 26.191,-43.4122 L 26.1237,-43.5182 L 26.0702,-43.6319
 L 26.0314,-43.7513 L 26.0079,-43.8747 z
M 36,30 L 36.0079,29.8747 L 36.0314,29.7513 L 36.0702,29.6319 L 36.1237,29.5182 L 36.191,29.4122
 L 36.271,29.3155 L 36.3626,29.2295 L 36.4642,29.1557 L 36.5742,29.0952 L 36.691,29.0489 L 36.8126,29.0177
 L 36.9372,29.002 L 37.0628,29.002 L 37.1874,29.0177 L 37.309,29.0489 L 37.4258,29.0952 L 37.5358,29.1557
 L 37.6374,29.2295 L 37.729,29.3155 L 37.809,29.4122 L 37.8763,29.5182 L 37.9298,29.6319 L 37.9686,29.7513
 L 37.9921,29.8747 L 38,30 L 37.9921,30.1253 L 37.9686,30.2487 L 37.9298,30.3681 L 37.8763,30.4818
 L 37.809,30.5878 L 37.729,30.6845 L 37.6374,30.7705 L 37.5358,30.8443 L 37.4258,30.9048 L 37.309,30.9511
 L 37.1874,30.9823 L 37.0628,30.998 L 36.9372,30.998 L 36.8126,30.9823 L 36.691,30.9511 L 36.5742,30.9048
 L 36.4642,30.8443 L 36.3626,30.7705 L 36.271,30.6845 L 36.191,30.5878 L 36.1237,30.4818 L 36.0702,30.3681
 L 36.0314,30.2487 L 36.0079,30.1253 z
" stroke="black" fill="lightgray" stroke-width="0.5"/>
</svg>
