<?xml version="1.0" standalone="no"?>
<!DOCTYPE svg PUBLIC "-//W3C//DTD SVG 1.1//EN" "http://www.w3.org/Graphics/SVG/1.1/DTD/svg11.dtd">
<svg width="102mm" height="152mm" viewBox="-51 -76 102 152" xmlns="http://www.w3.org/2000/svg" version="1.1">
<title>OpenSCAD Model</title>
<path d="
M -50.9908,24.624 L -50.9097,26.6545 L -50.8306,28.6377 L -50.8287,28.6849 L -50.8268,28.7145 L -50.8228,28.778
 L -50.8149,28.9033 L -50.588,30.786 L -50.3625,32.6564 L -50.3368,32.8698 L -50.3133,32.9932 L -50.3014,33.0557
 L -50.2958,33.0848 L -49.9735,34.6762 L -49.6225,36.4091 L -49.514,36.9446 L -49.1929,38.064 L -48.7422,39.6348
 L -48.4408,40.6854 L -48.402,40.8049 L -48.3928,40.833 L -48.3732,40.8936 L -48.2121,41.3235 L -47.6936,42.7076
 L -47.2135,43.989 L -47.0209,44.5031 L -46.7132,45.1618 L -46.2191,46.2196 L -45.7815,47.1563 L -45.4033,47.9658
 L -45.4019,47.9689 L -45.3893,47.9957 L -45.3622,48.0533 L -45.3087,48.1669 L -44.9277,48.84 L -44.624,49.3766
 L -44.4027,49.7675 L -44.2674,50.0065 L -44.2215,50.0876 L -43.4352,51.4768 L -43.4011,51.5305 L -43.3338,51.6366
 L -43.3179,51.6616 L -41.2023,54.8032 L -38.8569,57.7642 L -38.838,57.7871 L -38.758,57.8838 L -38.7174,57.9329
 L -36.1544,60.701 L -36.1328,60.7213 L -36.0413,60.8073 L -35.9949,60.8508 L -33.2267,63.4138 L -30.2657,65.7592
 L -30.1641,65.833 L -30.1401,65.8504 L -30.0886,65.8879 L -26.947,68.0035 L -23.6372,69.877 L -23.5814,69.9076
 L -23.5554,69.9219 L -23.4454,69.9824 L -19.9795,71.6014 L -19.8628,71.6477 L -19.8036,71.6711 L -19.776,71.682
 L -16.1666,73.0343 L -12.4258,74.1075 L -12.3641,74.1233 L -12.3354,74.1306 L -12.2138,74.1619 L -8.35398,74.9437
 L -8.3246,74.9474 L -8.26144,74.9554 L -8.13685,74.9711 L -4.17033,75.4492 L -0.109429,75.6113 L 0.109429,75.6113
 L 4.17033,75.4492 L 8.13685,74.9711 L 8.26144,74.9554 L 8.3246,74.9474 L 8.35398,74.9437 L 12.2138,74.1619
 L 12.3354,74.1306 L 12.3641,74.1233 L 12.4258,74.1075 L 16.1666,73.0343 L 19.776,71.682 L 19.8036,71.6711
 L 19.8628,71.6477 L 19.9795,71.6014 L 23.4454,69.9824 L 23.5554,69.9219 L 23.5814,69.9076 L 23.6372,69.877
 L 26.947,68.0035 L 30.0886,65.8879 L 30.1401,65.8504 L 30.1641,65.833 L 30.2657,65.7592 L 33.2267,63.4138
 L 35.9949,60.8508 L 36.0413,60.8073 L 36.1328,60.7213 L 36.1544,60.701 L 38.7174,57.9329 L 38.758,57.8838
 L 38.838,57.7871 L 38.8569,57.7642 L 41.2023,54.8032 L 43.3179,51.6616 L 43.3338,51.6366 L 43.4011,51.5305
 L 43.4352,51.4768 L 44.2215,50.0876 L 44.2674,50.0065 L 44.4027,49.7675 L 44.624,49.3766 L 44.9277,48.84
 L 45.3087,48.1669 L 45.3622,48.0533 L 45.3893,47.9957 L 45.4019,47.9689 L 45.4033,47.9658 L 45.7815,47.1563
 L 46.2191,46.2196 L 46.7132,45.1618 L 47.0209,44.5031 L 47.2135,43.989 L 47.6936,42.7076 L 48.2121,41.3235
 L 48.3732,40.8936 L 48.3928,40.833 L 48.402,40.8049 L 48.4408,40.6854 L 48.7422,39.6348 L 49.1929,38.064
 L 49.514,36.9446 L 49.6225,36.4091 L 49.9735,34.6762 L 50.2958,33.0848 L 50.3014,33.0557 L 50.3133,32.9932
 L 50.3368,32.8698 L 50.3625,32.6564 L 50.588,30.786 L 50.8149,28.9033 L 50.8228,28.778 L 50.8268,28.7145
 L 50.8287,28.6849 L 50.8306,28.6377 L 50.9097,26.6545 L 50.9908,24.624 L 50.9908,-73.872 L 50.9889,-73.9016
 L 50.9849,-73.9651 L 50.977,-74.0904 L 50.9535,-74.2138 L 50.9416,-74.2763 L 50.936,-74.3054 L 50.8972,-74.4248
 L 50.8881,-74.453 L 50.8684,-74.5136 L 50.8558,-74.5404 L 50.8287,-74.598 L 50.7752,-74.7116 L 50.7411,-74.7653
 L 50.6738,-74.8714 L 50.6579,-74.8964 L 50.6391,-74.9192 L 50.559,-75.016 L 50.5184,-75.065 L 50.4968,-75.0853
 L 50.4053,-75.1713 L 50.3589,-75.2148 L 50.2573,-75.2887 L 50.2333,-75.3061 L 50.1818,-75.3435 L 50.126,-75.3742
 L 50.1001,-75.3884 L 49.99,-75.4489 L 49.8733,-75.4952 L 49.8141,-75.5186 L 49.7865,-75.5295 L 49.7249,-75.5453
 L 49.6962,-75.5527 L 49.5746,-75.5839 L 49.5452,-75.5876 L 49.482,-75.5956 L 49.3574,-75.6113 L 24.5146,-75.6113
 L 24.39,-75.5956 L 24.3268,-75.5876 L 24.2974,-75.5839 L 24.1758,-75.5527 L 24.1471,-75.5453 L 24.0854,-75.5295
 L 24.0579,-75.5186 L 23.9987,-75.4952 L 23.882,-75.4489 L 23.7719,-75.3884 L 23.746,-75.3742 L 23.6902,-75.3435
 L 23.6387,-75.3061 L 23.6147,-75.2887 L 23.5131,-75.2148 L 23.4667,-75.1713 L 23.3752,-75.0853 L 23.3536,-75.065
 L 23.313,-75.016 L 23.2329,-74.9192 L 23.2141,-74.8964 L 23.1982,-74.8714 L 23.1309,-74.7653 L 23.0968,-74.7116
 L 23.0433,-74.598 L 23.0162,-74.5404 L 23.0036,-74.5136 L 22.9839,-74.453 L 22.9748,-74.4248 L 22.936,-74.3054
 L 22.9304,-74.2763 L 22.9185,-74.2138 L 22.895,-74.0904 L 22.8871,-73.9651 L 22.8831,-73.9016 L 22.8812,-73.872
 L 22.8812,24.624 L 22.8064,26.4983 L 22.5786,28.3884 L 22.2249,30.1342 L 21.7222,31.8867 L 21.0798,33.6012
 L 20.3596,35.1429 L 19.4646,36.7243 L 18.4862,38.177 L 17.412,39.5332 L 16.1852,40.8582 L 14.947,42.0046
 L 13.5458,43.1146 L 12.0728,44.1065 L 10.5781,44.9526 L 8.92354,45.7255 L 7.27546,46.3429 L 5.5413,46.8404
 L 3.70248,47.2129 L 1.92102,47.4276 L 0,47.5043 L -1.92102,47.4276 L -3.70248,47.2129 L -5.5413,46.8404
 L -7.27546,46.3429 L -8.92354,45.7255 L -10.5781,44.9526 L -12.0728,44.1065 L -13.5458,43.1146 L -14.947,42.0046
 L -16.1852,40.8582 L -17.412,39.5332 L -18.4862,38.177 L -19.4646,36.7243 L -20.3596,35.1429 L -21.0798,33.6012
 L -21.7222,31.8867 L -22.2249,30.1342 L -22.5786,28.3884 L -22.8064,26.4983 L -22.8812,24.624 L -22.8812,-73.872
 L -22.8831,-73.9016 L -22.8871,-73.9651 L -22.895,-74.0904 L -22.9185,-74.2138 L -22.9304,-74.2763 L -22.936,-74.3054
 L -22.9748,-74.4248 L -22.9839,-74.453 L -23.0036,-74.5136 L -23.0162,-74.5404 L -23.0433,-74.598 L -23.0968,-74.7116
 L -23.1309,-74.7653 L -23.1982,-74.8714 L -23.2141,-74.8964 L -23.2329,-74.9192 L -23.313,-75.016 L -23.3536,-75.065
 L -23.3752,-75.0853 L -23.4667,-75.1713 L -23.5131,-75.2148 L -23.6147,-75.2887 L -23.6387,-75.3061 L -23.6902,-75.3435
 L -23.746,-75.3742 L -23.7719,-75.3884 L -23.882,-75.4489 L -23.9987,-75.4952 L -24.0579,-75.5186 L -24.0854,-75.5295
 L -24.1471,-75.5453 L -24.1758,-75.5527 L -24.2974,-75.5839 L -24.3268,-75.5876 L -24.39,-75.5956 L -24.5146,-75.6113
 L -49.3574,-75.6113 L -49.482,-75.5956 L -49.5452,-75.5876 L -49.5746,-75.5839 L -49.6962,-75.5527 L -49.7249,-75.5453
 L -49.7865,-75.5295 L -49.8141,-75.5186 L -49.8733,-75.4952 L -49.99,-75.4489 L -50.1001,-75.3884 L -50.126,-75.3742
 L -50.1818,-75.3435 L -50.2333,-75.3061 L -50.2573,-75.2887 L -50.3589,-75.2148 L -50.4053,-75.1713 L -50.4968,-75.0853
 L -50.5184,-75.065 L -50.559,-75.016 L -50.6391,-74.9192 L -50.6579,-74.8964 L -50.6738,-74.8714 L -50.7411,-74.7653
 L -50.7752,-74.7116 L -50.8287,-74.598 L -50.8558,-74.5404 L -50.8684,-74.5136 L -50.8881,-74.453 L -50.8972,-74.4248
 L -50.936,-74.3054 L -50.9416,-74.2763 L -50.9535,-74.2138 L -50.977,-74.0904 L -50.9849,-73.9651 L -50.9889,-73.9016
 L -50.9908,-73.872 z
M -38,-61 L -37.9921,-61.1253 L -37.9686,-61.2487 L -37.9298,-61.3681 L -37.8763,-61.4818 L -37.809,-61.5878
 L -37.729,-61.6845 L -37.6374,-61.7705 L -37.5358,-61.8443 L -37.4258,-61.9048 L -37.309,-61.9511 L -37.1874,-61.9823
 L -37.0628,-61.998 L -36.9372,-61.998 L -36.8126,-61.9823 L -36.691,-61.9511 L -36.5742,-61.9048 L -36.4642,-61.8443
 L -36.3626,-61.7705 L -36.271,-61.6845 L -36.191,-61.5878 L -36.1237,-61.4818 L -36.0702,-61.3681 L -36.0314,-61.2487
 L -36.0079,-61.1253 L -36,-61 L -36.0079,-60.8747 L -36.0314,-60.7513 L -36.0702,-60.6319 L -36.1237,-60.5182
 L -36.191,-60.4122 L -36.271,-60.3155 L -36.3626,-60.2295 L -36.4642,-60.1557 L -36.5742,-60.0952 L -36.691,-60.0489
 L -36.8126,-60.0177 L -36.9372,-60.002 L -37.0628,-60.002 L -37.1874,-60.0177 L -37.309,-60.0489 L -37.4258,-60.0952
 L -37.5358,-60.1557 L -37.6374,-60.2295 L -37.729,-60.3155 L -37.809,-60.4122 L -37.8763,-60.5182 L -37.9298,-60.6319
 L -37.9686,-60.7513 L -37.9921,-60.8747 z
M -1,61 L -0.992114,60.8747 L -0.968583,60.7513 L -0.929776,60.6319 L -0.876307,60.5182 L -0.809016,60.4122
 L -0.728969,60.3155 L -0.637424,60.2295 L -0.535827,60.1557 L -0.425778,60.0952 L -0.309016,60.0489 L -0.187381,60.0177
 L -0.0627899,60.002 L 0.0627899,60.002 L 0.187381,60.0177 L 0.309016,60.0489 L 0.425778,60.0952 L 0.535827,60.1557
 L 0.637424,60.2295 L 0.728969,60.3155 L 0.809016,60.4122 L 0.876307,60.5182 L 0.929776,60.6319 L 0.968583,60.7513
 L 0.992114,60.8747 L 1,61 L 0.992114,61.1253 L 0.968583,61.2487 L 0.929776,61.3681 L 0.876307,61.4818
 L 0.809016,61.5878 L 0.728969,61.6845 L 0.637424,61.7705 L 0.535827,61.8443 L 0.425778,61.9048 L 0.309016,61.9511
 L 0.187381,61.9823 L 0.0627899,61.998 L -0.0627899,61.998 L -0.187381,61.9823 L -0.309016,61.9511 L -0.425778,61.9048
 L -0.535827,61.8443 L -0.637424,61.7705 L -0.728969,61.6845 L -0.809016,61.5878 L -0.876307,61.4818 L -0.929776,61.3681
 L -0.968583,61.2487 L -0.992114,61.1253 z
M 36,-61 L 36.0079,-61.1253 L 36.0314,-61.2487 L 36.0702,-61.3681 L 36.1237,-61.4818 L 36.191,-61.5878
 L 36.271,-61.6845 L 36.3626,-61.7705 L 36.4642,-61.8443 L 36.5742,-61.9048 L 36.691,-61.9511 L 36.8126,-61.9823
 L 36.9372,-61.998 L 37.0628,-61.998 L 37.1874,-61.9823 L 37.309,-61.9511 L 37.4258,-61.9048 L 37.5358,-61.8443
 L 37.6374,-61.7705 L 37.729,-61.6845 L 37.809,-61.5878 L 37.8763,-61.4818 L 37.9298,-61.3681 L 37.9686,-61.2487
 L 37.9921,-61.1253 L 38,-61 L 37.9921,-60.8747 L 37.9686,-60.7513 L 37.9298,-60.6319 L 37.8763,-60.5182
 L 37.809,-60.4122 L 37.729,-60.3155 L 37.6374,-60.2295 L 37.5358,-60.1557 L 37.4258,-60.0952 L 37.309,-60.0489
 L 37.1874,-60.0177 L 37.0628,-60.002 L 36.9372,-60.002 L 36.8126,-60.0177 L 36.691,-60.0489 L 36.5742,-60.0952
 L 36.4642,-60.1557 L 36.3626,-60.2295 L 36.271,-60.3155 L 36.191,-60.4122 L 36.1237,-60.5182 L 36.0702,-60.6319
 L 36.0314,-60.7513 L 36.0079,-60.8747 z
" stroke="black" fill="lightgray" stroke-width="0.5"/>
</svg>
