<?xml version="1.0" standalone="no"?>
<!DOCTYPE svg PUBLIC "-//W3C//DTD SVG 1.1//EN" "http://www.w3.org/Graphics/SVG/1.1/DTD/svg11.dtd">
<svg width="102mm" height="152mm" viewBox="-51 -76 102 152" xmlns="http://www.w3.org/2000/svg" version="1.1">
<title>OpenSCAD Model</title>
<path d="
M -50.9908,-73.872 L -50.9889,-73.8424 L -50.9849,-73.7789 L -50.982,-73.7326 L -50.977,-73.6536 L -50.9535,-73.5302
 L -50.9416,-73.4677 L -50.936,-73.4386 L -42.0804,-34.7958 L -26.9533,31.2134 L -17.078,74.3054 L -17.0392,74.4249
 L -17.0301,74.453 L -17.0104,74.5136 L -16.9978,74.5404 L -16.9707,74.598 L -16.9172,74.7116 L -16.8831,74.7653
 L -16.8158,74.8714 L -16.7999,74.8964 L -16.7811,74.9192 L -16.7306,74.9802 L -16.701,75.016 L -16.6604,75.065
 L -16.6388,75.0853 L -16.5811,75.1395 L -16.5473,75.1713 L -16.5009,75.2148 L -16.4368,75.2614 L -16.3993,75.2887
 L -16.3753,75.3061 L -16.3238,75.3435 L -16.268,75.3742 L -16.2421,75.3884 L -16.2015,75.4108 L -16.132,75.4489
 L -16.0584,75.4781 L -16.0153,75.4951 L -15.9561,75.5186 L -15.9286,75.5295 L -15.8669,75.5453 L -15.8382,75.5527
 L -15.7166,75.5839 L -15.6872,75.5876 L -15.624,75.5956 L -15.4994,75.6113 L 15.4994,75.6113 L 15.624,75.5956
 L 15.6872,75.5876 L 15.7166,75.5839 L 15.8382,75.5527 L 15.8669,75.5453 L 15.9286,75.5295 L 15.9561,75.5186
 L 16.0153,75.4951 L 16.0584,75.4781 L 16.132,75.4489 L 16.2015,75.4108 L 16.2421,75.3884 L 16.268,75.3742
 L 16.3238,75.3435 L 16.3753,75.3061 L 16.3993,75.2887 L 16.4368,75.2614 L 16.5009,75.2148 L 16.5473,75.1713
 L 16.5811,75.1395 L 16.6388,75.0853 L 16.6604,75.065 L 16.701,75.016 L 16.7306,74.9802 L 16.7811,74.9192
 L 16.7999,74.8964 L 16.8158,74.8714 L 16.8831,74.7653 L 16.9172,74.7116 L 16.9707,74.598 L 16.9978,74.5404
 L 17.0104,74.5136 L 17.0301,74.453 L 17.0392,74.4249 L 17.078,74.3054 L 26.9533,31.2134 L 42.0804,-34.7958
 L 50.936,-73.4386 L 50.9416,-73.4677 L 50.9535,-73.5302 L 50.977,-73.6536 L 50.982,-73.7326 L 50.9849,-73.7789
 L 50.9889,-73.8424 L 50.9908,-73.872 L 50.9889,-73.9016 L 50.9849,-73.9651 L 50.982,-74.0114 L 50.977,-74.0904
 L 50.9535,-74.2138 L 50.9416,-74.2763 L 50.936,-74.3054 L 50.9116,-74.3807 L 50.8972,-74.4249 L 50.8881,-74.453
 L 50.8684,-74.5136 L 50.8558,-74.5404 L 50.8287,-74.598 L 50.7752,-74.7116 L 50.7411,-74.7653 L 50.7163,-74.8045
 L 50.6738,-74.8714 L 50.6579,-74.8964 L 50.6391,-74.9192 L 50.5886,-74.9802 L 50.559,-75.016 L 50.5184,-75.065
 L 50.4968,-75.0853 L 50.4391,-75.1395 L 50.4053,-75.1713 L 50.3589,-75.2148 L 50.2948,-75.2614 L 50.2573,-75.2887
 L 50.2333,-75.3061 L 50.1818,-75.3435 L 50.126,-75.3742 L 50.1001,-75.3884 L 49.99,-75.4489 L 49.9164,-75.4781
 L 49.8733,-75.4951 L 49.8141,-75.5186 L 49.7866,-75.5295 L 49.7249,-75.5453 L 49.6962,-75.5527 L 49.5746,-75.5839
 L 49.5452,-75.5876 L 49.482,-75.5956 L 49.436,-75.6014 L 49.3574,-75.6113 L 23.8306,-75.6113 L 23.706,-75.5956
 L 23.6428,-75.5876 L 23.6134,-75.5839 L 23.4918,-75.5527 L 23.4631,-75.5453 L 23.4014,-75.5295 L 23.3739,-75.5186
 L 23.3147,-75.4951 L 23.198,-75.4489 L 23.0879,-75.3884 L 23.062,-75.3742 L 23.0062,-75.3435 L 22.9547,-75.3061
 L 22.9307,-75.2887 L 22.8932,-75.2614 L 22.8291,-75.2148 L 22.7827,-75.1713 L 22.7489,-75.1395 L 22.6912,-75.0853
 L 22.6696,-75.065 L 22.629,-75.016 L 22.5994,-74.9802 L 22.5489,-74.9192 L 22.5301,-74.8964 L 22.5142,-74.8714
 L 22.4717,-74.8045 L 22.4469,-74.7653 L 22.4128,-74.7116 L 22.3593,-74.598 L 22.3322,-74.5404 L 22.3196,-74.5136
 L 22.2999,-74.453 L 22.2908,-74.4249 L 22.252,-74.3054 L 8.25379,-13.1134 L 0,22.9675 L -8.25379,-13.1134
 L -22.252,-74.3054 L -22.2908,-74.4249 L -22.2999,-74.453 L -22.3196,-74.5136 L -22.3322,-74.5404 L -22.3593,-74.598
 L -22.4128,-74.7116 L -22.4469,-74.7653 L -22.4717,-74.8045 L -22.5142,-74.8714 L -22.5301,-74.8964 L -22.5489,-74.9192
 L -22.5994,-74.9802 L -22.629,-75.016 L -22.6696,-75.065 L -22.6912,-75.0853 L -22.7489,-75.1395 L -22.7827,-75.1713
 L -22.8291,-75.2148 L -22.8932,-75.2614 L -22.9307,-75.2887 L -22.9547,-75.3061 L -23.0062,-75.3435 L -23.062,-75.3742
 L -23.0879,-75.3884 L -23.198,-75.4489 L -23.3147,-75.4951 L -23.3739,-75.5186 L -23.4014,-75.5295 L -23.4631,-75.5453
 L -23.4918,-75.5527 L -23.6134,-75.5839 L -23.6428,-75.5876 L -23.706,-75.5956 L -23.8306,-75.6113 L -49.3574,-75.6113
 L -49.436,-75.6014 L -49.482,-75.5956 L -49.5452,-75.5876 L -49.5746,-75.5839 L -49.6962,-75.5527 L -49.7249,-75.5453
 L -49.7866,-75.5295 L -49.8141,-75.5186 L -49.8733,-75.4951 L -49.9164,-75.4781 L -49.99,-75.4489 L -50.1001,-75.3884
 L -50.126,-75.3742 L -50.1818,-75.3435 L -50.2333,-75.3061 L -50.2573,-75.2887 L -50.2948,-75.2614 L -50.3589,-75.2148
 L -50.4053,-75.1713 L -50.4391,-75.1395 L -50.4968,-75.0853 L -50.5184,-75.065 L -50.559,-75.016 L -50.5886,-74.9802
 L -50.6391,-74.9192 L -50.6579,-74.8964 L -50.6738,-74.8714 L -50.7163,-74.8045 L -50.7411,-74.7653 L -50.7752,-74.7116
 L -50.8287,-74.598 L -50.8558,-74.5404 L -50.8684,-74.5136 L -50.8881,-74.453 L -50.8972,-74.4249 L -50.9116,-74.3807
 L -50.936,-74.3054 L -50.9416,-74.2763 L -50.9535,-74.2138 L -50.977,-74.0904 L -50.982,-74.0114 L -50.9849,-73.9651
 L -50.9889,-73.9016 z
M -35,-61 L -34.9921,-61.1253 L -34.9686,-61.2487 L -34.9298,-61.3681 L -34.8763,-61.4818 L -34.809,-61.5878
 L -34.729,-61.6845 L -34.6374,-61.7705 L -34.5358,-61.8443 L -34.4258,-61.9048 L -34.309,-61.9511 L -34.1874,-61.9823
 L -34.0628,-61.998 L -33.9372,-61.998 L -33.8126,-61.9823 L -33.691,-61.9511 L -33.5742,-61.9048 L -33.4642,-61.8443
 L -33.3626,-61.7705 L -33.271,-61.6845 L -33.191,-61.5878 L -33.1237,-61.4818 L -33.0702,-61.3681 L -33.0314,-61.2487
 L -33.0079,-61.1253 L -33,-61 L -33.0079,-60.8747 L -33.0314,-60.7513 L -33.0702,-60.6319 L -33.1237,-60.5182
 L -33.191,-60.4122 L -33.271,-60.3155 L -33.3626,-60.2295 L -33.4642,-60.1557 L -33.5742,-60.0952 L -33.691,-60.0489
 L -33.8126,-60.0177 L -33.9372,-60.002 L -34.0628,-60.002 L -34.1874,-60.0177 L -34.309,-60.0489 L -34.4258,-60.0952
 L -34.5358,-60.1557 L -34.6374,-60.2295 L -34.729,-60.3155 L -34.809,-60.4122 L -34.8763,-60.5182 L -34.9298,-60.6319
 L -34.9686,-60.7513 L -34.9921,-60.8747 z
M -1,61 L -0.992114,60.8747 L -0.968583,60.7513 L -0.929776,60.6319 L -0.876307,60.5182 L -0.809016,60.4122
 L -0.728969,60.3155 L -0.637424,60.2295 L -0.535827,60.1557 L -0.425778,60.0952 L -0.309016,60.0489 L -0.187381,60.0177
 L -0.0627899,60.002 L 0.0627899,60.002 L 0.187381,60.0177 L 0.309016,60.0489 L 0.425778,60.0952 L 0.535827,60.1557
 L 0.637424,60.2295 L 0.728969,60.3155 L 0.809016,60.4122 L 0.876307,60.5182 L 0.929776,60.6319 L 0.968583,60.7513
 L 0.992114,60.8747 L 1,61 L 0.992114,61.1253 L 0.968583,61.2487 L 0.929776,61.3681 L 0.876307,61.4818
 L 0.809016,61.5878 L 0.728969,61.6845 L 0.637424,61.7705 L 0.535827,61.8443 L 0.425778,61.9048 L 0.309016,61.9511
 L 0.187381,61.9823 L 0.0627899,61.998 L -0.0627899,61.998 L -0.187381,61.9823 L -0.309016,61.9511 L -0.425778,61.9048
 L -0.535827,61.8443 L -0.637424,61.7705 L -0.728969,61.6845 L -0.809016,61.5878 L -0.876307,61.4818 L -0.929776,61.3681
 L -0.968583,61.2487 L -0.992114,61.1253 z
M 33,-61 L 33.0079,-61.1253 L 33.0314,-61.2487 L 33.0702,-61.3681 L 33.1237,-61.4818 L 33.191,-61.5878
 L 33.271,-61.6845 L 33.3626,-61.7705 L 33.4642,-61.8443 L 33.5742,-61.9048 L 33.691,-61.9511 L 33.8126,-61.9823
 L 33.9372,-61.998 L 34.0628,-61.998 L 34.1874,-61.9823 L 34.309,-61.9511 L 34.4258,-61.9048 L 34.5358,-61.8443
 L 34.6374,-61.7705 L 34.729,-61.6845 L 34.809,-61.5878 L 34.8763,-61.4818 L 34.9298,-61.3681 L 34.9686,-61.2487
 L 34.9921,-61.1253 L 35,-61 L 34.9921,-60.8747 L 34.9686,-60.7513 L 34.9298,-60.6319 L 34.8763,-60.5182
 L 34.809,-60.4122 L 34.729,-60.3155 L 34.6374,-60.2295 L 34.5358,-60.1557 L 34.4258,-60.0952 L 34.309,-60.0489
 L 34.1874,-60.0177 L 34.0628,-60.002 L 33.9372,-60.002 L 33.8126,-60.0177 L 33.691,-60.0489 L 33.5742,-60.0952
 L 33.4642,-60.1557 L 33.3626,-60.2295 L 33.271,-60.3155 L 33.191,-60.4122 L 33.1237,-60.5182 L 33.0702,-60.6319
 L 33.0314,-60.7513 L 33.0079,-60.8747 z
" stroke="black" fill="lightgray" stroke-width="0.5"/>
</svg>
