<?xml version="1.0" standalone="no"?>
<!DOCTYPE svg PUBLIC "-//W3C//DTD SVG 1.1//EN" "http://www.w3.org/Graphics/SVG/1.1/DTD/svg11.dtd">
<svg width="150mm" height="152mm" viewBox="-75 -76 150 152" xmlns="http://www.w3.org/2000/svg" version="1.1">
<title>OpenSCAD Model</title>
<path d="
M -74.5946,-73.872 L -74.5927,-73.8424 L -74.5887,-73.7789 L -74.5809,-73.6536 L -74.5573,-73.5302 L -74.5454,-73.4677
 L -74.5398,-73.4386 L -54.5087,14.7044 L -40.964,74.3054 L -40.9252,74.4248 L -40.916,74.453 L -40.8964,74.5136
 L -40.8838,74.5404 L -40.8566,74.598 L -40.8032,74.7116 L -40.7691,74.7653 L -40.7018,74.8714 L -40.6859,74.8964
 L -40.667,74.9192 L -40.587,75.016 L -40.5464,75.065 L -40.5248,75.0853 L -40.4333,75.1713 L -40.3869,75.2148
 L -40.2853,75.2887 L -40.2613,75.3061 L -40.2098,75.3435 L -40.154,75.3742 L -40.1281,75.3884 L -40.018,75.4489
 L -39.9012,75.4952 L -39.842,75.5186 L -39.8145,75.5295 L -39.7528,75.5453 L -39.7242,75.5527 L -39.6025,75.5839
 L -39.5731,75.5876 L -39.51,75.5956 L -39.3854,75.6113 L -11.0299,75.6113 L -10.9053,75.5956 L -10.8421,75.5876
 L -10.8127,75.5839 L -10.6911,75.5527 L -10.6624,75.5453 L -10.6007,75.5295 L -10.5732,75.5186 L -10.514,75.4952
 L -10.3972,75.4489 L -10.2872,75.3884 L -10.2612,75.3742 L -10.2054,75.3435 L -10.1539,75.3061 L -10.13,75.2887
 L -10.0284,75.2148 L -9.98198,75.1713 L -9.89043,75.0853 L -9.86884,75.065 L -9.82826,75.016 L -9.74822,74.9192
 L -9.72934,74.8964 L -9.71347,74.8714 L -9.64618,74.7653 L -9.61207,74.7116 L -9.5586,74.598 L -9.53149,74.5404
 L -9.51888,74.5136 L -9.49921,74.453 L -9.49005,74.4248 L -9.45125,74.3054 L -9.4457,74.2763 L -9.43377,74.2138
 L -9.41024,74.0904 L -0.0396712,19.5249 L 9.33089,74.0904 L 9.35442,74.2138 L 9.36635,74.2763 L 9.3719,74.3054
 L 9.41071,74.4248 L 9.41986,74.453 L 9.43953,74.5136 L 9.45214,74.5404 L 9.47925,74.598 L 9.53272,74.7116
 L 9.56683,74.7653 L 9.63412,74.8714 L 9.64999,74.8964 L 9.66887,74.9192 L 9.74892,75.016 L 9.7895,75.065
 L 9.81109,75.0853 L 9.90263,75.1713 L 9.94904,75.2148 L 10.0506,75.2887 L 10.0746,75.3061 L 10.1261,75.3435
 L 10.1819,75.3742 L 10.2078,75.3884 L 10.3179,75.4489 L 10.4347,75.4952 L 10.4938,75.5186 L 10.5214,75.5295
 L 10.583,75.5453 L 10.6117,75.5527 L 10.7334,75.5839 L 10.7628,75.5876 L 10.8259,75.5956 L 10.9505,75.6113
 L 39.306,75.6113 L 39.4306,75.5956 L 39.4938,75.5876 L 39.5232,75.5839 L 39.6448,75.5527 L 39.6735,75.5453
 L 39.7352,75.5295 L 39.7627,75.5186 L 39.8219,75.4952 L 39.9387,75.4489 L 40.0487,75.3884 L 40.0747,75.3742
 L 40.1304,75.3435 L 40.182,75.3061 L 40.2059,75.2887 L 40.3075,75.2148 L 40.3539,75.1713 L 40.4455,75.0853
 L 40.4671,75.065 L 40.5076,75.016 L 40.5877,74.9192 L 40.6066,74.8964 L 40.6224,74.8714 L 40.6897,74.7653
 L 40.7238,74.7116 L 40.7773,74.598 L 40.8044,74.5404 L 40.817,74.5136 L 40.8367,74.453 L 40.8458,74.4248
 L 40.8846,74.3054 L 54.4614,14.7044 L 74.5398,-73.4386 L 74.5454,-73.4677 L 74.5573,-73.5302 L 74.5809,-73.6536
 L 74.5887,-73.7789 L 74.5927,-73.8424 L 74.5946,-73.872 L 74.5927,-73.9016 L 74.5887,-73.9651 L 74.5809,-74.0904
 L 74.5573,-74.2138 L 74.5454,-74.2763 L 74.5398,-74.3054 L 74.501,-74.4248 L 74.4919,-74.453 L 74.4722,-74.5136
 L 74.4596,-74.5404 L 74.4325,-74.598 L 74.379,-74.7116 L 74.3449,-74.7653 L 74.2776,-74.8714 L 74.2618,-74.8964
 L 74.2429,-74.9192 L 74.1628,-75.016 L 74.1223,-75.065 L 74.1007,-75.0853 L 74.0091,-75.1713 L 73.9627,-75.2148
 L 73.8611,-75.2887 L 73.8372,-75.3061 L 73.7856,-75.3435 L 73.7299,-75.3742 L 73.7039,-75.3884 L 73.5939,-75.4489
 L 73.4771,-75.4952 L 73.4179,-75.5186 L 73.3904,-75.5295 L 73.3287,-75.5453 L 73.3,-75.5527 L 73.1784,-75.5839
 L 73.149,-75.5876 L 73.0858,-75.5956 L 72.9612,-75.6113 L 47.4905,-75.6113 L 47.3659,-75.5956 L 47.3027,-75.5876
 L 47.2733,-75.5839 L 47.1517,-75.5527 L 47.123,-75.5453 L 47.0614,-75.5295 L 47.0338,-75.5186 L 46.9746,-75.4952
 L 46.8579,-75.4489 L 46.7478,-75.3884 L 46.7219,-75.3742 L 46.6661,-75.3435 L 46.6146,-75.3061 L 46.5906,-75.2887
 L 46.489,-75.2148 L 46.4426,-75.1713 L 46.3511,-75.0853 L 46.3295,-75.065 L 46.2889,-75.016 L 46.2088,-74.9192
 L 46.19,-74.8964 L 46.1741,-74.8714 L 46.1068,-74.7653 L 46.0727,-74.7116 L 46.0192,-74.598 L 45.9921,-74.5404
 L 45.9795,-74.5136 L 45.9598,-74.453 L 45.9507,-74.4248 L 45.9119,-74.3054 L 27.7256,5.72044 L 12.6638,-74.0904
 L 12.6403,-74.2138 L 12.6283,-74.2763 L 12.6228,-74.3054 L 12.584,-74.4248 L 12.5748,-74.453 L 12.5552,-74.5136
 L 12.5426,-74.5404 L 12.5154,-74.598 L 12.462,-74.7116 L 12.4279,-74.7653 L 12.3606,-74.8714 L 12.3447,-74.8964
 L 12.3258,-74.9192 L 12.2458,-75.016 L 12.2052,-75.065 L 12.1836,-75.0853 L 12.0921,-75.1713 L 12.0457,-75.2148
 L 11.9441,-75.2887 L 11.9201,-75.3061 L 11.8686,-75.3435 L 11.8128,-75.3742 L 11.7869,-75.3884 L 11.6768,-75.4489
 L 11.56,-75.4952 L 11.5008,-75.5186 L 11.4733,-75.5295 L 11.4116,-75.5453 L 11.383,-75.5527 L 11.2613,-75.5839
 L 11.2319,-75.5876 L 11.1688,-75.5956 L 11.0442,-75.6113 L -11.1235,-75.6113 L -11.2481,-75.5956 L -11.3113,-75.5876
 L -11.3407,-75.5839 L -11.4623,-75.5527 L -11.491,-75.5453 L -11.5527,-75.5295 L -11.5802,-75.5186 L -11.6394,-75.4952
 L -11.7561,-75.4489 L -11.8662,-75.3884 L -11.8921,-75.3742 L -11.9479,-75.3435 L -11.9994,-75.3061 L -12.0234,-75.2887
 L -12.125,-75.2148 L -12.1714,-75.1713 L -12.263,-75.0853 L -12.2845,-75.065 L -12.3251,-75.016 L -12.4052,-74.9192
 L -12.424,-74.8964 L -12.4399,-74.8714 L -12.5072,-74.7653 L -12.5413,-74.7116 L -12.5948,-74.598 L -12.6219,-74.5404
 L -12.6345,-74.5136 L -12.6542,-74.453 L -12.6633,-74.4248 L -12.7021,-74.3054 L -12.7077,-74.2763 L -12.7196,-74.2138
 L -12.7431,-74.0904 L -27.8049,5.72052 L -45.9915,-74.3054 L -46.0304,-74.4248 L -46.0395,-74.453 L -46.0592,-74.5136
 L -46.0718,-74.5404 L -46.0989,-74.598 L -46.1524,-74.7116 L -46.1865,-74.7653 L -46.2538,-74.8714 L -46.2696,-74.8964
 L -46.2885,-74.9192 L -46.3686,-75.016 L -46.4091,-75.065 L -46.4307,-75.0853 L -46.5223,-75.1713 L -46.5687,-75.2148
 L -46.6703,-75.2887 L -46.6942,-75.3061 L -46.7458,-75.3435 L -46.8015,-75.3742 L -46.8275,-75.3884 L -46.9375,-75.4489
 L -47.0543,-75.4952 L -47.1135,-75.5186 L -47.141,-75.5295 L -47.2027,-75.5453 L -47.2314,-75.5527 L -47.353,-75.5839
 L -47.3824,-75.5876 L -47.4456,-75.5956 L -47.5702,-75.6113 L -72.9612,-75.6113 L -73.0858,-75.5956 L -73.149,-75.5876
 L -73.1784,-75.5839 L -73.3,-75.5527 L -73.3287,-75.5453 L -73.3904,-75.5295 L -73.4179,-75.5186 L -73.4771,-75.4952
 L -73.5939,-75.4489 L -73.7039,-75.3884 L -73.7299,-75.3742 L -73.7856,-75.3435 L -73.8372,-75.3061 L -73.8611,-75.2887
 L -73.9627,-75.2148 L -74.0091,-75.1713 L -74.1007,-75.0853 L -74.1223,-75.065 L -74.1628,-75.016 L -74.2429,-74.9192
 L -74.2618,-74.8964 L -74.2776,-74.8714 L -74.3449,-74.7653 L -74.379,-74.7116 L -74.4325,-74.598 L -74.4596,-74.5404
 L -74.4722,-74.5136 L -74.4919,-74.453 L -74.501,-74.4248 L -74.5398,-74.3054 L -74.5454,-74.2763 L -74.5573,-74.2138
 L -74.5809,-74.0904 L -74.5887,-73.9651 L -74.5927,-73.9016 z
M -59,-61 L -58.9921,-61.1253 L -58.9686,-61.2487 L -58.9298,-61.3681 L -58.8763,-61.4818 L -58.809,-61.5878
 L -58.729,-61.6845 L -58.6374,-61.7705 L -58.5358,-61.8443 L -58.4258,-61.9048 L -58.309,-61.9511 L -58.1874,-61.9823
 L -58.0628,-61.998 L -57.9372,-61.998 L -57.8126,-61.9823 L -57.691,-61.9511 L -57.5742,-61.9048 L -57.4642,-61.8443
 L -57.3626,-61.7705 L -57.271,-61.6845 L -57.191,-61.5878 L -57.1237,-61.4818 L -57.0702,-61.3681 L -57.0314,-61.2487
 L -57.0079,-61.1253 L -57,-61 L -57.0079,-60.8747 L -57.0314,-60.7513 L -57.0702,-60.6319 L -57.1237,-60.5182
 L -57.191,-60.4122 L -57.271,-60.3155 L -57.3626,-60.2295 L -57.4642,-60.1557 L -57.5742,-60.0952 L -57.691,-60.0489
 L -57.8126,-60.0177 L -57.9372,-60.002 L -58.0628,-60.002 L -58.1874,-60.0177 L -58.309,-60.0489 L -58.4258,-60.0952
 L -58.5358,-60.1557 L -58.6374,-60.2295 L -58.729,-60.3155 L -58.809,-60.4122 L -58.8763,-60.5182 L -58.9298,-60.6319
 L -58.9686,-60.7513 L -58.9921,-60.8747 z
M -27,61 L -26.9921,60.8747 L -26.9686,60.7513 L -26.9298,60.6319 L -26.8763,60.5182 L -26.809,60.4122
 L -26.729,60.3155 L -26.6374,60.2295 L -26.5358,60.1557 L -26.4258,60.0952 L -26.309,60.0489 L -26.1874,60.0177
 L -26.0628,60.002 L -25.9372,60.002 L -25.8126,60.0177 L -25.691,60.0489 L -25.5742,60.0952 L -25.4642,60.1557
 L -25.3626,60.2295 L -25.271,60.3155 L -25.191,60.4122 L -25.1237,60.5182 L -25.0702,60.6319 L -25.0314,60.7513
 L -25.0079,60.8747 L -25,61 L -25.0079,61.1253 L -25.0314,61.2487 L -25.0702,61.3681 L -25.1237,61.4818
 L -25.191,61.5878 L -25.271,61.6845 L -25.3626,61.7705 L -25.4642,61.8443 L -25.5742,61.9048 L -25.691,61.9511
 L -25.8126,61.9823 L -25.9372,61.998 L -26.0628,61.998 L -26.1874,61.9823 L -26.309,61.9511 L -26.4258,61.9048
 L -26.5358,61.8443 L -26.6374,61.7705 L -26.729,61.6845 L -26.809,61.5878 L -26.8763,61.4818 L -26.9298,61.3681
 L -26.9686,61.2487 L -26.9921,61.1253 z
M -1,-61 L -0.992114,-61.1253 L -0.968583,-61.2487 L -0.929776,-61.3681 L -0.876307,-61.4818 L -0.809016,-61.5878
 L -0.728969,-61.6845 L -0.637424,-61.7705 L -0.535827,-61.8443 L -0.425778,-61.9048 L -0.309016,-61.9511 L -0.187381,-61.9823
 L -0.0627899,-61.998 L 0.0627899,-61.998 L 0.187381,-61.9823 L 0.309016,-61.9511 L 0.425778,-61.9048 L 0.535827,-61.8443
 L 0.637424,-61.7705 L 0.728969,-61.6845 L 0.809016,-61.5878 L 0.876307,-61.4818 L 0.929776,-61.3681 L 0.968583,-61.2487
 L 0.992114,-61.1253 L 1,-61 L 0.992114,-60.8747 L 0.968583,-60.7513 L 0.929776,-60.6319 L 0.876307,-60.5182
 L 0.809016,-60.4122 L 0.728969,-60.3155 L 0.637424,-60.2295 L 0.535827,-60.1557 L 0.425778,-60.0952 L 0.309016,-60.0489
 L 0.187381,-60.0177 L 0.0627899,-60.002 L -0.0627899,-60.002 L -0.187381,-60.0177 L -0.309016,-60.0489 L -0.425778,-60.0952
 L -0.535827,-60.1557 L -0.637424,-60.2295 L -0.728969,-60.3155 L -0.809016,-60.4122 L -0.876307,-60.5182 L -0.929776,-60.6319
 L -0.968583,-60.7513 L -0.992114,-60.8747 z
M 25,61 L 25.0079,60.8747 L 25.0314,60.7513 L 25.0702,60.6319 L 25.1237,60.5182 L 25.191,60.4122
 L 25.271,60.3155 L 25.3626,60.2295 L 25.4642,60.1557 L 25.5742,60.0952 L 25.691,60.0489 L 25.8126,60.0177
 L 25.9372,60.002 L 26.0628,60.002 L 26.1874,60.0177 L 26.309,60.0489 L 26.4258,60.0952 L 26.5358,60.1557
 L 26.6374,60.2295 L 26.729,60.3155 L 26.809,60.4122 L 26.8763,60.5182 L 26.9298,60.6319 L 26.9686,60.7513
 L 26.9921,60.8747 L 27,61 L 26.9921,61.1253 L 26.9686,61.2487 L 26.9298,61.3681 L 26.8763,61.4818
 L 26.809,61.5878 L 26.729,61.6845 L 26.6374,61.7705 L 26.5358,61.8443 L 26.4258,61.9048 L 26.309,61.9511
 L 26.1874,61.9823 L 26.0628,61.998 L 25.9372,61.998 L 25.8126,61.9823 L 25.691,61.9511 L 25.5742,61.9048
 L 25.4642,61.8443 L 25.3626,61.7705 L 25.271,61.6845 L 25.191,61.5878 L 25.1237,61.4818 L 25.0702,61.3681
 L 25.0314,61.2487 L 25.0079,61.1253 z
M 57,-61 L 57.0079,-61.1253 L 57.0314,-61.2487 L 57.0702,-61.3681 L 57.1237,-61.4818 L 57.191,-61.5878
 L 57.271,-61.6845 L 57.3626,-61.7705 L 57.4642,-61.8443 L 57.5742,-61.9048 L 57.691,-61.9511 L 57.8126,-61.9823
 L 57.9372,-61.998 L 58.0628,-61.998 L 58.1874,-61.9823 L 58.309,-61.9511 L 58.4258,-61.9048 L 58.5358,-61.8443
 L 58.6374,-61.7705 L 58.729,-61.6845 L 58.809,-61.5878 L 58.8763,-61.4818 L 58.9298,-61.3681 L 58.9686,-61.2487
 L 58.9921,-61.1253 L 59,-61 L 58.9921,-60.8747 L 58.9686,-60.7513 L 58.9298,-60.6319 L 58.8763,-60.5182
 L 58.809,-60.4122 L 58.729,-60.3155 L 58.6374,-60.2295 L 58.5358,-60.1557 L 58.4258,-60.0952 L 58.309,-60.0489
 L 58.1874,-60.0177 L 58.0628,-60.002 L 57.9372,-60.002 L 57.8126,-60.0177 L 57.691,-60.0489 L 57.5742,-60.0952
 L 57.4642,-60.1557 L 57.3626,-60.2295 L 57.271,-60.3155 L 57.191,-60.4122 L 57.1237,-60.5182 L 57.0702,-60.6319
 L 57.0314,-60.7513 L 57.0079,-60.8747 z
" stroke="black" fill="lightgray" stroke-width="0.5"/>
</svg>
