<?xml version="1.0" standalone="no"?>
<!DOCTYPE svg PUBLIC "-//W3C//DTD SVG 1.1//EN" "http://www.w3.org/Graphics/SVG/1.1/DTD/svg11.dtd">
<svg width="102mm" height="152mm" viewBox="-51 -76 102 152" xmlns="http://www.w3.org/2000/svg" version="1.1">
<title>OpenSCAD Model</title>
<path d="
M -50.9908,73.872 L -50.9889,73.9016 L -50.9849,73.9651 L -50.982,74.0114 L -50.977,74.0904 L -50.9535,74.2138
 L -50.9416,74.2763 L -50.936,74.3054 L -50.9116,74.3807 L -50.8972,74.4249 L -50.8881,74.453 L -50.8684,74.5136
 L -50.8558,74.5404 L -50.8287,74.598 L -50.7752,74.7116 L -50.7411,74.7653 L -50.7163,74.8045 L -50.6738,74.8714
 L -50.6579,74.8964 L -50.6391,74.9192 L -50.5886,74.9802 L -50.559,75.016 L -50.5184,75.065 L -50.4968,75.0853
 L -50.4391,75.1395 L -50.4053,75.1713 L -50.3589,75.2148 L -50.2948,75.2614 L -50.2573,75.2887 L -50.2333,75.3061
 L -50.1818,75.3435 L -50.126,75.3742 L -50.1001,75.3884 L -49.99,75.4489 L -49.9164,75.4781 L -49.8733,75.4951
 L -49.8141,75.5186 L -49.7866,75.5295 L -49.7249,75.5453 L -49.6962,75.5527 L -49.5746,75.5839 L -49.5452,75.5876
 L -49.482,75.5956 L -49.436,75.6014 L -49.3574,75.6113 L -21.7786,75.6113 L -21.654,75.5956 L -21.5908,75.5876
 L -21.5614,75.5839 L -21.4398,75.5527 L -21.4111,75.5453 L -21.3495,75.5295 L -21.3219,75.5186 L -21.2627,75.4951
 L -21.146,75.4489 L -21.0359,75.3884 L -21.01,75.3742 L -20.9542,75.3435 L -20.9027,75.3061 L -20.8787,75.2887
 L -20.8412,75.2614 L -20.7771,75.2148 L -20.7307,75.1713 L -20.6969,75.1395 L -20.6392,75.0853 L -20.6176,75.065
 L -20.577,75.016 L -20.5474,74.9802 L -20.4969,74.9192 L -20.4781,74.8964 L -20.4622,74.8714 L -20.4197,74.8045
 L -20.3949,74.7653 L -20.3608,74.7116 L -7.55193,48.0932 L 0,32.3993 L 7.55193,48.0932 L 20.3608,74.7116
 L 20.3949,74.7653 L 20.4197,74.8045 L 20.4622,74.8714 L 20.4781,74.8964 L 20.4969,74.9192 L 20.5474,74.9802
 L 20.577,75.016 L 20.6176,75.065 L 20.6392,75.0853 L 20.6969,75.1395 L 20.7307,75.1713 L 20.7771,75.2148
 L 20.8412,75.2614 L 20.8787,75.2887 L 20.9027,75.3061 L 20.9542,75.3435 L 21.01,75.3742 L 21.0359,75.3884
 L 21.146,75.4489 L 21.2627,75.4951 L 21.3219,75.5186 L 21.3495,75.5295 L 21.4111,75.5453 L 21.4398,75.5527
 L 21.5614,75.5839 L 21.5908,75.5876 L 21.654,75.5956 L 21.7786,75.6113 L 49.3574,75.6113 L 49.436,75.6014
 L 49.482,75.5956 L 49.5452,75.5876 L 49.5746,75.5839 L 49.6962,75.5527 L 49.7249,75.5453 L 49.7866,75.5295
 L 49.8141,75.5186 L 49.8733,75.4951 L 49.9164,75.4781 L 49.99,75.4489 L 50.1001,75.3884 L 50.126,75.3742
 L 50.1818,75.3435 L 50.2333,75.3061 L 50.2573,75.2887 L 50.2948,75.2614 L 50.3589,75.2148 L 50.4053,75.1713
 L 50.4391,75.1395 L 50.4968,75.0853 L 50.5184,75.065 L 50.559,75.016 L 50.5886,74.9802 L 50.6391,74.9192
 L 50.6579,74.8964 L 50.6738,74.8714 L 50.7163,74.8045 L 50.7411,74.7653 L 50.7752,74.7116 L 50.8287,74.598
 L 50.8558,74.5404 L 50.8684,74.5136 L 50.8881,74.453 L 50.8972,74.4249 L 50.9116,74.3807 L 50.936,74.3054
 L 50.9416,74.2763 L 50.9535,74.2138 L 50.977,74.0904 L 50.982,74.0114 L 50.9849,73.9651 L 50.9889,73.9016
 L 50.9908,73.872 L 50.9889,73.8424 L 50.9849,73.7789 L 50.982,73.7326 L 50.977,73.6536 L 50.9535,73.5302
 L 50.9416,73.4677 L 50.936,73.4386 L 50.9116,73.3633 L 50.8972,73.3192 L 50.8881,73.291 L 50.8684,73.2304
 L 50.8558,73.2036 L 50.8287,73.146 L 50.7752,73.0324 L 42.6884,56.2367 L 28.8745,27.5464 L 20.5178,10.1901
 L 15.6115,-0 L 20.5178,-10.1901 L 28.8745,-27.5464 L 42.6884,-56.2367 L 50.7752,-73.0324 L 50.8287,-73.146
 L 50.8558,-73.2036 L 50.8684,-73.2304 L 50.8881,-73.291 L 50.8972,-73.3192 L 50.9116,-73.3633 L 50.936,-73.4386
 L 50.9416,-73.4677 L 50.9535,-73.5302 L 50.977,-73.6536 L 50.982,-73.7326 L 50.9849,-73.7789 L 50.9889,-73.8424
 L 50.9908,-73.872 L 50.9889,-73.9016 L 50.9849,-73.9651 L 50.982,-74.0114 L 50.977,-74.0904 L 50.9535,-74.2138
 L 50.9416,-74.2763 L 50.936,-74.3054 L 50.9116,-74.3807 L 50.8972,-74.4249 L 50.8881,-74.453 L 50.8684,-74.5136
 L 50.8558,-74.5404 L 50.8287,-74.598 L 50.7752,-74.7116 L 50.7411,-74.7653 L 50.7163,-74.8045 L 50.6738,-74.8714
 L 50.6579,-74.8964 L 50.6391,-74.9192 L 50.5886,-74.9802 L 50.559,-75.016 L 50.5184,-75.065 L 50.4968,-75.0853
 L 50.4391,-75.1395 L 50.4053,-75.1713 L 50.3589,-75.2148 L 50.2948,-75.2614 L 50.2573,-75.2887 L 50.2333,-75.3061
 L 50.1818,-75.3435 L 50.126,-75.3742 L 50.1001,-75.3884 L 49.99,-75.4489 L 49.9164,-75.4781 L 49.8733,-75.4951
 L 49.8141,-75.5186 L 49.7866,-75.5295 L 49.7249,-75.5453 L 49.6962,-75.5527 L 49.5746,-75.5839 L 49.5452,-75.5876
 L 49.482,-75.5956 L 49.436,-75.6014 L 49.3574,-75.6113 L 21.7786,-75.6113 L 21.654,-75.5956 L 21.5908,-75.5876
 L 21.5614,-75.5839 L 21.4398,-75.5527 L 21.4111,-75.5453 L 21.3495,-75.5295 L 21.3219,-75.5186 L 21.2627,-75.4951
 L 21.146,-75.4489 L 21.0359,-75.3884 L 21.01,-75.3742 L 20.9542,-75.3435 L 20.9027,-75.3061 L 20.8787,-75.2887
 L 20.8412,-75.2614 L 20.7771,-75.2148 L 20.7307,-75.1713 L 20.6969,-75.1395 L 20.6392,-75.0853 L 20.6176,-75.065
 L 20.577,-75.016 L 20.5474,-74.9802 L 20.4969,-74.9192 L 20.4781,-74.8964 L 20.4622,-74.8714 L 20.4197,-74.8045
 L 20.3949,-74.7653 L 20.3608,-74.7116 L 7.55193,-48.0932 L 0,-32.3993 L -7.55193,-48.0932 L -20.3608,-74.7116
 L -20.3949,-74.7653 L -20.4197,-74.8045 L -20.4622,-74.8714 L -20.4781,-74.8964 L -20.4969,-74.9192 L -20.5474,-74.9802
 L -20.577,-75.016 L -20.6176,-75.065 L -20.6392,-75.0853 L -20.6969,-75.1395 L -20.7307,-75.1713 L -20.7771,-75.2148
 L -20.8412,-75.2614 L -20.8787,-75.2887 L -20.9027,-75.3061 L -20.9542,-75.3435 L -21.01,-75.3742 L -21.0359,-75.3884
 L -21.146,-75.4489 L -21.2627,-75.4951 L -21.3219,-75.5186 L -21.3495,-75.5295 L -21.4111,-75.5453 L -21.4398,-75.5527
 L -21.5614,-75.5839 L -21.5908,-75.5876 L -21.654,-75.5956 L -21.7786,-75.6113 L -49.3574,-75.6113 L -49.436,-75.6014
 L -49.482,-75.5956 L -49.5452,-75.5876 L -49.5746,-75.5839 L -49.6962,-75.5527 L -49.7249,-75.5453 L -49.7866,-75.5295
 L -49.8141,-75.5186 L -49.8733,-75.4951 L -49.9164,-75.4781 L -49.99,-75.4489 L -50.1001,-75.3884 L -50.126,-75.3742
 L -50.1818,-75.3435 L -50.2333,-75.3061 L -50.2573,-75.2887 L -50.2948,-75.2614 L -50.3589,-75.2148 L -50.4053,-75.1713
 L -50.4391,-75.1395 L -50.4968,-75.0853 L -50.5184,-75.065 L -50.559,-75.016 L -50.5886,-74.9802 L -50.6391,-74.9192
 L -50.6579,-74.8964 L -50.6738,-74.8714 L -50.7163,-74.8045 L -50.7411,-74.7653 L -50.7752,-74.7116 L -50.8287,-74.598
 L -50.8558,-74.5404 L -50.8684,-74.5136 L -50.8881,-74.453 L -50.8972,-74.4249 L -50.9116,-74.3807 L -50.936,-74.3054
 L -50.9416,-74.2763 L -50.9535,-74.2138 L -50.977,-74.0904 L -50.982,-74.0114 L -50.9849,-73.9651 L -50.9889,-73.9016
 L -50.9908,-73.872 L -50.9889,-73.8424 L -50.9849,-73.7789 L -50.982,-73.7326 L -50.977,-73.6536 L -50.9535,-73.5302
 L -50.9416,-73.4677 L -50.936,-73.4386 L -50.9116,-73.3633 L -50.8972,-73.3192 L -50.8881,-73.291 L -50.8684,-73.2304
 L -50.8558,-73.2036 L -50.8287,-73.146 L -50.7752,-73.0324 L -42.6884,-56.2367 L -28.8745,-27.5464 L -20.5178,-10.1901
 L -15.6115,-0 L -20.5178,10.1901 L -28.8745,27.5464 L -42.6884,56.2367 L -50.7752,73.0324 L -50.8287,73.146
 L -50.8558,73.2036 L -50.8684,73.2304 L -50.8881,73.291 L -50.8972,73.3192 L -50.9116,73.3633 L -50.936,73.4386
 L -50.9416,73.4677 L -50.9535,73.5302 L -50.977,73.6536 L -50.982,73.7326 L -50.9849,73.7789 L -50.9889,73.8424
 z
M -31,61 L -30.9921,60.8747 L -30.9686,60.7513 L -30.9298,60.6319 L -30.8763,60.5182 L -30.809,60.4122
 L -30.729,60.3155 L -30.6374,60.2295 L -30.5358,60.1557 L -30.4258,60.0952 L -30.309,60.0489 L -30.1874,60.0177
 L -30.0628,60.002 L -29.9372,60.002 L -29.8126,60.0177 L -29.691,60.0489 L -29.5742,60.0952 L -29.4642,60.1557
 L -29.3626,60.2295 L -29.271,60.3155 L -29.191,60.4122 L -29.1237,60.5182 L -29.0702,60.6319 L -29.0314,60.7513
 L -29.0079,60.8747 L -29,61 L -29.0079,61.1253 L -29.0314,61.2487 L -29.0702,61.3681 L -29.1237,61.4818
 L -29.191,61.5878 L -29.271,61.6845 L -29.3626,61.7705 L -29.4642,61.8443 L -29.5742,61.9048 L -29.691,61.9511
 L -29.8126,61.9823 L -29.9372,61.998 L -30.0628,61.998 L -30.1874,61.9823 L -30.309,61.9511 L -30.4258,61.9048
 L -30.5358,61.8443 L -30.6374,61.7705 L -30.729,61.6845 L -30.809,61.5878 L -30.8763,61.4818 L -30.9298,61.3681
 L -30.9686,61.2487 L -30.9921,61.1253 z
M -31,-61 L -30.9921,-61.1253 L -30.9686,-61.2487 L -30.9298,-61.3681 L -30.8763,-61.4818 L -30.809,-61.5878
 L -30.729,-61.6845 L -30.6374,-61.7705 L -30.5358,-61.8443 L -30.4258,-61.9048 L -30.309,-61.9511 L -30.1874,-61.9823
 L -30.0628,-61.998 L -29.9372,-61.998 L -29.8126,-61.9823 L -29.691,-61.9511 L -29.5742,-61.9048 L -29.4642,-61.8443
 L -29.3626,-61.7705 L -29.271,-61.6845 L -29.191,-61.5878 L -29.1237,-61.4818 L -29.0702,-61.3681 L -29.0314,-61.2487
 L -29.0079,-61.1253 L -29,-61 L -29.0079,-60.8747 L -29.0314,-60.7513 L -29.0702,-60.6319 L -29.1237,-60.5182
 L -29.191,-60.4122 L -29.271,-60.3155 L -29.3626,-60.2295 L -29.4642,-60.1557 L -29.5742,-60.0952 L -29.691,-60.0489
 L -29.8126,-60.0177 L -29.9372,-60.002 L -30.0628,-60.002 L -30.1874,-60.0177 L -30.309,-60.0489 L -30.4258,-60.0952
 L -30.5358,-60.1557 L -30.6374,-60.2295 L -30.729,-60.3155 L -30.809,-60.4122 L -30.8763,-60.5182 L -30.9298,-60.6319
 L -30.9686,-60.7513 L -30.9921,-60.8747 z
M 29,61 L 29.0079,60.8747 L 29.0314,60.7513 L 29.0702,60.6319 L 29.1237,60.5182 L 29.191,60.4122
 L 29.271,60.3155 L 29.3626,60.2295 L 29.4642,60.1557 L 29.5742,60.0952 L 29.691,60.0489 L 29.8126,60.0177
 L 29.9372,60.002 L 30.0628,60.002 L 30.1874,60.0177 L 30.309,60.0489 L 30.4258,60.0952 L 30.5358,60.1557
 L 30.6374,60.2295 L 30.729,60.3155 L 30.809,60.4122 L 30.8763,60.5182 L 30.9298,60.6319 L 30.9686,60.7513
 L 30.9921,60.8747 L 31,61 L 30.9921,61.1253 L 30.9686,61.2487 L 30.9298,61.3681 L 30.8763,61.4818
 L 30.809,61.5878 L 30.729,61.6845 L 30.6374,61.7705 L 30.5358,61.8443 L 30.4258,61.9048 L 30.309,61.9511
 L 30.1874,61.9823 L 30.0628,61.998 L 29.9372,61.998 L 29.8126,61.9823 L 29.691,61.9511 L 29.5742,61.9048
 L 29.4642,61.8443 L 29.3626,61.7705 L 29.271,61.6845 L 29.191,61.5878 L 29.1237,61.4818 L 29.0702,61.3681
 L 29.0314,61.2487 L 29.0079,61.1253 z
M 29,-61 L 29.0079,-61.1253 L 29.0314,-61.2487 L 29.0702,-61.3681 L 29.1237,-61.4818 L 29.191,-61.5878
 L 29.271,-61.6845 L 29.3626,-61.7705 L 29.4642,-61.8443 L 29.5742,-61.9048 L 29.691,-61.9511 L 29.8126,-61.9823
 L 29.9372,-61.998 L 30.0628,-61.998 L 30.1874,-61.9823 L 30.309,-61.9511 L 30.4258,-61.9048 L 30.5358,-61.8443
 L 30.6374,-61.7705 L 30.729,-61.6845 L 30.809,-61.5878 L 30.8763,-61.4818 L 30.9298,-61.3681 L 30.9686,-61.2487
 L 30.9921,-61.1253 L 31,-61 L 30.9921,-60.8747 L 30.9686,-60.7513 L 30.9298,-60.6319 L 30.8763,-60.5182
 L 30.809,-60.4122 L 30.729,-60.3155 L 30.6374,-60.2295 L 30.5358,-60.1557 L 30.4258,-60.0952 L 30.309,-60.0489
 L 30.1874,-60.0177 L 30.0628,-60.002 L 29.9372,-60.002 L 29.8126,-60.0177 L 29.691,-60.0489 L 29.5742,-60.0952
 L 29.4642,-60.1557 L 29.3626,-60.2295 L 29.271,-60.3155 L 29.191,-60.4122 L 29.1237,-60.5182 L 29.0702,-60.6319
 L 29.0314,-60.7513 L 29.0079,-60.8747 z
" stroke="black" fill="lightgray" stroke-width="0.5"/>
</svg>
