<?xml version="1.0" standalone="no"?>
<!DOCTYPE svg PUBLIC "-//W3C//DTD SVG 1.1//EN" "http://www.w3.org/Graphics/SVG/1.1/DTD/svg11.dtd">
<svg width="102mm" height="152mm" viewBox="-51 -76 102 152" xmlns="http://www.w3.org/2000/svg" version="1.1">
<title>OpenSCAD Model</title>
<path d="
M -50.9908,-73.872 L -50.9889,-73.8424 L -50.9849,-73.7789 L -50.977,-73.6536 L -50.9535,-73.5302 L -50.9416,-73.4677
 L -50.936,-73.4386 L -50.8972,-73.3192 L -50.8881,-73.291 L -50.8684,-73.2304 L -28.9804,-23.9824 L -14.0548,9.6002
 L -14.0548,73.872 L -14.0529,73.9016 L -14.0489,73.9651 L -14.041,74.0904 L -14.0175,74.2138 L -14.0056,74.2763
 L -14,74.3054 L -13.9612,74.4248 L -13.9521,74.453 L -13.9324,74.5136 L -13.9198,74.5404 L -13.8927,74.598
 L -13.8392,74.7116 L -13.8051,74.7653 L -13.7378,74.8714 L -13.7219,74.8964 L -13.7031,74.9192 L -13.623,75.016
 L -13.5824,75.065 L -13.5608,75.0853 L -13.4693,75.1713 L -13.4229,75.2148 L -13.3213,75.2887 L -13.2973,75.3061
 L -13.2458,75.3435 L -13.19,75.3742 L -13.1641,75.3884 L -13.054,75.4489 L -12.9373,75.4952 L -12.8781,75.5186
 L -12.8505,75.5295 L -12.7889,75.5453 L -12.7602,75.5527 L -12.6386,75.5839 L -12.6092,75.5876 L -12.546,75.5956
 L -12.4214,75.6113 L 12.4214,75.6113 L 12.546,75.5956 L 12.6092,75.5876 L 12.6386,75.5839 L 12.7602,75.5527
 L 12.7889,75.5453 L 12.8505,75.5295 L 12.8781,75.5186 L 12.9373,75.4952 L 13.054,75.4489 L 13.1641,75.3884
 L 13.19,75.3742 L 13.2458,75.3435 L 13.2973,75.3061 L 13.3213,75.2887 L 13.4229,75.2148 L 13.4693,75.1713
 L 13.5608,75.0853 L 13.5824,75.065 L 13.623,75.016 L 13.7031,74.9192 L 13.7219,74.8964 L 13.7378,74.8714
 L 13.8051,74.7653 L 13.8392,74.7116 L 13.8927,74.598 L 13.9198,74.5404 L 13.9324,74.5136 L 13.9521,74.453
 L 13.9612,74.4248 L 14,74.3054 L 14.0056,74.2763 L 14.0175,74.2138 L 14.041,74.0904 L 14.0489,73.9651
 L 14.0529,73.9016 L 14.0548,73.872 L 14.0548,9.6002 L 28.9804,-23.9824 L 50.8684,-73.2304 L 50.8881,-73.291
 L 50.8972,-73.3192 L 50.936,-73.4386 L 50.9416,-73.4677 L 50.9535,-73.5302 L 50.977,-73.6536 L 50.9849,-73.7789
 L 50.9889,-73.8424 L 50.9908,-73.872 L 50.9889,-73.9016 L 50.9849,-73.9651 L 50.977,-74.0904 L 50.9535,-74.2138
 L 50.9416,-74.2763 L 50.936,-74.3054 L 50.8972,-74.4248 L 50.8881,-74.453 L 50.8684,-74.5136 L 50.8558,-74.5404
 L 50.8287,-74.598 L 50.7752,-74.7116 L 50.7411,-74.7653 L 50.6738,-74.8714 L 50.6579,-74.8964 L 50.6391,-74.9192
 L 50.559,-75.016 L 50.5184,-75.065 L 50.4968,-75.0853 L 50.4053,-75.1713 L 50.3589,-75.2148 L 50.2573,-75.2887
 L 50.2333,-75.3061 L 50.1818,-75.3435 L 50.126,-75.3742 L 50.1001,-75.3884 L 49.99,-75.4489 L 49.8733,-75.4952
 L 49.8141,-75.5186 L 49.7865,-75.5295 L 49.7249,-75.5453 L 49.6962,-75.5527 L 49.5746,-75.5839 L 49.5452,-75.5876
 L 49.482,-75.5956 L 49.3574,-75.6113 L 22.4626,-75.6113 L 22.338,-75.5956 L 22.2748,-75.5876 L 22.2454,-75.5839
 L 22.1238,-75.5527 L 22.0951,-75.5453 L 22.0334,-75.5295 L 22.0059,-75.5186 L 21.9467,-75.4952 L 21.83,-75.4489
 L 21.7199,-75.3884 L 21.694,-75.3742 L 21.6382,-75.3435 L 21.5867,-75.3061 L 21.5627,-75.2887 L 21.4611,-75.2148
 L 21.4147,-75.1713 L 21.3232,-75.0853 L 21.3016,-75.065 L 21.261,-75.016 L 21.1809,-74.9192 L 21.1621,-74.8964
 L 21.1462,-74.8714 L 21.0789,-74.7653 L 21.0448,-74.7116 L 20.9913,-74.598 L 20.9642,-74.5404 L 20.9516,-74.5136
 L 0,-28.801 L -20.9516,-74.5136 L -20.9642,-74.5404 L -20.9913,-74.598 L -21.0448,-74.7116 L -21.0789,-74.7653
 L -21.1462,-74.8714 L -21.1621,-74.8964 L -21.1809,-74.9192 L -21.261,-75.016 L -21.3016,-75.065 L -21.3232,-75.0853
 L -21.4147,-75.1713 L -21.4611,-75.2148 L -21.5627,-75.2887 L -21.5867,-75.3061 L -21.6382,-75.3435 L -21.694,-75.3742
 L -21.7199,-75.3884 L -21.83,-75.4489 L -21.9467,-75.4952 L -22.0059,-75.5186 L -22.0334,-75.5295 L -22.0951,-75.5453
 L -22.1238,-75.5527 L -22.2454,-75.5839 L -22.2748,-75.5876 L -22.338,-75.5956 L -22.4626,-75.6113 L -49.3574,-75.6113
 L -49.482,-75.5956 L -49.5452,-75.5876 L -49.5746,-75.5839 L -49.6962,-75.5527 L -49.7249,-75.5453 L -49.7865,-75.5295
 L -49.8141,-75.5186 L -49.8733,-75.4952 L -49.99,-75.4489 L -50.1001,-75.3884 L -50.126,-75.3742 L -50.1818,-75.3435
 L -50.2333,-75.3061 L -50.2573,-75.2887 L -50.3589,-75.2148 L -50.4053,-75.1713 L -50.4968,-75.0853 L -50.5184,-75.065
 L -50.559,-75.016 L -50.6391,-74.9192 L -50.6579,-74.8964 L -50.6738,-74.8714 L -50.7411,-74.7653 L -50.7752,-74.7116
 L -50.8287,-74.598 L -50.8558,-74.5404 L -50.8684,-74.5136 L -50.8881,-74.453 L -50.8972,-74.4248 L -50.936,-74.3054
 L -50.9416,-74.2763 L -50.9535,-74.2138 L -50.977,-74.0904 L -50.9849,-73.9651 L -50.9889,-73.9016 z
M -32,-61 L -31.9921,-61.1253 L -31.9686,-61.2487 L -31.9298,-61.3681 L -31.8763,-61.4818 L -31.809,-61.5878
 L -31.729,-61.6845 L -31.6374,-61.7705 L -31.5358,-61.8443 L -31.4258,-61.9048 L -31.309,-61.9511 L -31.1874,-61.9823
 L -31.0628,-61.998 L -30.9372,-61.998 L -30.8126,-61.9823 L -30.691,-61.9511 L -30.5742,-61.9048 L -30.4642,-61.8443
 L -30.3626,-61.7705 L -30.271,-61.6845 L -30.191,-61.5878 L -30.1237,-61.4818 L -30.0702,-61.3681 L -30.0314,-61.2487
 L -30.0079,-61.1253 L -30,-61 L -30.0079,-60.8747 L -30.0314,-60.7513 L -30.0702,-60.6319 L -30.1237,-60.5182
 L -30.191,-60.4122 L -30.271,-60.3155 L -30.3626,-60.2295 L -30.4642,-60.1557 L -30.5742,-60.0952 L -30.691,-60.0489
 L -30.8126,-60.0177 L -30.9372,-60.002 L -31.0628,-60.002 L -31.1874,-60.0177 L -31.309,-60.0489 L -31.4258,-60.0952
 L -31.5358,-60.1557 L -31.6374,-60.2295 L -31.729,-60.3155 L -31.809,-60.4122 L -31.8763,-60.5182 L -31.9298,-60.6319
 L -31.9686,-60.7513 L -31.9921,-60.8747 z
M -1,61 L -0.992114,60.8747 L -0.968583,60.7513 L -0.929776,60.6319 L -0.876307,60.5182 L -0.809016,60.4122
 L -0.728969,60.3155 L -0.637424,60.2295 L -0.535827,60.1557 L -0.425778,60.0952 L -0.309016,60.0489 L -0.187381,60.0177
 L -0.0627899,60.002 L 0.0627899,60.002 L 0.187381,60.0177 L 0.309016,60.0489 L 0.425778,60.0952 L 0.535827,60.1557
 L 0.637424,60.2295 L 0.728969,60.3155 L 0.809016,60.4122 L 0.876307,60.5182 L 0.929776,60.6319 L 0.968583,60.7513
 L 0.992114,60.8747 L 1,61 L 0.992114,61.1253 L 0.968583,61.2487 L 0.929776,61.3681 L 0.876307,61.4818
 L 0.809016,61.5878 L 0.728969,61.6845 L 0.637424,61.7705 L 0.535827,61.8443 L 0.425778,61.9048 L 0.309016,61.9511
 L 0.187381,61.9823 L 0.0627899,61.998 L -0.0627899,61.998 L -0.187381,61.9823 L -0.309016,61.9511 L -0.425778,61.9048
 L -0.535827,61.8443 L -0.637424,61.7705 L -0.728969,61.6845 L -0.809016,61.5878 L -0.876307,61.4818 L -0.929776,61.3681
 L -0.968583,61.2487 L -0.992114,61.1253 z
M 30,-61 L 30.0079,-61.1253 L 30.0314,-61.2487 L 30.0702,-61.3681 L 30.1237,-61.4818 L 30.191,-61.5878
 L 30.271,-61.6845 L 30.3626,-61.7705 L 30.4642,-61.8443 L 30.5742,-61.9048 L 30.691,-61.9511 L 30.8126,-61.9823
 L 30.9372,-61.998 L 31.0628,-61.998 L 31.1874,-61.9823 L 31.309,-61.9511 L 31.4258,-61.9048 L 31.5358,-61.8443
 L 31.6374,-61.7705 L 31.729,-61.6845 L 31.809,-61.5878 L 31.8763,-61.4818 L 31.9298,-61.3681 L 31.9686,-61.2487
 L 31.9921,-61.1253 L 32,-61 L 31.9921,-60.8747 L 31.9686,-60.7513 L 31.9298,-60.6319 L 31.8763,-60.5182
 L 31.809,-60.4122 L 31.729,-60.3155 L 31.6374,-60.2295 L 31.5358,-60.1557 L 31.4258,-60.0952 L 31.309,-60.0489
 L 31.1874,-60.0177 L 31.0628,-60.002 L 30.9372,-60.002 L 30.8126,-60.0177 L 30.691,-60.0489 L 30.5742,-60.0952
 L 30.4642,-60.1557 L 30.3626,-60.2295 L 30.271,-60.3155 L 30.191,-60.4122 L 30.1237,-60.5182 L 30.0702,-60.6319
 L 30.0314,-60.7513 L 30.0079,-60.8747 z
" stroke="black" fill="lightgray" stroke-width="0.5"/>
</svg>
